<?xml version="1.0" encoding="utf-8"?>
<!-- Generator: Adobe Illustrator 14.0.0, SVG Export Plug-In . SVG Version: 6.00 Build 43363)  -->
<!DOCTYPE svg PUBLIC "-//W3C//DTD SVG 1.1//EN" "http://www.w3.org/Graphics/SVG/1.1/DTD/svg11.dtd">
<svg version="1.1" id="Layer_1" xmlns="http://www.w3.org/2000/svg" xmlns:xlink="http://www.w3.org/1999/xlink" x="0px" y="0px"
	 width="1324px" height="1332px" viewBox="74.5 56.5 1324 1332" enable-background="new 74.5 56.5 1324 1332" xml:space="preserve">
<g id="Layer_1_1_">
	<g>
		<path fill="none" stroke="#802215" d="M737.729,71.121c-361.077,0-653.789,292.711-653.789,653.788
			s292.711,653.788,653.789,653.788c361.076,0,653.787-292.711,653.787-653.788S1098.805,71.121,737.729,71.121z M886.312,1018.02
			L742.738,821.324L594.289,1018.02H422.526l235.778-306.135L567.25,590.344c-30.559-39.29-52.274-66.16-65.126-80.611
			c-28.959-32.064-53.083-50.523-72.371-55.342v-18.045h203.526L751.508,596.8l119.02-160.454h174.812L835.826,706.408
			l232.203,311.611H886.312L886.312,1018.02z"/>
		<path fill="#982819" d="M737.729,71.121c-361.077,0-653.789,292.711-653.789,653.788s292.711,653.788,653.789,653.788
			c361.076,0,653.787-292.711,653.787-653.788S1098.805,71.121,737.729,71.121z M886.312,1018.02L742.738,821.324L594.289,1018.02
			H422.526l235.778-306.135L567.25,590.344c-30.559-39.29-52.274-66.16-65.126-80.611c-28.959-32.064-53.083-50.523-72.371-55.342
			v-18.045h203.526L751.508,596.8l119.02-160.454h174.812L835.826,706.408l232.203,311.611H886.312L886.312,1018.02z"/>
	</g>
</g>
</svg>
