<?xml version="1.0" encoding="utf-8"?>
<!-- Generator: Adobe Illustrator 14.0.0, SVG Export Plug-In . SVG Version: 6.00 Build 43363)  -->
<!DOCTYPE svg PUBLIC "-//W3C//DTD SVG 1.1//EN" "http://www.w3.org/Graphics/SVG/1.1/DTD/svg11.dtd">
<svg version="1.1" id="Layer_1" xmlns="http://www.w3.org/2000/svg" xmlns:xlink="http://www.w3.org/1999/xlink" x="0px" y="0px"
	 width="2792.25px" height="193px" viewBox="0 0 2792.25 193" enable-background="new 0 0 2792.25 193" xml:space="preserve">
<g id="Layer_1_1_">
	<g id="Layer_4">
		<g>
			<g>
				<path fill="none" stroke="#FF9D00" stroke-width="4" d="M1424.524,3.326H2762.42c14.826,0,26.845,12.018,26.845,26.839v134.196
					c0,14.822-12.019,26.841-26.845,26.841H1424.524c-14.823,0-26.841-12.019-26.841-26.841V30.165
					C1397.684,15.343,1409.701,3.326,1424.524,3.326z"/>
				
					<linearGradient id="SVGID_1_" gradientUnits="userSpaceOnUse" x1="851.4746" y1="-223.2603" x2="851.4746" y2="-35.3848" gradientTransform="matrix(1 0 0 -1 1242 -32.0586)">
					<stop  offset="0" style="stop-color:#FFB206"/>
					<stop  offset="0.5644" style="stop-color:#FFC018"/>
					<stop  offset="1" style="stop-color:#FFBE35"/>
				</linearGradient>
				<path fill="url(#SVGID_1_)" d="M1424.524,3.326H2762.42c14.826,0,26.845,12.018,26.845,26.839v134.196
					c0,14.822-12.019,26.841-26.845,26.841H1424.524c-14.823,0-26.841-12.019-26.841-26.841V30.165
					C1397.684,15.343,1409.701,3.326,1424.524,3.326z"/>
			</g>
		</g>
		<g>
			<path fill="#FFFFFF" d="M1768.145,121.762c-3.489-2.25-6.105-5.257-7.853-9.021c-1.746-3.765-2.615-8.022-2.615-12.774
				c0-3.535,0.532-6.854,1.601-9.951c1.067-3.099,2.578-5.802,4.528-8.108c1.949-2.308,4.406-4.127,7.369-5.459
				c2.961-1.331,6.242-1.997,9.849-1.997c4.453,0,8.597,1.067,12.431,3.202c1.01,0.551,1.515,1.344,1.515,2.377
				c0,0.734-0.252,1.377-0.757,1.93c-0.505,0.551-1.112,0.824-1.823,0.824c-0.346,0-0.725-0.09-1.138-0.273
				c-0.092-0.046-0.374-0.188-0.844-0.432c-0.472-0.24-0.854-0.424-1.153-0.551c-0.298-0.127-0.758-0.299-1.377-0.518
				c-0.619-0.218-1.217-0.391-1.791-0.518c-0.572-0.125-1.292-0.234-2.15-0.326c-0.86-0.092-1.75-0.139-2.668-0.139
				c-2.229,0-4.248,0.346-6.062,1.032c-1.812,0.688-3.34,1.642-4.58,2.858c-1.239,1.216-2.284,2.664-3.134,4.339
				c-0.85,1.676-1.469,3.481-1.859,5.423c-0.391,1.939-0.584,4-0.584,6.181c0,2.183,0.193,4.234,0.584,6.164
				c0.394,1.929,1.012,3.727,1.859,5.391c0.85,1.663,1.898,3.094,3.15,4.286s2.802,2.136,4.647,2.821
				c1.849,0.689,3.908,1.033,6.183,1.033c2.043,0,3.834-0.271,5.371-0.809c1.537-0.54,3.202-1.314,4.992-2.324
				c0.459-0.253,0.896-0.379,1.311-0.379c0.712,0,1.32,0.264,1.826,0.792c0.504,0.526,0.758,1.146,0.758,1.858
				c0,1.057-0.574,1.951-1.723,2.687c-3.836,2.502-8.355,3.753-13.566,3.753C1775.732,125.136,1771.634,124.012,1768.145,121.762z"
				/>
			<path fill="#FFFFFF" d="M1806.264,123.62c-0.599-0.504-0.896-1.218-0.896-2.136V93.077c0-0.918,0.312-1.623,0.93-2.116
				c0.62-0.494,1.354-0.74,2.204-0.74c0.852,0,1.578,0.247,2.188,0.74c0.606,0.493,0.914,1.176,0.914,2.049l-0.035,4.133
				c0.574-2.136,1.728-3.919,3.461-5.354c1.731-1.435,3.815-2.151,6.25-2.151c0.734,0,1.313,0.274,1.738,0.826
				c0.426,0.551,0.637,1.192,0.637,1.929c0,0.688-0.194,1.279-0.584,1.771c-0.392,0.494-0.953,0.742-1.688,0.742
				c-3.1,0-5.505,0.805-7.215,2.409c-1.71,1.605-2.563,3.752-2.563,6.438v17.731c0,0.918-0.314,1.631-0.946,2.135
				c-0.632,0.507-1.372,0.76-2.222,0.76C1807.585,124.379,1806.859,124.126,1806.264,123.62z"/>
			<path fill="#FFFFFF" d="M1836.564,122.864c-2.547-1.399-4.574-3.462-6.078-6.183s-2.254-5.895-2.254-9.521
				c0-3.188,0.631-6.104,1.894-8.744c1.265-2.641,3.168-4.787,5.717-6.439c2.55-1.652,5.521-2.479,8.919-2.479
				c2.687,0,5.038,0.445,7.059,1.343c2.021,0.896,3.627,2.13,4.822,3.702c1.19,1.572,2.088,3.328,2.686,5.269
				c0.598,1.939,0.93,4.068,0.999,6.389c0,0.666-0.185,1.218-0.552,1.652c-0.366,0.436-0.918,0.653-1.652,0.653H1834.5
				c0.046,3.947,1.104,6.938,3.167,8.97c2.065,2.031,4.719,3.07,7.955,3.116c2.043,0,3.879-0.366,5.509-1.104
				c1.632-0.732,3.271-1.731,4.926-2.996c0.413-0.319,0.85-0.479,1.31-0.479c0.551,0,1.016,0.213,1.396,0.639
				c0.377,0.424,0.567,0.924,0.567,1.498c0,0.732-0.322,1.389-0.964,1.961c-3.629,3.26-8.012,4.892-13.154,4.892
				C1841.994,124.977,1839.113,124.264,1836.564,122.864z M1854.884,104.684c-0.207-3.215-1.112-5.843-2.72-7.887
				c-1.605-2.043-3.96-3.063-7.059-3.063c-1.607,0-3.064,0.311-4.373,0.93c-1.312,0.619-2.383,1.451-3.221,2.496
				s-1.504,2.205-1.996,3.479c-0.494,1.272-0.799,2.622-0.914,4.047L1854.884,104.684L1854.884,104.684z"/>
			<path fill="#FFFFFF" d="M1869.381,122.416c-2.25-1.725-3.375-4.167-3.375-7.337c0-1.31,0.141-2.454,0.414-3.44
				c0.275-0.986,0.666-1.854,1.171-2.603c0.505-0.744,1.218-1.377,2.136-1.894c0.918-0.518,1.928-0.94,3.028-1.274
				c1.104-0.332,2.502-0.584,4.201-0.759c1.698-0.172,3.448-0.291,5.251-0.358c1.802-0.067,3.979-0.104,6.525-0.104v-3.754
				c0-2.455-0.654-4.27-1.963-5.438c-1.311-1.172-3.135-1.756-5.477-1.756c-1.398,0-2.801,0.149-4.199,0.447
				c-1.4,0.299-2.503,0.598-3.308,0.896c-0.804,0.299-1.791,0.711-2.962,1.238c-0.229,0.114-0.504,0.172-0.825,0.172
				c-0.599,0-1.112-0.248-1.55-0.739c-0.437-0.493-0.653-1.039-0.653-1.638c0-0.688,0.321-1.217,0.964-1.584
				c3.559-1.996,7.793-2.996,12.706-2.996c4.2,0,7.489,0.978,9.865,2.929c2.376,1.951,3.563,4.958,3.563,9.021v20.076
				c0,0.896-0.316,1.603-0.947,2.117c-0.631,0.518-1.358,0.773-2.187,0.773c-0.826,0-1.532-0.246-2.118-0.739
				c-0.585-0.494-0.878-1.188-0.878-2.083v-3.307c-2.137,4.478-5.67,6.713-10.606,6.713
				C1874.559,124.999,1871.631,124.139,1869.381,122.416z M1885.754,117.595c1.985-2.182,2.979-4.958,2.979-8.333v-1.031
				c-2.846,0-5.164,0.051-6.955,0.153s-3.375,0.287-4.752,0.552c-1.377,0.266-2.41,0.653-3.1,1.172
				c-0.688,0.518-1.199,1.144-1.531,1.877c-0.334,0.732-0.5,1.676-0.5,2.822c0,2.09,0.619,3.621,1.857,4.598
				c1.239,0.978,2.93,1.463,5.062,1.463C1881.455,120.866,1883.77,119.775,1885.754,117.595z"/>
			<path fill="#FFFFFF" d="M1909.807,122.296c-1.562-1.711-2.343-4.346-2.343-7.903V94.559h-4.198c-0.76,0-1.338-0.184-1.74-0.551
				c-0.401-0.367-0.604-0.86-0.604-1.479c0-0.598,0.194-1.086,0.585-1.465c0.392-0.378,0.966-0.568,1.724-0.568h4.233l0.826-9.777
				c0.046-0.734,0.373-1.366,0.981-1.895c0.605-0.527,1.276-0.793,2.014-0.793c0.689,0,1.263,0.213,1.722,0.639
				c0.459,0.425,0.688,1.039,0.688,1.842v9.984h6.336c0.757,0,1.326,0.195,1.705,0.587c0.379,0.39,0.566,0.895,0.566,1.515
				c0,1.309-0.758,1.962-2.271,1.962h-6.335v18.767c0,2.364,0.333,4.069,0.999,5.112c0.666,1.045,1.722,1.567,3.168,1.567h0.379
				l2.341-0.104h0.207c0.758,0,1.354,0.242,1.791,0.726c0.438,0.479,0.654,1.045,0.654,1.688c0,0.574-0.126,1.039-0.379,1.396
				c-0.254,0.354-0.637,0.613-1.154,0.772c-0.516,0.16-1.033,0.266-1.549,0.312c-0.516,0.046-1.188,0.067-2.016,0.067h-2.03
				C1913.468,124.859,1911.367,124.006,1909.807,122.296z"/>
			<path fill="#FFFFFF" d="M1936.665,122.864c-2.548-1.399-4.575-3.462-6.078-6.183c-1.504-2.721-2.256-5.895-2.256-9.521
				c0-3.188,0.632-6.104,1.896-8.744c1.263-2.641,3.168-4.787,5.717-6.439c2.548-1.652,5.521-2.479,8.918-2.479
				c2.686,0,5.039,0.445,7.059,1.343c2.021,0.896,3.627,2.13,4.82,3.702c1.192,1.572,2.089,3.328,2.688,5.269
				c0.598,1.939,0.93,4.068,0.998,6.389c0,0.666-0.186,1.218-0.552,1.652c-0.366,0.436-0.918,0.653-1.651,0.653H1934.6
				c0.047,3.947,1.103,6.938,3.168,8.97c2.062,2.032,4.717,3.07,7.954,3.116c2.043,0,3.88-0.366,5.509-1.104
				c1.631-0.732,3.271-1.731,4.924-2.996c0.414-0.319,0.85-0.479,1.311-0.479c0.553,0,1.018,0.213,1.396,0.639
				c0.378,0.424,0.567,0.924,0.567,1.498c0,0.732-0.321,1.389-0.966,1.961c-3.627,3.26-8.012,4.892-13.15,4.892
				C1942.093,124.977,1939.213,124.264,1936.665,122.864z M1954.984,104.684c-0.207-3.215-1.114-5.843-2.721-7.887
				c-1.606-2.043-3.959-3.063-7.061-3.063c-1.605,0-3.062,0.311-4.373,0.93c-1.309,0.619-2.382,1.451-3.221,2.496
				c-0.838,1.045-1.504,2.205-1.996,3.479c-0.494,1.272-0.799,2.622-0.913,4.047L1954.984,104.684L1954.984,104.684z"/>
			<path fill="#FFFFFF" d="M2002.4,103.855l-15.564-23.896c-0.32-0.482-0.48-1.011-0.48-1.584c0-0.851,0.36-1.584,1.086-2.204
				c0.723-0.62,1.543-0.931,2.462-0.931c1.192,0,2.135,0.552,2.823,1.653l13.565,21.487l13.637-21.59
				c0.688-1.079,1.584-1.618,2.688-1.618c0.78,0,1.463,0.264,2.049,0.792c0.585,0.527,0.878,1.158,0.878,1.895
				c0,0.573-0.172,1.125-0.518,1.651l-15.633,24.104v17.422c0,1.032-0.346,1.845-1.033,2.43c-0.688,0.586-1.504,0.879-2.444,0.879
				c-0.964,0-1.79-0.293-2.479-0.879c-0.688-0.585-1.032-1.405-1.032-2.462L2002.4,103.855L2002.4,103.855z"/>
			<path fill="#FFFFFF" d="M2035.577,120.006c-3.111-3.329-4.666-7.576-4.666-12.74c0-5.188,1.555-9.445,4.666-12.775
				c3.11-3.328,7.307-4.992,12.586-4.992c5.28,0,9.476,1.658,12.586,4.977c3.11,3.317,4.666,7.582,4.666,12.792
				c0,5.164-1.549,9.412-4.646,12.74c-3.102,3.328-7.302,4.992-12.604,4.992C2042.884,124.999,2038.688,123.334,2035.577,120.006z
				 M2056.307,117.13c1.938-2.397,2.909-5.688,2.909-9.864c0-4.154-0.979-7.449-2.943-9.883c-1.963-2.435-4.666-3.649-8.108-3.649
				c-3.467,0-6.176,1.211-8.126,3.633c-1.951,2.422-2.927,5.723-2.927,9.898c0,4.133,0.969,7.408,2.91,9.83
				c1.938,2.422,4.631,3.633,8.073,3.633C2051.629,120.729,2054.366,119.53,2056.307,117.13z"/>
			<path fill="#FFFFFF" d="M2076.141,121.676c-2.263-2.216-3.394-5.55-3.394-10.003V93.11c0-0.939,0.312-1.67,0.932-2.187
				c0.619-0.519,1.354-0.774,2.203-0.774s1.577,0.258,2.188,0.774c0.606,0.517,0.912,1.246,0.912,2.187v18.629
				c0,2.938,0.666,5.172,1.996,6.696c1.332,1.527,3.235,2.291,5.717,2.291c2.663,0,4.912-0.937,6.749-2.808
				c1.835-1.87,2.835-4.437,2.996-7.694V93.11c0-0.916,0.311-1.641,0.93-2.168c0.621-0.529,1.354-0.793,2.205-0.793
				c0.849,0,1.572,0.258,2.168,0.774c0.599,0.517,0.896,1.246,0.896,2.187v28.34c0,0.918-0.312,1.637-0.933,2.151
				c-0.619,0.517-1.354,0.774-2.203,0.774s-1.571-0.247-2.17-0.74c-0.596-0.493-0.895-1.188-0.895-2.084v-3.062
				c-0.873,2.088-2.311,3.694-4.306,4.819c-1.998,1.125-4.314,1.688-6.955,1.688C2081.414,124.999,2078.4,123.891,2076.141,121.676z
				"/>
			<path fill="#FFFFFF" d="M2114.07,123.62c-0.596-0.504-0.896-1.218-0.896-2.136V93.077c0-0.918,0.311-1.623,0.932-2.116
				c0.618-0.494,1.354-0.74,2.202-0.74c0.85,0,1.577,0.247,2.188,0.74c0.606,0.493,0.912,1.176,0.912,2.049l-0.035,4.133
				c0.574-2.136,1.729-3.919,3.461-5.354s3.816-2.151,6.25-2.151c0.734,0,1.314,0.274,1.738,0.826
				c0.426,0.551,0.637,1.192,0.637,1.929c0,0.688-0.191,1.279-0.584,1.771c-0.391,0.494-0.952,0.742-1.688,0.742
				c-3.102,0-5.504,0.805-7.216,2.409c-1.709,1.605-2.563,3.752-2.563,6.438v17.731c0,0.918-0.313,1.631-0.947,2.135
				c-0.631,0.507-1.37,0.76-2.221,0.76C2115.389,124.379,2114.667,124.126,2114.07,123.62z"/>
			<path fill="#FFFFFF" d="M2189.378,111.845h-23.69l-4.062,10.468c-0.573,1.518-1.644,2.272-3.202,2.272
				c-0.896,0-1.69-0.287-2.394-0.86c-0.701-0.572-1.052-1.297-1.052-2.17c0-0.367,0.093-0.791,0.272-1.271l16.356-40.599
				c0.779-1.95,1.623-3.241,2.531-3.874c0.903-0.631,2.037-0.947,3.392-0.947s2.483,0.315,3.393,0.947
				c0.909,0.631,1.75,1.924,2.531,3.874l16.354,40.599c0.185,0.48,0.274,0.906,0.274,1.271c0,0.873-0.354,1.598-1.067,2.17
				c-0.711,0.573-1.517,0.86-2.409,0.86c-1.537,0-2.595-0.758-3.168-2.272L2189.378,111.845z M2177.532,81.405l-9.884,25.446h19.767
				L2177.532,81.405z"/>
			<path fill="#FFFFFF" d="M2209.417,119.989c-2.938-3.362-4.406-7.604-4.406-12.726c0-3.306,0.688-6.301,2.064-8.986
				c1.379-2.687,3.362-4.818,5.959-6.402c2.594-1.584,5.577-2.376,8.95-2.376c1.976,0,3.802,0.273,5.478,0.824
				c1.677,0.553,3.008,1.24,3.994,2.066c0.778,0.62,1.172,1.286,1.172,1.997c0,0.505-0.188,0.931-0.567,1.272
				c-0.379,0.346-0.845,0.519-1.396,0.519c-0.504,0-0.985-0.149-1.444-0.448c-2.088-1.354-4.396-2.031-6.92-2.031
				c-3.283,0-5.947,1.233-7.99,3.7c-2.043,2.47-3.063,5.791-3.063,9.97c0,1.746,0.207,3.397,0.621,4.959
				c0.412,1.562,1.031,2.979,1.858,4.252c0.826,1.274,1.929,2.285,3.306,3.03c1.377,0.746,2.961,1.119,4.752,1.119
				c3.146,0,5.772-0.733,7.885-2.205c0.438-0.297,0.896-0.446,1.379-0.446c0.527,0,0.978,0.18,1.345,0.534
				c0.366,0.354,0.551,0.798,0.551,1.324c0,0.758-0.392,1.459-1.172,2.103c-2.479,1.996-5.97,2.996-10.467,2.996
				C2216.316,125.032,2212.357,123.352,2209.417,119.989z"/>
			<path fill="#FFFFFF" d="M2242.441,119.989c-2.939-3.362-4.408-7.604-4.408-12.726c0-3.306,0.688-6.301,2.065-8.986
				c1.377-2.687,3.36-4.818,5.956-6.402s5.578-2.376,8.953-2.376c1.977,0,3.8,0.273,5.477,0.824c1.676,0.553,3.008,1.24,3.993,2.066
				c0.78,0.62,1.173,1.286,1.173,1.997c0,0.505-0.189,0.931-0.568,1.272c-0.379,0.346-0.844,0.519-1.396,0.519
				c-0.507,0-0.987-0.149-1.446-0.448c-2.088-1.354-4.396-2.031-6.923-2.031c-3.28,0-5.944,1.233-7.987,3.7
				c-2.043,2.47-3.062,5.791-3.062,9.97c0,1.746,0.205,3.397,0.619,4.959s1.029,2.979,1.857,4.252
				c0.826,1.274,1.928,2.285,3.309,3.03c1.377,0.746,2.961,1.119,4.75,1.119c3.146,0,5.771-0.733,7.887-2.205
				c0.436-0.297,0.895-0.446,1.377-0.446c0.527,0,0.977,0.18,1.344,0.534s0.551,0.798,0.551,1.324c0,0.758-0.391,1.459-1.172,2.103
				c-2.479,1.996-5.969,2.996-10.467,2.996C2249.339,125.032,2245.378,123.352,2242.441,119.989z"/>
			<path fill="#FFFFFF" d="M2275.72,120.006c-3.107-3.329-4.663-7.576-4.663-12.74c0-5.188,1.555-9.445,4.663-12.775
				c3.109-3.328,7.309-4.992,12.587-4.992s9.478,1.658,12.586,4.977s4.666,7.582,4.666,12.792c0,5.164-1.55,9.412-4.647,12.74
				c-3.101,3.328-7.302,4.992-12.604,4.992C2283.027,124.999,2278.831,123.334,2275.72,120.006z M2296.45,117.13
				c1.938-2.397,2.909-5.688,2.909-9.864c0-4.154-0.981-7.449-2.944-9.883c-1.963-2.435-4.666-3.649-8.106-3.649
				c-3.468,0-6.177,1.211-8.127,3.633c-1.951,2.422-2.929,5.723-2.929,9.898c0,4.133,0.972,7.408,2.91,9.83s4.631,3.633,8.073,3.633
				C2291.773,120.729,2294.511,119.53,2296.45,117.13z"/>
			<path fill="#FFFFFF" d="M2316.284,121.676c-2.263-2.216-3.394-5.55-3.394-10.003V93.11c0-0.939,0.312-1.67,0.93-2.187
				c0.621-0.519,1.355-0.774,2.205-0.774c0.851,0,1.578,0.258,2.187,0.774c0.608,0.517,0.912,1.246,0.912,2.187v18.629
				c0,2.938,0.666,5.172,1.998,6.696c1.332,1.527,3.236,2.291,5.717,2.291c2.662,0,4.912-0.937,6.748-2.808
				c1.838-1.87,2.836-4.437,2.996-7.694V93.11c0-0.916,0.312-1.641,0.931-2.168c0.621-0.529,1.354-0.793,2.205-0.793
				c0.851,0,1.569,0.258,2.168,0.774c0.599,0.517,0.896,1.246,0.896,2.187v28.34c0,0.918-0.312,1.637-0.93,2.151
				c-0.621,0.517-1.355,0.774-2.205,0.774s-1.572-0.247-2.168-0.74c-0.6-0.493-0.896-1.188-0.896-2.084v-3.062
				c-0.873,2.088-2.307,3.694-4.305,4.819c-1.996,1.125-4.315,1.688-6.955,1.688
				C2321.559,124.999,2318.546,123.891,2316.284,121.676z"/>
			<path fill="#FFFFFF" d="M2354.145,123.604c-0.597-0.517-0.896-1.244-0.896-2.187V93.11c0-0.916,0.312-1.635,0.933-2.15
				c0.619-0.518,1.354-0.775,2.203-0.775c0.85,0,1.577,0.247,2.188,0.74c0.606,0.494,0.912,1.188,0.912,2.083v2.996
				c0.873-2.088,2.301-3.696,4.287-4.821c1.985-1.125,4.299-1.688,6.938-1.688c3.787,0,6.809,1.103,9.059,3.307
				c2.25,2.204,3.375,5.544,3.375,10.021v18.595c0,0.939-0.306,1.67-0.912,2.188c-0.609,0.518-1.338,0.774-2.188,0.774
				c-0.85,0-1.578-0.26-2.188-0.774c-0.61-0.516-0.912-1.244-0.912-2.188v-18.663c0-2.938-0.685-5.178-2.049-6.714
				c-1.365-1.538-3.289-2.308-5.77-2.308c-2.641,0-4.866,0.94-6.682,2.822c-1.812,1.882-2.801,4.442-2.961,7.679v17.184
				c0,0.919-0.316,1.643-0.947,2.17c-0.631,0.526-1.371,0.792-2.221,0.792C2355.466,124.379,2354.741,124.12,2354.145,123.604z"/>
			<path fill="#FFFFFF" d="M2398.048,122.296c-1.561-1.711-2.342-4.346-2.342-7.903V94.559h-4.199c-0.76,0-1.338-0.184-1.739-0.551
				c-0.399-0.367-0.604-0.86-0.604-1.479c0-0.598,0.195-1.086,0.586-1.465c0.393-0.378,0.965-0.568,1.725-0.568h4.232l0.826-9.777
				c0.047-0.734,0.373-1.366,0.981-1.895c0.606-0.527,1.276-0.793,2.015-0.793c0.688,0,1.264,0.213,1.723,0.639
				c0.459,0.425,0.688,1.039,0.688,1.842v9.984h6.336c0.758,0,1.326,0.195,1.705,0.587c0.379,0.39,0.565,0.895,0.565,1.515
				c0,1.309-0.759,1.962-2.271,1.962h-6.336v18.767c0,2.364,0.334,4.069,0.998,5.112c0.666,1.045,1.724,1.567,3.168,1.567h0.379
				l2.343-0.104h0.207c0.758,0,1.354,0.242,1.791,0.726c0.438,0.479,0.653,1.045,0.653,1.688c0,0.574-0.127,1.039-0.379,1.396
				c-0.252,0.354-0.64,0.613-1.153,0.772c-0.517,0.16-1.033,0.266-1.55,0.312c-0.519,0.046-1.188,0.067-2.017,0.067h-2.03
				C2401.71,124.859,2399.609,124.006,2398.048,122.296z"/>
		</g>
	</g>
</g>
<g id="Layer_2_1_">
	<g id="Layer_2_2_">
		<g>
			<g>
				<path fill="none" stroke="#FF8400" stroke-width="4" d="M29.09,2.833h1337.896c14.826,0,26.842,12.017,26.842,26.838v134.198
					c0,14.82-12.016,26.84-26.842,26.84H29.09c-14.822,0-26.84-12.02-26.84-26.84V29.67C2.25,14.849,14.268,2.833,29.09,2.833z"/>
				
					<linearGradient id="SVGID_2_" gradientUnits="userSpaceOnUse" x1="-957.9609" y1="1338.7676" x2="-957.9609" y2="1150.8916" gradientTransform="matrix(1 0 0 1 1656 -1148.0586)">
					<stop  offset="0" style="stop-color:#FFA406"/>
					<stop  offset="0.5644" style="stop-color:#FFAB19"/>
					<stop  offset="1" style="stop-color:#FFAE21"/>
				</linearGradient>
				<path fill="url(#SVGID_2_)" d="M29.09,2.833h1337.896c14.826,0,26.842,12.017,26.842,26.838v134.198
					c0,14.82-12.016,26.84-26.842,26.84H29.09c-14.822,0-26.84-12.02-26.84-26.84V29.67C2.25,14.849,14.268,2.833,29.09,2.833z"/>
			</g>
		</g>
	</g>
	<g id="Layer_3_1_">
		<g>
			<path fill="#FFFFFF" d="M372.709,121.268c-3.488-2.25-6.104-5.257-7.851-9.021c-1.745-3.767-2.617-8.021-2.617-12.774
				c0-3.535,0.534-6.854,1.604-9.951c1.064-3.101,2.575-5.804,4.526-8.108c1.95-2.308,4.407-4.126,7.368-5.458
				c2.962-1.331,6.244-1.997,9.851-1.997c4.451,0,8.598,1.065,12.432,3.202c1.01,0.551,1.515,1.343,1.515,2.375
				c0,0.733-0.253,1.378-0.757,1.93c-0.505,0.551-1.114,0.826-1.825,0.826c-0.344,0-0.723-0.092-1.136-0.275
				c-0.092-0.046-0.374-0.188-0.845-0.431c-0.474-0.241-0.854-0.425-1.152-0.552c-0.298-0.125-0.758-0.299-1.377-0.519
				c-0.619-0.218-1.218-0.39-1.791-0.517c-0.574-0.125-1.291-0.235-2.151-0.327c-0.859-0.091-1.75-0.138-2.668-0.138
				c-2.228,0-4.247,0.345-6.062,1.031c-1.814,0.688-3.341,1.644-4.58,2.857c-1.24,1.217-2.285,2.664-3.135,4.339
				c-0.851,1.677-1.469,3.483-1.857,5.423c-0.393,1.94-0.586,4-0.586,6.184c0,2.18,0.193,4.232,0.586,6.164
				c0.393,1.93,1.01,3.725,1.857,5.389c0.849,1.664,1.897,3.094,3.149,4.287c1.251,1.191,2.803,2.135,4.648,2.82
				c1.848,0.688,3.907,1.031,6.182,1.031c2.043,0,3.833-0.271,5.371-0.81c1.539-0.539,3.203-1.312,4.994-2.324
				c0.459-0.252,0.896-0.379,1.31-0.379c0.712,0,1.319,0.267,1.824,0.793c0.506,0.527,0.758,1.146,0.758,1.859
				c0,1.055-0.572,1.948-1.722,2.686c-3.834,2.502-8.354,3.752-13.565,3.752C380.299,124.643,376.199,123.518,372.709,121.268z"/>
			<path fill="#FFFFFF" d="M410.828,123.126c-0.597-0.504-0.896-1.217-0.896-2.135V92.583c0-0.918,0.311-1.624,0.931-2.118
				c0.62-0.493,1.354-0.739,2.204-0.739c0.85,0,1.577,0.246,2.188,0.739c0.605,0.494,0.912,1.177,0.912,2.05l-0.033,4.132
				c0.57-2.136,1.728-3.918,3.459-5.354c1.731-1.437,3.814-2.152,6.25-2.152c0.733,0,1.312,0.275,1.738,0.826
				c0.426,0.551,0.639,1.194,0.639,1.931c0,0.688-0.194,1.277-0.585,1.771c-0.394,0.494-0.953,0.74-1.688,0.74
				c-3.1,0-5.504,0.805-7.214,2.408c-1.71,1.608-2.563,3.753-2.563,6.44v17.732c0,0.918-0.313,1.629-0.946,2.135
				c-0.632,0.504-1.372,0.758-2.222,0.758C412.151,123.884,411.426,123.632,410.828,123.126z"/>
			<path fill="#FFFFFF" d="M441.131,122.368c-2.55-1.4-4.574-3.459-6.078-6.183c-1.504-2.721-2.254-5.895-2.254-9.52
				c0-3.189,0.631-6.107,1.895-8.748c1.262-2.641,3.168-4.787,5.716-6.438c2.548-1.652,5.521-2.479,8.918-2.479
				c2.688,0,5.039,0.446,7.061,1.343s3.627,2.13,4.819,3.702c1.193,1.573,2.089,3.33,2.688,5.271c0.599,1.938,0.931,4.068,1,6.388
				c0,0.666-0.188,1.217-0.553,1.651c-0.366,0.438-0.918,0.652-1.651,0.652h-23.622c0.046,3.947,1.103,6.938,3.167,8.969
				c2.065,2.031,4.718,3.07,7.954,3.115c2.044,0,3.88-0.367,5.51-1.102c1.63-0.735,3.271-1.732,4.924-2.996
				c0.413-0.32,0.851-0.482,1.312-0.482c0.552,0,1.017,0.213,1.396,0.641c0.379,0.427,0.568,0.927,0.568,1.498
				c0,0.732-0.322,1.392-0.965,1.964c-3.628,3.26-8.015,4.891-13.153,4.891C446.561,124.479,443.68,123.77,441.131,122.368z
				 M459.449,104.189c-0.207-3.215-1.113-5.844-2.721-7.887c-1.606-2.043-3.959-3.063-7.06-3.063c-1.606,0-3.062,0.312-4.373,0.933
				c-1.311,0.62-2.381,1.452-3.222,2.497c-0.838,1.045-1.503,2.204-1.997,3.479c-0.492,1.271-0.798,2.623-0.91,4.047
				L459.449,104.189L459.449,104.189z"/>
			<path fill="#FFFFFF" d="M473.946,121.921c-2.25-1.721-3.375-4.166-3.375-7.334c0-1.312,0.138-2.457,0.414-3.442
				c0.273-0.984,0.666-1.854,1.17-2.601s1.217-1.377,2.136-1.896c0.916-0.52,1.93-0.938,3.029-1.272
				c1.104-0.332,2.501-0.584,4.201-0.758c1.698-0.173,3.448-0.291,5.25-0.361c1.803-0.065,3.979-0.104,6.524-0.104V100.4
				c0-2.457-0.653-4.271-1.961-5.439c-1.312-1.171-3.137-1.756-5.478-1.756c-1.397,0-2.803,0.148-4.201,0.447
				c-1.397,0.299-2.502,0.598-3.307,0.896c-0.805,0.298-1.791,0.711-2.961,1.239c-0.229,0.113-0.506,0.172-0.826,0.172
				c-0.599,0-1.113-0.247-1.551-0.74c-0.438-0.492-0.653-1.039-0.653-1.636c0-0.688,0.321-1.218,0.965-1.584
				c3.56-1.997,7.793-2.996,12.706-2.996c4.199,0,7.488,0.976,9.865,2.927c2.375,1.951,3.562,4.958,3.562,9.022v20.071
				c0,0.896-0.314,1.604-0.946,2.117c-0.632,0.521-1.359,0.775-2.188,0.775c-0.824,0-1.53-0.248-2.117-0.74
				c-0.586-0.494-0.879-1.189-0.879-2.084v-3.305c-2.136,4.477-5.67,6.713-10.604,6.713
				C479.123,124.503,476.196,123.645,473.946,121.921z M490.32,117.102c1.983-2.183,2.979-4.959,2.979-8.332v-1.031
				c-2.848,0-5.164,0.051-6.955,0.154c-1.791,0.103-3.375,0.284-4.752,0.551c-1.377,0.266-2.41,0.651-3.102,1.168
				c-0.688,0.52-1.199,1.145-1.531,1.877c-0.332,0.734-0.5,1.678-0.5,2.824c0,2.09,0.619,3.621,1.859,4.6
				c1.238,0.975,2.927,1.463,5.062,1.463C486.021,120.372,488.334,119.282,490.32,117.102z"/>
			<path fill="#FFFFFF" d="M514.372,121.802c-1.562-1.711-2.341-4.346-2.341-7.903V94.065h-4.201c-0.757,0-1.337-0.185-1.736-0.552
				c-0.401-0.366-0.604-0.86-0.604-1.479c0-0.598,0.193-1.084,0.585-1.465c0.393-0.379,0.964-0.566,1.725-0.566h4.232l0.826-9.778
				c0.046-0.735,0.373-1.366,0.979-1.895c0.606-0.528,1.277-0.792,2.016-0.792c0.688,0,1.263,0.212,1.722,0.637
				c0.459,0.425,0.688,1.039,0.688,1.843v9.985h6.337c0.758,0,1.325,0.193,1.704,0.585c0.379,0.392,0.566,0.896,0.566,1.517
				c0,1.309-0.757,1.961-2.271,1.961h-6.337v18.768c0,2.361,0.334,4.066,1,5.111s1.723,1.563,3.168,1.563h0.379l2.342-0.104h0.207
				c0.758,0,1.354,0.239,1.791,0.723c0.438,0.479,0.652,1.045,0.652,1.688c0,0.572-0.125,1.039-0.379,1.396
				c-0.252,0.354-0.639,0.615-1.153,0.772c-0.517,0.16-1.032,0.267-1.55,0.312c-0.518,0.045-1.188,0.068-2.017,0.068h-2.028
				C518.033,124.366,515.935,123.511,514.372,121.802z"/>
			<path fill="#FFFFFF" d="M541.231,122.368c-2.549-1.4-4.575-3.459-6.078-6.183c-1.504-2.721-2.256-5.895-2.256-9.52
				c0-3.189,0.632-6.107,1.894-8.748c1.265-2.641,3.17-4.787,5.719-6.438c2.548-1.652,5.521-2.479,8.918-2.479
				c2.687,0,5.039,0.446,7.06,1.343s3.627,2.13,4.819,3.702c1.19,1.573,2.09,3.33,2.687,5.271c0.6,1.938,0.932,4.068,0.999,6.388
				c0,0.666-0.185,1.217-0.551,1.651c-0.367,0.438-0.918,0.652-1.653,0.652h-23.619c0.047,3.947,1.104,6.938,3.166,8.969
				c2.065,2.031,4.721,3.07,7.955,3.115c2.043,0,3.879-0.367,5.512-1.102c1.629-0.734,3.271-1.732,4.925-2.996
				c0.411-0.32,0.849-0.482,1.309-0.482c0.552,0,1.018,0.213,1.396,0.641c0.378,0.427,0.565,0.927,0.565,1.498
				c0,0.732-0.319,1.392-0.964,1.964c-3.627,3.26-8.012,4.891-13.152,4.891C546.659,124.479,543.778,123.77,541.231,122.368z
				 M559.551,104.189c-0.207-3.215-1.113-5.844-2.723-7.887c-1.605-2.043-3.96-3.063-7.06-3.063c-1.606,0-3.063,0.312-4.372,0.933
				c-1.311,0.62-2.384,1.452-3.222,2.497s-1.504,2.204-1.996,3.479c-0.494,1.271-0.799,2.623-0.913,4.047L559.551,104.189
				L559.551,104.189z"/>
			<path fill="#FFFFFF" d="M606.967,103.361l-15.563-23.896c-0.322-0.482-0.48-1.01-0.48-1.584c0-0.85,0.36-1.584,1.086-2.204
				c0.724-0.62,1.543-0.93,2.462-0.93c1.19,0,2.135,0.551,2.821,1.651l13.567,21.487l13.636-21.589
				c0.688-1.079,1.584-1.618,2.688-1.618c0.778,0,1.464,0.264,2.05,0.792c0.584,0.528,0.877,1.159,0.877,1.895
				c0,0.574-0.172,1.125-0.518,1.652l-15.635,24.106v17.422c0,1.033-0.345,1.842-1.033,2.429c-0.688,0.586-1.504,0.879-2.443,0.879
				c-0.964,0-1.789-0.293-2.479-0.879c-0.689-0.587-1.033-1.404-1.033-2.464L606.967,103.361L606.967,103.361z"/>
			<path fill="#FFFFFF" d="M640.145,119.511c-3.111-3.327-4.666-7.575-4.666-12.737c0-5.189,1.555-9.445,4.666-12.775
				c3.109-3.328,7.306-4.993,12.586-4.993c5.279,0,9.475,1.658,12.586,4.977c3.109,3.317,4.666,7.581,4.666,12.793
				c0,5.164-1.551,9.408-4.648,12.738c-3.099,3.327-7.3,4.991-12.604,4.991C647.448,124.503,643.254,122.839,640.145,119.511z
				 M660.873,116.636c1.939-2.397,2.909-5.688,2.909-9.862c0-4.154-0.979-7.449-2.942-9.883c-1.965-2.433-4.666-3.65-8.107-3.65
				c-3.467,0-6.177,1.213-8.127,3.636c-1.95,2.421-2.927,5.72-2.927,9.899c0,4.132,0.97,7.404,2.907,9.826
				c1.939,2.424,4.634,3.635,8.075,3.635C656.195,120.232,658.933,119.034,660.873,116.636z"/>
			<path fill="#FFFFFF" d="M680.707,121.182c-2.262-2.216-3.393-5.55-3.393-10.002V92.618c0-0.94,0.311-1.67,0.93-2.188
				c0.62-0.517,1.354-0.772,2.204-0.772c0.849,0,1.577,0.26,2.188,0.772c0.604,0.519,0.909,1.246,0.909,2.188v18.629
				c0,2.938,0.666,5.17,1.998,6.694c1.33,1.525,3.236,2.289,5.718,2.289c2.662,0,4.909-0.938,6.748-2.809
				c1.836-1.869,2.834-4.438,2.998-7.693v-17.11c0-0.918,0.31-1.643,0.93-2.172c0.619-0.525,1.354-0.791,2.203-0.791
				c0.85,0,1.571,0.26,2.17,0.772c0.597,0.519,0.896,1.246,0.896,2.188v28.34c0,0.918-0.312,1.635-0.93,2.147
				c-0.621,0.521-1.354,0.773-2.205,0.773c-0.852,0-1.572-0.246-2.168-0.74c-0.599-0.494-0.896-1.188-0.896-2.084v-3.061
				c-0.872,2.09-2.307,3.695-4.304,4.82c-1.998,1.125-4.313,1.688-6.956,1.688C685.98,124.503,682.967,123.396,680.707,121.182z"/>
			<path fill="#FFFFFF" d="M718.637,123.126c-0.598-0.504-0.896-1.217-0.896-2.135V92.583c0-0.918,0.312-1.624,0.934-2.118
				c0.618-0.494,1.354-0.739,2.202-0.739c0.85,0,1.577,0.246,2.188,0.739c0.605,0.494,0.911,1.177,0.911,2.05l-0.034,4.132
				c0.573-2.136,1.729-3.918,3.461-5.354c1.731-1.436,3.815-2.152,6.25-2.152c0.733,0,1.313,0.275,1.737,0.826
				c0.427,0.551,0.638,1.194,0.638,1.931c0,0.688-0.193,1.277-0.584,1.771c-0.392,0.494-0.953,0.74-1.688,0.74
				c-3.102,0-5.504,0.805-7.216,2.408c-1.712,1.608-2.563,3.753-2.563,6.44v17.732c0,0.918-0.315,1.629-0.946,2.135
				c-0.631,0.504-1.371,0.758-2.222,0.758C719.953,123.884,719.232,123.632,718.637,123.126z"/>
			<path fill="#FFFFFF" d="M793.944,111.352h-23.69l-4.062,10.467c-0.573,1.518-1.641,2.272-3.202,2.272
				c-0.896,0-1.689-0.286-2.394-0.86c-0.699-0.572-1.053-1.297-1.053-2.17c0-0.367,0.094-0.791,0.275-1.271l16.354-40.598
				c0.779-1.951,1.625-3.24,2.529-3.873c0.905-0.632,2.037-0.947,3.395-0.947c1.354,0,2.483,0.315,3.392,0.947
				c0.908,0.631,1.75,1.922,2.531,3.873l16.354,40.598c0.186,0.48,0.272,0.904,0.272,1.271c0,0.873-0.354,1.598-1.063,2.17
				c-0.711,0.574-1.519,0.86-2.41,0.86c-1.539,0-2.594-0.758-3.168-2.272L793.944,111.352z M782.1,80.911l-9.883,25.448h19.766
				L782.1,80.911z"/>
			<path fill="#FFFFFF" d="M813.982,119.493c-2.938-3.363-4.405-7.604-4.405-12.724c0-3.307,0.688-6.303,2.063-8.985
				c1.379-2.689,3.362-4.821,5.959-6.405c2.595-1.584,5.577-2.376,8.95-2.376c1.977,0,3.802,0.274,5.479,0.826
				c1.676,0.551,3.006,1.239,3.993,2.064c0.778,0.619,1.171,1.285,1.171,1.996c0,0.507-0.188,0.931-0.566,1.274
				c-0.379,0.344-0.846,0.517-1.396,0.517c-0.504,0-0.986-0.147-1.445-0.446c-2.09-1.354-4.396-2.031-6.922-2.031
				c-3.28,0-5.944,1.231-7.987,3.701c-2.043,2.469-3.063,5.792-3.063,9.969c0,1.746,0.207,3.395,0.621,4.959
				c0.412,1.561,1.03,2.979,1.858,4.252c0.823,1.271,1.928,2.283,3.305,3.029c1.377,0.744,2.961,1.117,4.752,1.117
				c3.146,0,5.772-0.732,7.887-2.203c0.438-0.299,0.896-0.445,1.379-0.445c0.525,0,0.978,0.178,1.344,0.533
				c0.365,0.354,0.552,0.799,0.552,1.324c0,0.76-0.394,1.457-1.173,2.102c-2.479,1.998-5.969,2.996-10.469,2.996
				C820.883,124.538,816.924,122.855,813.982,119.493z"/>
			<path fill="#FFFFFF" d="M847.008,119.493c-2.938-3.363-4.408-7.604-4.408-12.724c0-3.307,0.688-6.303,2.064-8.985
				c1.377-2.689,3.361-4.821,5.955-6.405c2.598-1.584,5.578-2.376,8.953-2.376c1.979,0,3.801,0.274,5.479,0.826
				c1.676,0.551,3.008,1.239,3.992,2.064c0.779,0.619,1.174,1.285,1.174,1.996c0,0.507-0.188,0.931-0.567,1.274
				c-0.38,0.343-0.845,0.517-1.396,0.517c-0.506,0-0.985-0.147-1.444-0.446c-2.089-1.354-4.396-2.031-6.924-2.031
				c-3.279,0-5.943,1.231-7.986,3.701c-2.043,2.469-3.062,5.792-3.062,9.969c0,1.746,0.204,3.395,0.618,4.959
				c0.412,1.561,1.03,2.979,1.858,4.252c0.825,1.271,1.928,2.283,3.305,3.029c1.377,0.744,2.961,1.117,4.752,1.117
				c3.146,0,5.773-0.732,7.889-2.203c0.437-0.299,0.896-0.445,1.377-0.445c0.525,0,0.978,0.178,1.344,0.533
				c0.367,0.354,0.552,0.799,0.552,1.324c0,0.76-0.392,1.457-1.172,2.102c-2.479,1.998-5.97,2.996-10.468,2.996
				C853.904,124.538,849.944,122.855,847.008,119.493z"/>
			<path fill="#FFFFFF" d="M880.285,119.511c-3.107-3.327-4.664-7.575-4.664-12.737c0-5.189,1.557-9.445,4.664-12.775
				c3.111-3.328,7.309-4.993,12.588-4.993s9.477,1.658,12.586,4.977c3.109,3.317,4.666,7.581,4.666,12.793
				c0,5.164-1.551,9.408-4.648,12.738c-3.1,3.327-7.299,4.991-12.604,4.991C887.594,124.503,883.398,122.839,880.285,119.511z
				 M901.018,116.636c1.938-2.397,2.91-5.688,2.91-9.862c0-4.154-0.981-7.449-2.945-9.883c-1.963-2.433-4.666-3.65-8.108-3.65
				c-3.465,0-6.174,1.213-8.125,3.636c-1.949,2.421-2.928,5.72-2.928,9.899c0,4.132,0.972,7.404,2.909,9.826
				c1.938,2.424,4.632,3.635,8.074,3.635C896.338,120.232,899.076,119.034,901.018,116.636z"/>
			<path fill="#FFFFFF" d="M920.852,121.182c-2.264-2.216-3.395-5.55-3.395-10.002V92.618c0-0.94,0.312-1.67,0.932-2.188
				c0.621-0.517,1.354-0.772,2.205-0.772s1.576,0.26,2.187,0.772c0.608,0.517,0.911,1.246,0.911,2.188v18.629
				c0,2.938,0.666,5.17,1.998,6.694c1.332,1.525,3.236,2.289,5.718,2.289c2.661,0,4.911-0.938,6.748-2.809
				c1.836-1.869,2.836-4.438,2.995-7.693v-17.11c0-0.918,0.312-1.643,0.931-2.172c0.619-0.525,1.354-0.791,2.203-0.791
				c0.854,0,1.571,0.26,2.17,0.772c0.6,0.519,0.896,1.246,0.896,2.188v28.34c0,0.918-0.312,1.635-0.932,2.147
				c-0.621,0.519-1.354,0.773-2.205,0.773c-0.85,0-1.57-0.246-2.168-0.74s-0.896-1.188-0.896-2.084v-3.061
				c-0.873,2.09-2.308,3.695-4.306,4.82c-1.995,1.125-4.315,1.688-6.954,1.688C926.125,124.503,923.112,123.396,920.852,121.182z"/>
			<path fill="#FFFFFF" d="M958.709,123.107c-0.598-0.518-0.896-1.246-0.896-2.188V92.618c0-0.918,0.312-1.637,0.931-2.152
				c0.621-0.518,1.354-0.775,2.205-0.775c0.851,0,1.578,0.248,2.188,0.74c0.605,0.494,0.912,1.188,0.912,2.083v2.996
				c0.873-2.088,2.301-3.696,4.287-4.821c1.981-1.125,4.299-1.687,6.938-1.687c3.786,0,6.807,1.103,9.057,3.306
				c2.25,2.204,3.375,5.545,3.375,10.022v18.592c0,0.939-0.305,1.67-0.912,2.189c-0.607,0.518-1.338,0.772-2.188,0.772
				c-0.852,0-1.578-0.26-2.188-0.772c-0.61-0.517-0.912-1.246-0.912-2.189V102.26c0-2.938-0.685-5.175-2.049-6.712
				c-1.365-1.538-3.289-2.31-5.769-2.31c-2.643,0-4.867,0.941-6.684,2.824c-1.812,1.883-2.802,4.442-2.962,7.678v17.184
				c0,0.918-0.313,1.643-0.945,2.17s-1.37,0.791-2.223,0.791C960.029,123.884,959.309,123.626,958.709,123.107z"/>
			<path fill="#FFFFFF" d="M1002.613,121.802c-1.562-1.711-2.342-4.346-2.342-7.903V94.065h-4.201c-0.758,0-1.336-0.185-1.738-0.552
				c-0.398-0.366-0.604-0.86-0.604-1.479c0-0.598,0.194-1.084,0.586-1.465c0.391-0.379,0.965-0.566,1.723-0.566h4.234l0.824-9.778
				c0.049-0.735,0.373-1.366,0.979-1.895c0.608-0.528,1.278-0.792,2.017-0.792c0.688,0,1.266,0.212,1.725,0.637
				c0.459,0.425,0.688,1.039,0.688,1.843v9.985h6.336c0.758,0,1.323,0.193,1.705,0.585c0.379,0.392,0.564,0.896,0.564,1.517
				c0,1.309-0.758,1.961-2.271,1.961h-6.336v18.768c0,2.361,0.334,4.066,0.997,5.111c0.666,1.045,1.726,1.563,3.169,1.563h0.379
				l2.342-0.104h0.207c0.76,0,1.354,0.239,1.791,0.723c0.438,0.479,0.653,1.045,0.653,1.688c0,0.572-0.127,1.039-0.381,1.396
				c-0.252,0.354-0.637,0.615-1.151,0.772c-0.519,0.16-1.031,0.267-1.549,0.312c-0.519,0.045-1.188,0.068-2.017,0.068h-2.031
				C1006.276,124.366,1004.176,123.511,1002.613,121.802z"/>
		</g>
	</g>
</g>
</svg>
