<?xml version="1.0" encoding="utf-8"?>
<!-- Generator: Adobe Illustrator 14.0.0, SVG Export Plug-In . SVG Version: 6.00 Build 43363)  -->
<!DOCTYPE svg PUBLIC "-//W3C//DTD SVG 1.1//EN" "http://www.w3.org/Graphics/SVG/1.1/DTD/svg11.dtd">
<svg version="1.1" id="Layer_1" xmlns="http://www.w3.org/2000/svg" xmlns:xlink="http://www.w3.org/1999/xlink" x="0px" y="0px"
	 width="1396.25px" height="193px" viewBox="0 0 1396.25 193" enable-background="new 0 0 1396.25 193" xml:space="preserve">
<g id="Layer_4">
	<g>
		<g>
			<path fill="none" stroke="#FF9D00" stroke-width="4" d="M29.175,2.562h1337.896c14.826,0,26.845,12.018,26.845,26.839v134.197
				c0,14.822-12.019,26.84-26.845,26.84H29.175c-14.823,0-26.84-12.018-26.84-26.84V29.401C2.334,14.579,14.352,2.562,29.175,2.562z
				"/>
			
				<linearGradient id="SVGID_1_" gradientUnits="userSpaceOnUse" x1="-129.8745" y1="739.4971" x2="-129.8745" y2="551.6211" gradientTransform="matrix(1 0 0 1 828 -549.0586)">
				<stop  offset="0" style="stop-color:#FFB206"/>
				<stop  offset="0.5644" style="stop-color:#FFC018"/>
				<stop  offset="1" style="stop-color:#FFBE35"/>
			</linearGradient>
			<path fill="url(#SVGID_1_)" d="M29.175,2.562h1337.896c14.826,0,26.845,12.018,26.845,26.839v134.197
				c0,14.822-12.019,26.84-26.845,26.84H29.175c-14.823,0-26.84-12.018-26.84-26.84V29.401C2.334,14.579,14.352,2.562,29.175,2.562z
				"/>
		</g>
	</g>
	<g>
		<path fill="#FFFFFF" d="M372.795,120.998c-3.49-2.25-6.106-5.257-7.853-9.021c-1.746-3.765-2.615-8.022-2.615-12.774
			c0-3.535,0.532-6.854,1.601-9.951c1.067-3.099,2.577-5.802,4.528-8.108c1.949-2.308,4.406-4.127,7.369-5.458
			c2.961-1.331,6.242-1.997,9.848-1.997c4.454,0,8.597,1.067,12.431,3.202c1.01,0.55,1.515,1.343,1.515,2.376
			c0,0.734-0.252,1.377-0.757,1.93c-0.505,0.551-1.112,0.824-1.823,0.824c-0.346,0-0.725-0.09-1.138-0.273
			c-0.092-0.046-0.374-0.189-0.844-0.432c-0.471-0.24-0.854-0.424-1.153-0.551c-0.298-0.127-0.758-0.299-1.377-0.518
			c-0.62-0.218-1.217-0.391-1.791-0.518c-0.572-0.125-1.292-0.234-2.15-0.326c-0.861-0.092-1.75-0.139-2.668-0.139
			c-2.229,0-4.248,0.346-6.062,1.032c-1.812,0.688-3.34,1.642-4.58,2.858c-1.24,1.216-2.285,2.664-3.134,4.339
			c-0.849,1.676-1.469,3.481-1.859,5.423c-0.391,1.939-0.585,4-0.585,6.182s0.194,4.234,0.585,6.164
			c0.393,1.928,1.012,3.726,1.859,5.39c0.849,1.663,1.899,3.094,3.151,4.286c1.251,1.193,2.801,2.136,4.647,2.822
			c1.849,0.689,3.908,1.033,6.183,1.033c2.043,0,3.833-0.271,5.371-0.809c1.537-0.54,3.202-1.314,4.992-2.324
			c0.459-0.253,0.896-0.379,1.311-0.379c0.711,0,1.32,0.264,1.825,0.792c0.505,0.526,0.758,1.146,0.758,1.858
			c0,1.057-0.574,1.951-1.722,2.687c-3.836,2.502-8.356,3.753-13.567,3.753C380.383,124.372,376.284,123.248,372.795,120.998z"/>
		<path fill="#FFFFFF" d="M410.914,122.856c-0.599-0.504-0.896-1.217-0.896-2.135V92.313c0-0.918,0.312-1.623,0.93-2.116
			c0.62-0.494,1.354-0.74,2.204-0.74c0.852,0,1.578,0.247,2.188,0.74c0.606,0.493,0.913,1.176,0.913,2.049l-0.034,4.132
			c0.573-2.135,1.727-3.919,3.46-5.354c1.732-1.435,3.816-2.151,6.25-2.151c0.735,0,1.314,0.274,1.739,0.826
			c0.425,0.551,0.637,1.192,0.637,1.929c0,0.688-0.195,1.279-0.585,1.771c-0.391,0.494-0.953,0.742-1.688,0.742
			c-3.1,0-5.505,0.805-7.215,2.41s-2.563,3.752-2.563,6.438v17.731c0,0.918-0.315,1.631-0.947,2.135
			c-0.632,0.507-1.372,0.76-2.221,0.76C412.235,123.615,411.511,123.362,410.914,122.856z"/>
		<path fill="#FFFFFF" d="M441.216,122.101c-2.548-1.399-4.575-3.461-6.078-6.182c-1.504-2.721-2.255-5.895-2.255-9.521
			c0-3.188,0.631-6.104,1.894-8.744c1.264-2.641,3.168-4.787,5.717-6.439s5.521-2.479,8.919-2.479c2.686,0,5.038,0.445,7.059,1.343
			c2.02,0.896,3.627,2.13,4.821,3.702c1.191,1.572,2.088,3.328,2.686,5.269c0.598,1.939,0.93,4.068,0.999,6.388
			c0,0.666-0.184,1.218-0.551,1.652c-0.367,0.436-0.918,0.654-1.653,0.654H439.15c0.046,3.947,1.104,6.938,3.167,8.97
			c2.066,2.031,4.719,3.07,7.955,3.116c2.043,0,3.879-0.367,5.509-1.104c1.632-0.732,3.271-1.731,4.926-2.996
			c0.413-0.319,0.849-0.48,1.309-0.48c0.551,0,1.016,0.213,1.396,0.639c0.377,0.424,0.567,0.924,0.567,1.498
			c0,0.733-0.322,1.389-0.964,1.961c-3.628,3.26-8.012,4.892-13.154,4.892C446.645,124.212,443.764,123.5,441.216,122.101z
			 M459.534,103.919c-0.207-3.214-1.112-5.842-2.72-7.886c-1.605-2.043-3.96-3.063-7.059-3.063c-1.607,0-3.064,0.311-4.373,0.93
			c-1.311,0.619-2.382,1.451-3.22,2.496s-1.504,2.205-1.997,3.479c-0.494,1.272-0.798,2.622-0.913,4.046L459.534,103.919
			L459.534,103.919z"/>
		<path fill="#FFFFFF" d="M474.031,121.652c-2.25-1.724-3.375-4.167-3.375-7.337c0-1.309,0.14-2.454,0.414-3.441
			c0.275-0.986,0.666-1.854,1.171-2.602c0.505-0.744,1.218-1.377,2.136-1.894c0.917-0.517,1.928-0.94,3.028-1.274
			c1.104-0.332,2.502-0.584,4.201-0.758c1.699-0.172,3.449-0.291,5.251-0.359s3.979-0.104,6.525-0.104v-3.754
			c0-2.456-0.654-4.27-1.962-5.439c-1.311-1.172-3.135-1.756-5.477-1.756c-1.398,0-2.801,0.149-4.199,0.447
			c-1.4,0.299-2.503,0.598-3.308,0.896c-0.804,0.299-1.791,0.711-2.961,1.238c-0.229,0.114-0.505,0.172-0.826,0.172
			c-0.598,0-1.112-0.248-1.55-0.739c-0.436-0.493-0.653-1.039-0.653-1.638c0-0.688,0.321-1.217,0.964-1.584
			c3.559-1.996,7.793-2.996,12.706-2.996c4.2,0,7.489,0.978,9.865,2.929s3.564,4.958,3.564,9.021v20.075
			c0,0.896-0.316,1.603-0.947,2.118c-0.632,0.518-1.359,0.773-2.187,0.773c-0.826,0-1.532-0.246-2.118-0.739
			c-0.585-0.494-0.878-1.188-0.878-2.083v-3.307c-2.137,4.478-5.67,6.713-10.606,6.713
			C479.208,124.235,476.281,123.374,474.031,121.652z M490.404,116.831c1.985-2.182,2.979-4.958,2.979-8.333v-1.032
			c-2.846,0-5.165,0.051-6.956,0.154s-3.375,0.287-4.752,0.551c-1.377,0.266-2.41,0.654-3.099,1.172s-1.2,1.144-1.532,1.877
			c-0.333,0.733-0.5,1.676-0.5,2.822c0,2.09,0.62,3.622,1.858,4.598c1.239,0.978,2.929,1.463,5.062,1.463
			C486.105,120.103,488.419,119.013,490.404,116.831z"/>
		<path fill="#FFFFFF" d="M514.457,121.532c-1.562-1.711-2.343-4.346-2.343-7.903V93.795h-4.199c-0.759,0-1.337-0.184-1.739-0.551
			s-0.604-0.86-0.604-1.479c0-0.598,0.194-1.086,0.585-1.465c0.392-0.378,0.966-0.568,1.724-0.568h4.233l0.826-9.777
			c0.046-0.734,0.373-1.366,0.981-1.895c0.606-0.527,1.277-0.793,2.014-0.793c0.689,0,1.263,0.213,1.722,0.639
			c0.459,0.425,0.688,1.039,0.688,1.842v9.984h6.336c0.757,0,1.326,0.195,1.705,0.587c0.379,0.39,0.567,0.895,0.567,1.515
			c0,1.309-0.758,1.962-2.271,1.962h-6.335v18.767c0,2.365,0.333,4.069,0.999,5.113c0.666,1.045,1.722,1.567,3.168,1.567h0.379
			l2.341-0.104h0.207c0.758,0,1.354,0.241,1.791,0.725c0.438,0.48,0.654,1.045,0.654,1.688c0,0.574-0.126,1.039-0.379,1.396
			c-0.253,0.355-0.637,0.613-1.154,0.773c-0.516,0.16-1.033,0.265-1.549,0.312c-0.516,0.046-1.188,0.067-2.015,0.067h-2.031
			C518.118,124.097,516.018,123.242,514.457,121.532z"/>
		<path fill="#FFFFFF" d="M541.315,122.101c-2.548-1.399-4.575-3.461-6.078-6.182c-1.504-2.721-2.256-5.895-2.256-9.521
			c0-3.188,0.632-6.104,1.896-8.744c1.262-2.641,3.168-4.787,5.716-6.439s5.521-2.479,8.918-2.479c2.686,0,5.039,0.445,7.059,1.343
			c2.021,0.896,3.627,2.13,4.82,3.702s2.089,3.328,2.688,5.269c0.597,1.939,0.93,4.068,0.998,6.388c0,0.666-0.185,1.218-0.552,1.652
			c-0.366,0.436-0.918,0.654-1.651,0.654H539.25c0.046,3.947,1.102,6.938,3.167,8.97c2.063,2.032,4.718,3.07,7.955,3.116
			c2.043,0,3.879-0.367,5.509-1.104c1.63-0.732,3.271-1.731,4.924-2.996c0.413-0.319,0.849-0.48,1.31-0.48
			c0.552,0,1.017,0.213,1.396,0.639c0.378,0.424,0.568,0.924,0.568,1.498c0,0.733-0.322,1.389-0.966,1.961
			c-3.627,3.26-8.012,4.892-13.151,4.892C546.743,124.212,543.863,123.5,541.315,122.101z M559.635,103.919
			c-0.207-3.214-1.114-5.842-2.72-7.886c-1.607-2.043-3.96-3.063-7.061-3.063c-1.605,0-3.062,0.311-4.373,0.93
			c-1.309,0.619-2.382,1.451-3.22,2.496s-1.504,2.205-1.997,3.479c-0.494,1.272-0.798,2.622-0.913,4.046L559.635,103.919
			L559.635,103.919z"/>
		<path fill="#FFFFFF" d="M607.051,103.093l-15.564-23.897c-0.32-0.482-0.48-1.011-0.48-1.584c0-0.85,0.36-1.584,1.085-2.204
			c0.723-0.62,1.544-0.931,2.462-0.931c1.193,0,2.135,0.552,2.824,1.653l13.565,21.487l13.637-21.59
			c0.688-1.079,1.584-1.618,2.687-1.618c0.78,0,1.463,0.264,2.049,0.792c0.585,0.527,0.878,1.159,0.878,1.895
			c0,0.573-0.172,1.125-0.517,1.651l-15.633,24.104v17.422c0,1.033-0.346,1.845-1.033,2.43c-0.689,0.586-1.504,0.879-2.445,0.879
			c-0.964,0-1.79-0.293-2.479-0.879c-0.688-0.585-1.033-1.405-1.033-2.462L607.051,103.093L607.051,103.093z"/>
		<path fill="#FFFFFF" d="M640.228,119.242c-3.111-3.329-4.666-7.576-4.666-12.741c0-5.188,1.555-9.445,4.666-12.775
			c3.111-3.328,7.307-4.992,12.586-4.992c5.28,0,9.475,1.658,12.586,4.977c3.11,3.317,4.666,7.581,4.666,12.792
			c0,5.165-1.549,9.412-4.646,12.741c-3.101,3.328-7.301,4.992-12.604,4.992C647.534,124.235,643.339,122.57,640.228,119.242z
			 M660.957,116.366c1.938-2.398,2.909-5.688,2.909-9.865c0-4.154-0.98-7.449-2.943-9.882c-1.963-2.435-4.666-3.649-8.109-3.649
			c-3.466,0-6.176,1.211-8.126,3.633c-1.951,2.422-2.927,5.723-2.927,9.898c0,4.133,0.969,7.409,2.91,9.831
			c1.938,2.422,4.631,3.633,8.074,3.633C656.279,119.965,659.017,118.767,660.957,116.366z"/>
		<path fill="#FFFFFF" d="M680.791,120.912c-2.263-2.216-3.394-5.55-3.394-10.003V92.347c0-0.939,0.312-1.67,0.932-2.187
			c0.619-0.519,1.354-0.774,2.203-0.774c0.849,0,1.577,0.258,2.188,0.774c0.607,0.517,0.912,1.246,0.912,2.187v18.629
			c0,2.938,0.666,5.172,1.997,6.697c1.331,1.527,3.235,2.29,5.716,2.29c2.663,0,4.912-0.936,6.749-2.807
			c1.835-1.87,2.835-4.437,2.996-7.695V92.347c0-0.916,0.311-1.641,0.93-2.168c0.621-0.529,1.355-0.793,2.205-0.793
			c0.849,0,1.572,0.258,2.168,0.774c0.599,0.517,0.896,1.246,0.896,2.187v28.34c0,0.918-0.312,1.637-0.933,2.151
			c-0.619,0.517-1.354,0.775-2.203,0.775c-0.849,0-1.571-0.247-2.17-0.74c-0.596-0.494-0.895-1.188-0.895-2.084v-3.063
			c-0.873,2.088-2.31,3.695-4.305,4.82c-1.998,1.125-4.315,1.688-6.955,1.688C686.064,124.235,683.052,123.127,680.791,120.912z"/>
		<path fill="#FFFFFF" d="M718.721,122.856c-0.596-0.504-0.896-1.217-0.896-2.135V92.313c0-0.918,0.31-1.623,0.931-2.116
			c0.619-0.494,1.354-0.74,2.203-0.74c0.849,0,1.577,0.247,2.188,0.74c0.607,0.493,0.912,1.176,0.912,2.049l-0.035,4.132
			c0.574-2.135,1.729-3.919,3.461-5.354c1.732-1.435,3.816-2.151,6.25-2.151c0.734,0,1.314,0.274,1.738,0.826
			c0.426,0.551,0.637,1.192,0.637,1.929c0,0.688-0.192,1.279-0.584,1.771c-0.391,0.494-0.952,0.742-1.688,0.742
			c-3.101,0-5.504,0.805-7.215,2.41c-1.709,1.605-2.564,3.752-2.564,6.438v17.731c0,0.918-0.313,1.631-0.947,2.135
			c-0.631,0.507-1.37,0.76-2.221,0.76S719.317,123.362,718.721,122.856z"/>
		<path fill="#FFFFFF" d="M794.028,111.081h-23.69l-4.062,10.468c-0.573,1.517-1.643,2.272-3.202,2.272
			c-0.896,0-1.691-0.287-2.394-0.86c-0.701-0.573-1.051-1.297-1.051-2.17c0-0.367,0.092-0.792,0.272-1.272l16.357-40.599
			c0.779-1.95,1.623-3.242,2.531-3.874c0.903-0.631,2.037-0.947,3.391-0.947c1.355,0,2.484,0.316,3.393,0.947
			c0.909,0.631,1.75,1.924,2.531,3.874l16.355,40.599c0.184,0.48,0.274,0.906,0.274,1.272c0,0.873-0.354,1.597-1.067,2.17
			c-0.711,0.573-1.517,0.86-2.41,0.86c-1.537,0-2.594-0.758-3.168-2.272L794.028,111.081z M782.183,80.642l-9.883,25.446h19.766
			L782.183,80.642z"/>
		<path fill="#FFFFFF" d="M814.067,119.226c-2.938-3.362-4.406-7.604-4.406-12.725c0-3.306,0.688-6.301,2.064-8.986
			c1.379-2.687,3.363-4.819,5.959-6.403c2.594-1.584,5.578-2.376,8.951-2.376c1.975,0,3.801,0.273,5.477,0.824
			c1.677,0.553,3.008,1.24,3.994,2.066c0.779,0.62,1.172,1.286,1.172,1.997c0,0.505-0.188,0.931-0.567,1.272
			c-0.379,0.346-0.845,0.519-1.396,0.519c-0.504,0-0.985-0.149-1.444-0.448c-2.088-1.354-4.396-2.031-6.92-2.031
			c-3.283,0-5.947,1.233-7.99,3.701c-2.043,2.469-3.064,5.791-3.064,9.969c0,1.746,0.207,3.397,0.621,4.959
			c0.412,1.562,1.031,2.979,1.859,4.252c0.826,1.274,1.928,2.285,3.305,3.031s2.961,1.118,4.752,1.118
			c3.146,0,5.773-0.733,7.885-2.204c0.438-0.298,0.896-0.447,1.379-0.447c0.527,0,0.978,0.18,1.345,0.535
			c0.366,0.354,0.551,0.797,0.551,1.324c0,0.758-0.392,1.458-1.172,2.102c-2.479,1.996-5.97,2.996-10.467,2.996
			C820.967,124.269,817.008,122.588,814.067,119.226z"/>
		<path fill="#FFFFFF" d="M847.092,119.226c-2.939-3.362-4.408-7.604-4.408-12.725c0-3.306,0.689-6.301,2.066-8.986
			c1.377-2.687,3.36-4.819,5.956-6.403c2.595-1.584,5.578-2.376,8.953-2.376c1.976,0,3.8,0.273,5.476,0.824
			c1.676,0.553,3.008,1.24,3.994,2.066c0.78,0.62,1.172,1.286,1.172,1.997c0,0.505-0.189,0.931-0.568,1.272
			c-0.379,0.346-0.844,0.519-1.395,0.519c-0.507,0-0.988-0.149-1.447-0.448c-2.088-1.354-4.396-2.031-6.922-2.031
			c-3.281,0-5.945,1.233-7.988,3.701c-2.043,2.469-3.062,5.791-3.062,9.969c0,1.746,0.205,3.397,0.619,4.959
			c0.414,1.562,1.03,2.979,1.858,4.252c0.826,1.274,1.928,2.285,3.308,3.031c1.377,0.746,2.961,1.118,4.75,1.118
			c3.146,0,5.772-0.733,7.887-2.204c0.436-0.298,0.895-0.447,1.377-0.447c0.527,0,0.977,0.18,1.344,0.535
			c0.367,0.354,0.551,0.797,0.551,1.324c0,0.758-0.391,1.458-1.172,2.102c-2.479,1.996-5.969,2.996-10.467,2.996
			C853.989,124.269,850.028,122.588,847.092,119.226z"/>
		<path fill="#FFFFFF" d="M880.37,119.242c-3.108-3.329-4.663-7.576-4.663-12.741c0-5.188,1.555-9.445,4.663-12.775
			c3.109-3.328,7.308-4.992,12.587-4.992c5.278,0,9.477,1.658,12.586,4.977c3.108,3.319,4.666,7.581,4.666,12.792
			c0,5.165-1.55,9.412-4.648,12.741c-3.1,3.328-7.301,4.992-12.604,4.992C887.678,124.235,883.481,122.57,880.37,119.242z
			 M901.101,116.366c1.939-2.398,2.91-5.688,2.91-9.865c0-4.154-0.982-7.449-2.945-9.882c-1.963-2.435-4.666-3.649-8.106-3.649
			c-3.468,0-6.177,1.211-8.127,3.633c-1.951,2.422-2.929,5.723-2.929,9.898c0,4.133,0.972,7.409,2.91,9.831
			c1.939,2.422,4.631,3.633,8.074,3.633C896.424,119.965,899.161,118.767,901.101,116.366z"/>
		<path fill="#FFFFFF" d="M920.935,120.912c-2.262-2.216-3.393-5.55-3.393-10.003V92.347c0-0.939,0.311-1.67,0.93-2.187
			c0.621-0.519,1.355-0.774,2.205-0.774s1.578,0.258,2.186,0.774c0.609,0.517,0.912,1.246,0.912,2.187v18.629
			c0,2.938,0.666,5.172,1.998,6.697c1.332,1.527,3.236,2.29,5.717,2.29c2.662,0,4.912-0.936,6.748-2.807
			c1.838-1.87,2.836-4.437,2.996-7.695V92.347c0-0.916,0.312-1.641,0.93-2.168c0.621-0.529,1.354-0.793,2.205-0.793
			s1.57,0.258,2.168,0.774c0.599,0.517,0.896,1.246,0.896,2.187v28.34c0,0.918-0.311,1.637-0.93,2.151
			c-0.621,0.517-1.355,0.775-2.205,0.775c-0.849,0-1.572-0.247-2.168-0.74c-0.599-0.494-0.896-1.188-0.896-2.084v-3.063
			c-0.873,2.088-2.307,3.695-4.305,4.82c-1.996,1.125-4.316,1.688-6.955,1.688C926.209,124.235,923.196,123.127,920.935,120.912z"/>
		<path fill="#FFFFFF" d="M958.795,122.84c-0.597-0.517-0.896-1.245-0.896-2.187V92.347c0-0.916,0.312-1.635,0.933-2.15
			c0.619-0.518,1.354-0.775,2.203-0.775c0.849,0,1.577,0.247,2.188,0.74c0.607,0.494,0.912,1.188,0.912,2.083v2.996
			c0.873-2.088,2.301-3.696,4.287-4.821c1.985-1.125,4.299-1.688,6.938-1.688c3.787,0,6.808,1.103,9.058,3.307
			s3.375,5.544,3.375,10.021v18.595c0,0.94-0.306,1.67-0.912,2.187c-0.609,0.518-1.338,0.775-2.188,0.775
			c-0.85,0-1.578-0.26-2.188-0.775c-0.61-0.515-0.912-1.244-0.912-2.187v-18.663c0-2.938-0.684-5.178-2.049-6.714
			c-1.365-1.538-3.289-2.308-5.769-2.308c-2.641,0-4.866,0.94-6.682,2.822c-1.812,1.883-2.801,4.442-2.961,7.68v17.183
			c0,0.919-0.316,1.642-0.947,2.17c-0.631,0.526-1.371,0.792-2.221,0.792C960.116,123.615,959.392,123.356,958.795,122.84z"/>
		<path fill="#FFFFFF" d="M1002.698,121.532c-1.561-1.711-2.342-4.346-2.342-7.903V93.795h-4.199c-0.76,0-1.338-0.184-1.739-0.551
			c-0.4-0.367-0.604-0.86-0.604-1.479c0-0.598,0.195-1.086,0.586-1.465c0.392-0.378,0.965-0.568,1.724-0.568h4.233l0.826-9.777
			c0.047-0.734,0.373-1.366,0.982-1.895c0.606-0.527,1.276-0.793,2.014-0.793c0.689,0,1.264,0.213,1.723,0.639
			c0.459,0.425,0.688,1.039,0.688,1.842v9.984h6.336c0.758,0,1.326,0.195,1.705,0.587c0.379,0.39,0.565,0.895,0.565,1.515
			c0,1.309-0.758,1.962-2.271,1.962h-6.336v18.767c0,2.365,0.334,4.069,0.998,5.113c0.666,1.045,1.723,1.567,3.168,1.567h0.379
			l2.342-0.104h0.207c0.758,0,1.354,0.241,1.791,0.725c0.438,0.48,0.654,1.045,0.654,1.688c0,0.574-0.127,1.039-0.379,1.396
			c-0.252,0.355-0.64,0.613-1.154,0.773c-0.516,0.16-1.033,0.265-1.549,0.312c-0.519,0.046-1.189,0.067-2.017,0.067H1009
			C1006.36,124.097,1004.26,123.242,1002.698,121.532z"/>
	</g>
</g>
</svg>
