<?xml version="1.0" encoding="utf-8"?>
<!-- Generator: Adobe Illustrator 14.0.0, SVG Export Plug-In . SVG Version: 6.00 Build 43363)  -->
<!DOCTYPE svg PUBLIC "-//W3C//DTD SVG 1.1//EN" "http://www.w3.org/Graphics/SVG/1.1/DTD/svg11.dtd">
<svg version="1.1" id="Layer_1" xmlns="http://www.w3.org/2000/svg" xmlns:xlink="http://www.w3.org/1999/xlink" x="0px" y="0px"
	 width="1396px" height="192.5px" viewBox="0 0 1396 192.5" enable-background="new 0 0 1396 192.5" xml:space="preserve">
<g id="Layer_2">
	<g>
		<g>
			<path fill="none" stroke="#FF8400" stroke-width="4" d="M29.05,2.312h1337.897c14.826,0,26.842,12.017,26.842,26.838V163.35
				c0,14.82-12.016,26.839-26.842,26.839H29.05c-14.823,0-26.84-12.019-26.84-26.839V29.15C2.211,14.33,14.228,2.312,29.05,2.312z"
				/>
			
				<linearGradient id="SVGID_1_" gradientUnits="userSpaceOnUse" x1="-130" y1="739.2471" x2="-130" y2="551.3711" gradientTransform="matrix(1 0 0 1 828 -549.0586)">
				<stop  offset="0" style="stop-color:#FFA406"/>
				<stop  offset="0.5644" style="stop-color:#FFAB19"/>
				<stop  offset="1" style="stop-color:#FFAE21"/>
			</linearGradient>
			<path fill="url(#SVGID_1_)" d="M29.05,2.312h1337.897c14.826,0,26.842,12.017,26.842,26.838V163.35
				c0,14.82-12.016,26.839-26.842,26.839H29.05c-14.823,0-26.84-12.019-26.84-26.839V29.15C2.211,14.33,14.228,2.312,29.05,2.312z"
				/>
		</g>
	</g>
</g>
<g id="Layer_3">
	<g>
		<path fill="#FFFFFF" d="M372.67,120.748c-3.488-2.25-6.104-5.257-7.851-9.021c-1.745-3.767-2.617-8.022-2.617-12.774
			c0-3.535,0.534-6.854,1.603-9.951c1.065-3.1,2.576-5.803,4.526-8.108c1.951-2.308,4.408-4.126,7.369-5.458
			c2.961-1.331,6.244-1.997,9.85-1.997c4.452,0,8.597,1.066,12.431,3.202c1.01,0.551,1.515,1.343,1.515,2.376
			c0,0.733-0.253,1.377-0.757,1.929c-0.505,0.551-1.114,0.826-1.825,0.826c-0.344,0-0.723-0.091-1.136-0.275
			c-0.092-0.046-0.374-0.188-0.844-0.431c-0.473-0.241-0.855-0.424-1.153-0.551c-0.298-0.126-0.758-0.3-1.377-0.519
			c-0.62-0.218-1.217-0.39-1.791-0.517c-0.574-0.125-1.292-0.235-2.152-0.327c-0.859-0.091-1.75-0.138-2.668-0.138
			c-2.227,0-4.247,0.345-6.061,1.032s-3.34,1.643-4.58,2.857c-1.24,1.217-2.285,2.664-3.134,4.339
			c-0.851,1.677-1.469,3.483-1.859,5.423c-0.391,1.94-0.585,4-0.585,6.183c0,2.181,0.194,4.233,0.585,6.164
			c0.393,1.929,1.01,3.725,1.859,5.389c0.849,1.664,1.897,3.095,3.149,4.287c1.251,1.192,2.803,2.135,4.649,2.821
			c1.847,0.689,3.908,1.033,6.181,1.033c2.043,0,3.833-0.27,5.372-0.809c1.538-0.54,3.203-1.314,4.993-2.324
			c0.459-0.253,0.896-0.379,1.31-0.379c0.712,0,1.319,0.264,1.824,0.792c0.506,0.527,0.758,1.147,0.758,1.859
			c0,1.056-0.572,1.95-1.722,2.686c-3.834,2.503-8.354,3.753-13.565,3.753C380.259,124.123,376.16,122.998,372.67,120.748z"/>
		<path fill="#FFFFFF" d="M410.789,122.607c-0.597-0.505-0.895-1.217-0.895-2.135V92.064c0-0.918,0.31-1.624,0.93-2.118
			c0.62-0.493,1.354-0.739,2.204-0.739c0.851,0,1.578,0.246,2.188,0.739c0.606,0.494,0.912,1.177,0.912,2.05l-0.033,4.131
			c0.571-2.135,1.727-3.918,3.46-5.354c1.731-1.436,3.814-2.152,6.25-2.152c0.733,0,1.312,0.275,1.737,0.826
			c0.427,0.551,0.639,1.194,0.639,1.93c0,0.688-0.195,1.278-0.585,1.772c-0.393,0.494-0.953,0.741-1.688,0.741
			c-3.099,0-5.504,0.804-7.214,2.408c-1.71,1.607-2.563,3.754-2.563,6.439v17.733c0,0.918-0.315,1.63-0.947,2.135
			s-1.372,0.758-2.221,0.758C412.111,123.365,411.387,123.112,410.789,122.607z"/>
		<path fill="#FFFFFF" d="M441.092,121.85c-2.55-1.4-4.575-3.46-6.078-6.182c-1.504-2.722-2.255-5.895-2.255-9.521
			c0-3.189,0.631-6.105,1.894-8.746c1.262-2.641,3.168-4.787,5.716-6.439c2.548-1.651,5.521-2.479,8.918-2.479
			c2.688,0,5.039,0.447,7.061,1.343c2.02,0.896,3.627,2.13,4.819,3.702c1.193,1.573,2.088,3.329,2.688,5.27
			c0.598,1.939,0.93,4.068,0.999,6.388c0,0.666-0.186,1.217-0.551,1.651c-0.367,0.438-0.918,0.654-1.653,0.654h-23.622
			c0.046,3.948,1.103,6.938,3.167,8.971c2.066,2.03,4.718,3.069,7.955,3.115c2.043,0,3.879-0.367,5.509-1.102
			c1.63-0.735,3.271-1.733,4.924-2.996c0.413-0.321,0.851-0.482,1.311-0.482c0.551,0,1.016,0.213,1.395,0.639
			c0.378,0.426,0.568,0.925,0.568,1.498c0,0.733-0.322,1.39-0.964,1.963c-3.628,3.26-8.014,4.89-13.154,4.89
			C446.521,123.961,443.64,123.25,441.092,121.85z M459.41,103.67c-0.207-3.215-1.113-5.843-2.72-7.887
			c-1.607-2.043-3.96-3.064-7.059-3.064c-1.607,0-3.064,0.312-4.373,0.932c-1.311,0.62-2.382,1.452-3.222,2.497
			c-0.838,1.045-1.503,2.204-1.997,3.478c-0.493,1.273-0.798,2.623-0.911,4.047L459.41,103.67L459.41,103.67z"/>
		<path fill="#FFFFFF" d="M473.907,121.402c-2.25-1.722-3.375-4.167-3.375-7.335c0-1.31,0.138-2.456,0.414-3.442
			c0.275-0.985,0.666-1.854,1.17-2.601s1.217-1.377,2.136-1.896c0.916-0.517,1.929-0.939,3.029-1.272
			c1.104-0.333,2.501-0.585,4.201-0.758c1.699-0.173,3.449-0.292,5.251-0.361c1.802-0.067,3.978-0.104,6.525-0.104v-3.752
			c0-2.457-0.654-4.271-1.962-5.439c-1.311-1.171-3.136-1.756-5.477-1.756c-1.398,0-2.801,0.148-4.201,0.447
			c-1.398,0.299-2.502,0.598-3.306,0.896s-1.791,0.711-2.961,1.239c-0.229,0.113-0.505,0.172-0.826,0.172
			c-0.598,0-1.114-0.247-1.55-0.74c-0.438-0.492-0.654-1.039-0.654-1.636c0-0.688,0.322-1.217,0.964-1.584
			c3.56-1.997,7.793-2.996,12.706-2.996c4.201,0,7.49,0.976,9.866,2.927s3.563,4.958,3.563,9.021v20.074
			c0,0.896-0.315,1.603-0.946,2.117c-0.632,0.519-1.36,0.774-2.188,0.774c-0.824,0-1.53-0.247-2.117-0.74
			c-0.586-0.493-0.879-1.188-0.879-2.083v-3.306c-2.135,4.478-5.67,6.714-10.604,6.714
			C479.084,123.984,476.157,123.125,473.907,121.402z M490.28,116.582c1.985-2.182,2.979-4.959,2.979-8.334v-1.031
			c-2.848,0-5.165,0.052-6.956,0.154c-1.791,0.104-3.375,0.286-4.752,0.551c-1.377,0.266-2.41,0.653-3.101,1.17
			c-0.688,0.519-1.2,1.145-1.532,1.877c-0.331,0.734-0.5,1.678-0.5,2.824c0,2.09,0.62,3.621,1.86,4.599
			c1.239,0.976,2.927,1.463,5.062,1.463C485.982,119.853,488.295,118.764,490.28,116.582z"/>
		<path fill="#FFFFFF" d="M514.333,121.282c-1.562-1.711-2.341-4.345-2.341-7.903V93.545h-4.201c-0.757,0-1.337-0.184-1.737-0.551
			c-0.402-0.367-0.604-0.861-0.604-1.479c0-0.598,0.194-1.085,0.585-1.465c0.392-0.379,0.964-0.567,1.724-0.567h4.233l0.826-9.778
			c0.046-0.736,0.373-1.367,0.981-1.895c0.606-0.528,1.277-0.792,2.014-0.792c0.688,0,1.263,0.212,1.722,0.637
			s0.688,1.039,0.688,1.843v9.985h6.336c0.757,0,1.326,0.194,1.705,0.585s0.566,0.895,0.566,1.516c0,1.309-0.757,1.961-2.271,1.961
			h-6.336v18.769c0,2.362,0.333,4.067,0.999,5.112s1.722,1.566,3.168,1.566h0.379l2.341-0.104h0.207c0.758,0,1.354,0.24,1.791,0.723
			c0.438,0.48,0.654,1.045,0.654,1.688c0,0.574-0.126,1.039-0.379,1.396c-0.253,0.355-0.639,0.614-1.154,0.773
			c-0.516,0.16-1.033,0.266-1.549,0.312c-0.518,0.046-1.188,0.068-2.017,0.068h-2.029
			C517.994,123.848,515.895,122.992,514.333,121.282z"/>
		<path fill="#FFFFFF" d="M541.191,121.85c-2.548-1.4-4.575-3.46-6.078-6.182c-1.504-2.722-2.256-5.895-2.256-9.521
			c0-3.189,0.632-6.105,1.894-8.746c1.264-2.641,3.169-4.787,5.718-6.439c2.548-1.651,5.521-2.479,8.918-2.479
			c2.686,0,5.039,0.447,7.059,1.343c2.021,0.896,3.627,2.13,4.82,3.702c1.191,1.573,2.089,3.329,2.686,5.27
			c0.599,1.939,0.932,4.068,0.999,6.388c0,0.666-0.184,1.217-0.551,1.651c-0.367,0.438-0.918,0.654-1.653,0.654h-23.62
			c0.048,3.948,1.104,6.938,3.167,8.971c2.065,2.031,4.72,3.069,7.955,3.115c2.043,0,3.879-0.367,5.511-1.102
			c1.63-0.734,3.271-1.733,4.924-2.996c0.413-0.321,0.849-0.482,1.309-0.482c0.552,0,1.018,0.213,1.396,0.639
			c0.378,0.426,0.566,0.925,0.566,1.498c0,0.733-0.32,1.39-0.964,1.963c-3.627,3.26-8.012,4.89-13.152,4.89
			C546.62,123.961,543.739,123.25,541.191,121.85z M559.511,103.67c-0.207-3.215-1.114-5.843-2.722-7.887
			c-1.605-2.043-3.96-3.064-7.059-3.064c-1.607,0-3.064,0.312-4.373,0.932s-2.382,1.452-3.22,2.497s-1.504,2.204-1.997,3.478
			c-0.494,1.273-0.798,2.623-0.913,4.047L559.511,103.67L559.511,103.67z"/>
		<path fill="#FFFFFF" d="M606.927,102.842l-15.564-23.896c-0.322-0.482-0.481-1.01-0.481-1.584c0-0.85,0.361-1.584,1.086-2.204
			c0.723-0.62,1.544-0.93,2.462-0.93c1.191,0,2.135,0.551,2.822,1.652l13.567,21.487l13.636-21.59
			c0.688-1.079,1.584-1.618,2.688-1.618c0.778,0,1.463,0.264,2.049,0.792c0.585,0.528,0.878,1.159,0.878,1.894
			c0,0.574-0.172,1.125-0.518,1.652l-15.635,24.105v17.423c0,1.033-0.344,1.843-1.033,2.428c-0.688,0.587-1.504,0.88-2.443,0.88
			c-0.964,0-1.79-0.293-2.479-0.88c-0.688-0.585-1.033-1.405-1.033-2.462L606.927,102.842L606.927,102.842z"/>
		<path fill="#FFFFFF" d="M640.104,118.992c-3.111-3.328-4.666-7.576-4.666-12.74c0-5.188,1.555-9.445,4.666-12.774
			c3.111-3.328,7.306-4.993,12.586-4.993s9.475,1.658,12.586,4.977c3.11,3.316,4.666,7.58,4.666,12.791
			c0,5.166-1.549,9.412-4.648,12.741c-3.099,3.328-7.3,4.992-12.603,4.992C647.409,123.984,643.215,122.32,640.104,118.992z
			 M660.834,116.116c1.939-2.397,2.909-5.687,2.909-9.864c0-4.153-0.979-7.449-2.942-9.883c-1.965-2.433-4.666-3.65-8.109-3.65
			c-3.466,0-6.176,1.213-8.126,3.635c-1.951,2.422-2.927,5.722-2.927,9.898c0,4.133,0.969,7.408,2.908,9.83s4.633,3.633,8.075,3.633
			C656.155,119.715,658.893,118.516,660.834,116.116z"/>
		<path fill="#FFFFFF" d="M680.668,120.662c-2.262-2.216-3.393-5.55-3.393-10.003V92.099c0-0.941,0.311-1.671,0.93-2.188
			c0.62-0.517,1.354-0.773,2.204-0.773c0.849,0,1.578,0.259,2.188,0.773c0.605,0.518,0.91,1.246,0.91,2.188v18.629
			c0,2.938,0.666,5.171,1.998,6.696c1.33,1.526,3.236,2.289,5.717,2.289c2.663,0,4.91-0.936,6.749-2.807
			c1.836-1.87,2.834-4.438,2.997-7.695V92.099c0-0.917,0.309-1.642,0.93-2.171c0.619-0.526,1.354-0.791,2.203-0.791
			c0.849,0,1.572,0.259,2.17,0.773c0.596,0.518,0.895,1.246,0.895,2.188v28.34c0,0.918-0.311,1.635-0.93,2.149
			c-0.621,0.519-1.354,0.775-2.205,0.775c-0.85,0-1.572-0.247-2.168-0.74c-0.598-0.494-0.896-1.188-0.896-2.084v-3.062
			c-0.872,2.089-2.307,3.695-4.304,4.82c-1.998,1.125-4.314,1.688-6.956,1.688C685.941,123.984,682.928,122.877,680.668,120.662z"/>
		<path fill="#FFFFFF" d="M718.597,122.607c-0.597-0.505-0.896-1.217-0.896-2.135V92.064c0-0.918,0.312-1.624,0.933-2.118
			c0.619-0.494,1.354-0.739,2.203-0.739c0.849,0,1.577,0.246,2.188,0.739c0.607,0.494,0.912,1.177,0.912,2.05l-0.035,4.131
			c0.574-2.135,1.729-3.918,3.461-5.354s3.816-2.152,6.25-2.152c0.734,0,1.314,0.275,1.738,0.826
			c0.426,0.551,0.637,1.194,0.637,1.93c0,0.688-0.193,1.278-0.584,1.772s-0.953,0.741-1.688,0.741c-3.101,0-5.504,0.804-7.215,2.408
			c-1.712,1.607-2.564,3.754-2.564,6.439v17.733c0,0.918-0.316,1.63-0.947,2.135s-1.371,0.758-2.221,0.758
			C719.914,123.365,719.193,123.112,718.597,122.607z"/>
		<path fill="#FFFFFF" d="M793.904,110.832h-23.691l-4.062,10.467c-0.574,1.518-1.641,2.272-3.203,2.272
			c-0.895,0-1.69-0.287-2.393-0.86c-0.699-0.572-1.052-1.297-1.052-2.17c0-0.367,0.093-0.791,0.275-1.271l16.355-40.6
			c0.78-1.951,1.625-3.24,2.53-3.874c0.906-0.631,2.037-0.946,3.394-0.946c1.355,0,2.484,0.315,3.391,0.946
			c0.908,0.631,1.75,1.923,2.531,3.874l16.355,40.6c0.186,0.48,0.274,0.904,0.274,1.271c0,0.873-0.354,1.598-1.065,2.17
			c-0.711,0.573-1.517,0.86-2.41,0.86c-1.539,0-2.594-0.757-3.168-2.272L793.904,110.832z M782.06,80.392l-9.883,25.446h19.766
			L782.06,80.392z"/>
		<path fill="#FFFFFF" d="M813.943,118.975c-2.938-3.363-4.406-7.604-4.406-12.725c0-3.307,0.688-6.302,2.064-8.986
			c1.379-2.688,3.363-4.82,5.959-6.404c2.594-1.584,5.578-2.376,8.951-2.376c1.975,0,3.801,0.274,5.477,0.826
			c1.676,0.551,3.006,1.239,3.994,2.065c0.779,0.619,1.17,1.285,1.17,1.996c0,0.506-0.188,0.93-0.566,1.274
			c-0.379,0.344-0.846,0.517-1.396,0.517c-0.504,0-0.986-0.147-1.445-0.447c-2.09-1.354-4.396-2.031-6.922-2.031
			c-3.28,0-5.944,1.232-7.987,3.701s-3.064,5.791-3.064,9.97c0,1.745,0.207,3.396,0.621,4.959c0.412,1.562,1.031,2.979,1.859,4.252
			c0.823,1.272,1.928,2.284,3.305,3.03c1.377,0.744,2.961,1.117,4.752,1.117c3.145,0,5.772-0.732,7.885-2.203
			c0.438-0.299,0.896-0.446,1.379-0.446c0.527,0,0.978,0.178,1.344,0.534c0.365,0.354,0.552,0.798,0.552,1.324
			c0,0.759-0.394,1.457-1.173,2.102c-2.479,1.997-5.969,2.996-10.469,2.996C820.843,124.02,816.884,122.338,813.943,118.975z"/>
		<path fill="#FFFFFF" d="M846.968,118.975c-2.939-3.363-4.408-7.604-4.408-12.725c0-3.307,0.688-6.302,2.065-8.986
			c1.377-2.688,3.361-4.82,5.955-6.404c2.597-1.584,5.578-2.376,8.953-2.376c1.978,0,3.801,0.274,5.478,0.826
			c1.676,0.551,3.008,1.239,3.993,2.065c0.779,0.619,1.173,1.285,1.173,1.996c0,0.506-0.189,0.93-0.568,1.274
			c-0.379,0.344-0.844,0.517-1.396,0.517c-0.506,0-0.987-0.147-1.446-0.447c-2.088-1.354-4.396-2.031-6.922-2.031
			c-3.281,0-5.945,1.232-7.988,3.701s-3.062,5.791-3.062,9.97c0,1.745,0.204,3.396,0.618,4.959c0.412,1.562,1.031,2.979,1.859,4.252
			c0.826,1.272,1.928,2.284,3.305,3.03c1.377,0.744,2.961,1.117,4.752,1.117c3.146,0,5.773-0.732,7.888-2.203
			c0.436-0.299,0.895-0.446,1.377-0.446c0.526,0,0.977,0.178,1.344,0.534c0.367,0.354,0.551,0.798,0.551,1.324
			c0,0.759-0.391,1.457-1.172,2.102c-2.479,1.997-5.969,2.996-10.467,2.996C853.865,124.02,849.904,122.338,846.968,118.975z"/>
		<path fill="#FFFFFF" d="M880.246,118.992c-3.108-3.328-4.664-7.576-4.664-12.74c0-5.188,1.556-9.445,4.664-12.774
			c3.111-3.328,7.308-4.993,12.588-4.993c5.279,0,9.476,1.658,12.586,4.977c3.109,3.317,4.666,7.58,4.666,12.791
			c0,5.166-1.551,9.412-4.649,12.741c-3.099,3.328-7.299,4.992-12.603,4.992C887.554,123.984,883.358,122.32,880.246,118.992z
			 M900.978,116.116c1.938-2.397,2.91-5.687,2.91-9.864c0-4.153-0.982-7.449-2.945-9.883c-1.963-2.433-4.666-3.65-8.109-3.65
			c-3.465,0-6.174,1.213-8.125,3.635c-1.95,2.422-2.928,5.722-2.928,9.898c0,4.133,0.972,7.408,2.91,9.83s4.631,3.633,8.074,3.633
			C896.299,119.715,899.037,118.516,900.978,116.116z"/>
		<path fill="#FFFFFF" d="M920.812,120.662c-2.263-2.216-3.394-5.55-3.394-10.003V92.099c0-0.941,0.312-1.671,0.931-2.188
			c0.621-0.517,1.354-0.773,2.205-0.773c0.85,0,1.577,0.259,2.186,0.773c0.609,0.516,0.912,1.246,0.912,2.188v18.629
			c0,2.938,0.666,5.171,1.998,6.696c1.332,1.526,3.236,2.289,5.717,2.289c2.662,0,4.912-0.936,6.748-2.807
			c1.836-1.87,2.836-4.438,2.996-7.695V92.099c0-0.917,0.311-1.642,0.93-2.171c0.619-0.526,1.354-0.791,2.203-0.791
			c0.853,0,1.572,0.259,2.17,0.773c0.599,0.518,0.896,1.246,0.896,2.188v28.34c0,0.918-0.312,1.635-0.931,2.149
			c-0.621,0.518-1.354,0.775-2.205,0.775c-0.85,0-1.571-0.247-2.168-0.74c-0.598-0.494-0.896-1.188-0.896-2.084v-3.062
			c-0.873,2.089-2.308,3.695-4.306,4.82c-1.995,1.125-4.315,1.688-6.954,1.688C926.086,123.984,923.072,122.877,920.812,120.662z"/>
		<path fill="#FFFFFF" d="M958.67,122.59c-0.598-0.518-0.896-1.246-0.896-2.188V92.098c0-0.917,0.312-1.637,0.93-2.152
			c0.621-0.518,1.355-0.775,2.205-0.775c0.851,0,1.578,0.248,2.188,0.74c0.606,0.494,0.912,1.188,0.912,2.083v2.996
			c0.873-2.088,2.301-3.696,4.287-4.821c1.983-1.125,4.299-1.687,6.938-1.687c3.787,0,6.807,1.103,9.057,3.306
			c2.25,2.204,3.375,5.545,3.375,10.021v18.594c0,0.939-0.305,1.67-0.912,2.188c-0.608,0.518-1.338,0.774-2.188,0.774
			s-1.578-0.259-2.188-0.774c-0.609-0.517-0.912-1.246-0.912-2.188v-18.663c0-2.938-0.685-5.176-2.049-6.714
			c-1.365-1.538-3.289-2.309-5.769-2.309c-2.641,0-4.867,0.941-6.682,2.824c-1.812,1.883-2.802,4.441-2.962,7.678v17.185
			c0,0.919-0.315,1.642-0.946,2.17c-0.631,0.527-1.371,0.792-2.222,0.792C959.99,123.365,959.269,123.106,958.67,122.59z"/>
		<path fill="#FFFFFF" d="M1002.574,121.282c-1.561-1.711-2.342-4.345-2.342-7.903V93.545h-4.201c-0.758,0-1.336-0.184-1.738-0.551
			c-0.399-0.367-0.604-0.861-0.604-1.479c0-0.598,0.195-1.085,0.586-1.465c0.391-0.379,0.965-0.567,1.723-0.567h4.234l0.826-9.778
			c0.047-0.736,0.373-1.367,0.979-1.895c0.609-0.528,1.279-0.792,2.017-0.792c0.688,0,1.264,0.212,1.723,0.637
			s0.688,1.039,0.688,1.843v9.985h6.336c0.758,0,1.323,0.194,1.705,0.585c0.379,0.391,0.565,0.895,0.565,1.516
			c0,1.309-0.758,1.961-2.271,1.961h-6.336v18.769c0,2.362,0.334,4.067,0.997,5.112c0.666,1.045,1.724,1.566,3.169,1.566h0.379
			l2.342-0.104h0.207c0.758,0,1.354,0.24,1.791,0.723c0.436,0.48,0.653,1.045,0.653,1.688c0,0.574-0.127,1.039-0.381,1.396
			c-0.252,0.355-0.637,0.614-1.151,0.773c-0.519,0.16-1.033,0.266-1.549,0.312c-0.519,0.046-1.189,0.068-2.017,0.068h-2.031
			C1006.236,123.848,1004.136,122.992,1002.574,121.282z"/>
	</g>
</g>
</svg>
