<?xml version="1.0" encoding="utf-8"?>
<!-- Generator: Adobe Illustrator 14.0.0, SVG Export Plug-In . SVG Version: 6.00 Build 43363)  -->
<!DOCTYPE svg PUBLIC "-//W3C//DTD SVG 1.1//EN" "http://www.w3.org/Graphics/SVG/1.1/DTD/svg11.dtd">
<svg version="1.1" id="Layer_1" xmlns="http://www.w3.org/2000/svg" xmlns:xlink="http://www.w3.org/1999/xlink" x="0px" y="0px"
	 width="401.708px" height="60.918px" viewBox="3.625 4.894 401.708 60.918" enable-background="new 3.625 4.894 401.708 60.918"
	 xml:space="preserve">
<g id="Layer_6">
	
		<linearGradient id="SVGID_1_" gradientUnits="userSpaceOnUse" x1="-309.7905" y1="328.6055" x2="-309.7905" y2="388.6055" gradientTransform="matrix(1 0 0 -1 414 394)">
		<stop  offset="0" style="stop-color:#594C45"/>
		<stop  offset="1" style="stop-color:#726158"/>
	</linearGradient>
	<path fill="url(#SVGID_1_)" stroke="#4D423C" d="M204.21,55.395c0,5.522-4.477,10-10,10h-180c-5.523,0-10-4.478-10-10v-40
		c0-5.523,4.477-10,10-10h180c5.523,0,10,4.477,10,10V55.395z"/>
	<g>
		<g>
			<path fill="none" stroke="#544841" stroke-width="2" d="M57.952,41.402c-0.273-0.27-0.41-0.625-0.41-1.065V29.033
				c0-0.441,0.145-0.794,0.435-1.061s0.642-0.4,1.056-0.4h6.673c0.316,0,0.567,0.111,0.755,0.335
				c0.188,0.224,0.281,0.484,0.281,0.78s-0.093,0.557-0.281,0.78c-0.188,0.223-0.438,0.336-0.755,0.336h-5.331v3.593h5.044
				c0.316,0,0.568,0.109,0.755,0.326c0.188,0.217,0.282,0.474,0.282,0.771c0,0.302-0.093,0.561-0.276,0.775
				c-0.185,0.214-0.438,0.321-0.761,0.321h-5.044v4.748c0,0.44-0.142,0.796-0.424,1.065c-0.283,0.271-0.619,0.406-1.007,0.406
				C58.555,41.809,58.225,41.673,57.952,41.402z"/>
			<path fill="#FFFFFF" d="M57.952,41.402c-0.273-0.27-0.41-0.625-0.41-1.065V29.033c0-0.441,0.145-0.794,0.435-1.061
				s0.642-0.4,1.056-0.4h6.673c0.316,0,0.567,0.111,0.755,0.335c0.188,0.224,0.281,0.484,0.281,0.78s-0.093,0.557-0.281,0.78
				c-0.188,0.223-0.438,0.336-0.755,0.336h-5.331v3.593h5.044c0.316,0,0.568,0.109,0.755,0.326c0.188,0.217,0.282,0.474,0.282,0.771
				c0,0.302-0.093,0.561-0.276,0.775c-0.185,0.214-0.438,0.321-0.761,0.321h-5.044v4.748c0,0.44-0.142,0.796-0.424,1.065
				c-0.283,0.271-0.619,0.406-1.007,0.406C58.555,41.809,58.225,41.673,57.952,41.402z"/>
		</g>
		<g>
			<path fill="none" stroke="#544841" stroke-width="2" d="M70.307,40.081c-1.204-1.323-1.807-3.144-1.807-5.46
				c0-2.315,0.603-4.137,1.807-5.463c1.204-1.326,2.909-1.989,5.113-1.989c2.218,0,3.926,0.663,5.124,1.989
				c1.198,1.327,1.796,3.148,1.796,5.463c0,2.318-0.599,4.137-1.796,5.46c-1.198,1.321-2.906,1.983-5.124,1.983
				C73.215,42.064,71.511,41.402,70.307,40.081z M78.382,38.484c0.652-0.897,0.978-2.186,0.978-3.864
				c0-1.671-0.325-2.957-0.973-3.859c-0.648-0.901-1.637-1.353-2.967-1.353c-1.323,0-2.31,0.453-2.961,1.358
				c-0.652,0.905-0.978,2.189-0.978,3.854c0,1.68,0.324,2.967,0.972,3.864c0.648,0.899,1.638,1.349,2.966,1.349
				C76.743,39.833,77.73,39.384,78.382,38.484z"/>
			<path fill="#FFFFFF" d="M70.307,40.081c-1.204-1.323-1.807-3.144-1.807-5.46c0-2.315,0.603-4.137,1.807-5.463
				c1.204-1.326,2.909-1.989,5.113-1.989c2.218,0,3.926,0.663,5.124,1.989c1.198,1.327,1.796,3.148,1.796,5.463
				c0,2.318-0.599,4.137-1.796,5.46c-1.198,1.321-2.906,1.983-5.124,1.983C73.215,42.064,71.511,41.402,70.307,40.081z
				 M78.382,38.484c0.652-0.897,0.978-2.186,0.978-3.864c0-1.671-0.325-2.957-0.973-3.859c-0.648-0.901-1.637-1.353-2.967-1.353
				c-1.323,0-2.31,0.453-2.961,1.358c-0.652,0.905-0.978,2.189-0.978,3.854c0,1.68,0.324,2.967,0.972,3.864
				c0.648,0.899,1.638,1.349,2.966,1.349C76.743,39.833,77.73,39.384,78.382,38.484z"/>
		</g>
		<g>
			<path fill="none" stroke="#544841" stroke-width="2" d="M85.44,41.408c-0.277-0.26-0.414-0.617-0.414-1.071V29.014
				c0-0.421,0.146-0.769,0.439-1.041c0.292-0.273,0.646-0.41,1.061-0.41h4.353c3.469,0,5.203,1.207,5.203,3.622
				c0,0.843-0.266,1.555-0.8,2.138c-0.533,0.583-1.336,0.959-2.409,1.131v0.039c0.915,0.177,1.598,0.538,2.048,1.082
				c0.451,0.542,0.729,1.28,0.834,2.215l0.276,2.331c0.006,0.059,0.01,0.145,0.01,0.256c0,0.447-0.127,0.797-0.379,1.046
				c-0.254,0.251-0.572,0.375-0.953,0.375c-0.396,0-0.734-0.123-1.018-0.37c-0.283-0.246-0.447-0.609-0.493-1.091l-0.247-2.28
				c-0.046-0.44-0.112-0.8-0.198-1.076c-0.085-0.275-0.221-0.515-0.405-0.715c-0.184-0.201-0.425-0.345-0.725-0.43
				c-0.299-0.085-0.68-0.128-1.14-0.128h-0.04h-2.586v4.63c0,0.461-0.14,0.819-0.42,1.076c-0.279,0.257-0.613,0.385-1.001,0.385
				S85.717,41.668,85.44,41.408z M89.873,33.604c0.276,0,0.508-0.003,0.696-0.01c0.188-0.005,0.408-0.024,0.662-0.054
				c0.253-0.03,0.467-0.071,0.642-0.123c0.174-0.054,0.355-0.129,0.543-0.227c0.188-0.099,0.337-0.218,0.449-0.356
				c0.112-0.138,0.204-0.312,0.276-0.523c0.072-0.21,0.108-0.451,0.108-0.72c0-0.257-0.029-0.485-0.088-0.687
				c-0.06-0.201-0.134-0.367-0.222-0.499c-0.089-0.132-0.212-0.243-0.371-0.335c-0.158-0.092-0.304-0.163-0.439-0.211
				c-0.134-0.05-0.311-0.086-0.528-0.109c-0.217-0.023-0.401-0.038-0.553-0.044c-0.151-0.006-0.345-0.01-0.582-0.01h-0.207H87.85
				v3.909L89.873,33.604L89.873,33.604z"/>
			<path fill="#FFFFFF" d="M85.44,41.408c-0.277-0.26-0.414-0.617-0.414-1.071V29.014c0-0.421,0.146-0.769,0.439-1.041
				c0.292-0.273,0.646-0.41,1.061-0.41h4.353c3.469,0,5.203,1.207,5.203,3.622c0,0.843-0.266,1.555-0.8,2.138
				c-0.533,0.583-1.336,0.959-2.409,1.131v0.039c0.915,0.177,1.598,0.538,2.048,1.082c0.451,0.542,0.729,1.28,0.834,2.215
				l0.276,2.331c0.006,0.059,0.01,0.145,0.01,0.256c0,0.447-0.127,0.797-0.379,1.046c-0.254,0.251-0.572,0.375-0.953,0.375
				c-0.396,0-0.734-0.123-1.018-0.37c-0.283-0.246-0.447-0.609-0.493-1.091l-0.247-2.28c-0.046-0.44-0.112-0.8-0.198-1.076
				c-0.085-0.275-0.221-0.515-0.405-0.715c-0.184-0.201-0.425-0.345-0.725-0.43c-0.299-0.085-0.68-0.128-1.14-0.128h-0.04h-2.586
				v4.63c0,0.461-0.14,0.819-0.42,1.076c-0.279,0.257-0.613,0.385-1.001,0.385S85.717,41.668,85.44,41.408z M89.873,33.604
				c0.276,0,0.508-0.003,0.696-0.01c0.188-0.005,0.408-0.024,0.662-0.054c0.253-0.03,0.467-0.071,0.642-0.123
				c0.174-0.054,0.355-0.129,0.543-0.227c0.188-0.099,0.337-0.218,0.449-0.356c0.112-0.138,0.204-0.312,0.276-0.523
				c0.072-0.21,0.108-0.451,0.108-0.72c0-0.257-0.029-0.485-0.088-0.687c-0.06-0.201-0.134-0.367-0.222-0.499
				c-0.089-0.132-0.212-0.243-0.371-0.335c-0.158-0.092-0.304-0.163-0.439-0.211c-0.134-0.05-0.311-0.086-0.528-0.109
				c-0.217-0.023-0.401-0.038-0.553-0.044c-0.151-0.006-0.345-0.01-0.582-0.01h-0.207H87.85v3.909L89.873,33.604L89.873,33.604z"/>
		</g>
		<g>
			<path fill="none" stroke="#544841" stroke-width="2" d="M102.524,41.744c-0.701-0.213-1.322-0.53-1.861-0.948
				c-0.54-0.418-0.961-0.961-1.264-1.629c-0.302-0.668-0.454-1.426-0.454-2.274v-7.909c0-0.44,0.139-0.796,0.414-1.066
				c0.277-0.27,0.609-0.404,0.998-0.404c0.388,0,0.722,0.135,1.001,0.404c0.281,0.27,0.42,0.625,0.42,1.066v7.839
				c0,0.514,0.088,0.97,0.262,1.366c0.174,0.398,0.406,0.713,0.696,0.943c0.29,0.229,0.61,0.404,0.962,0.523
				c0.352,0.117,0.726,0.177,1.121,0.177s0.77-0.06,1.125-0.177c0.355-0.119,0.681-0.293,0.978-0.523
				c0.296-0.23,0.531-0.545,0.706-0.943c0.174-0.396,0.261-0.854,0.261-1.366v-7.839c0-0.44,0.14-0.796,0.42-1.066
				c0.279-0.27,0.613-0.404,1.002-0.404c0.381,0,0.712,0.135,0.992,0.404c0.28,0.27,0.419,0.625,0.419,1.066v7.909
				c0,0.85-0.152,1.604-0.459,2.271c-0.306,0.665-0.729,1.206-1.268,1.624c-0.54,0.418-1.164,0.736-1.871,0.952
				c-0.707,0.218-1.476,0.325-2.305,0.325C103.99,42.064,103.225,41.957,102.524,41.744z"/>
			<path fill="#FFFFFF" d="M102.524,41.744c-0.701-0.213-1.322-0.53-1.861-0.948c-0.54-0.418-0.961-0.961-1.264-1.629
				c-0.302-0.668-0.454-1.426-0.454-2.274v-7.909c0-0.44,0.139-0.796,0.414-1.066c0.277-0.27,0.609-0.404,0.998-0.404
				c0.388,0,0.722,0.135,1.001,0.404c0.281,0.27,0.42,0.625,0.42,1.066v7.839c0,0.514,0.088,0.97,0.262,1.366
				c0.174,0.398,0.406,0.713,0.696,0.943c0.29,0.229,0.61,0.404,0.962,0.523c0.352,0.117,0.726,0.177,1.121,0.177
				s0.77-0.06,1.125-0.177c0.355-0.119,0.681-0.293,0.978-0.523c0.296-0.23,0.531-0.545,0.706-0.943
				c0.174-0.396,0.261-0.854,0.261-1.366v-7.839c0-0.44,0.14-0.796,0.42-1.066c0.279-0.27,0.613-0.404,1.002-0.404
				c0.381,0,0.712,0.135,0.992,0.404c0.28,0.27,0.419,0.625,0.419,1.066v7.909c0,0.85-0.152,1.604-0.459,2.271
				c-0.306,0.665-0.729,1.206-1.268,1.624c-0.54,0.418-1.164,0.736-1.871,0.952c-0.707,0.218-1.476,0.325-2.305,0.325
				C103.99,42.064,103.225,41.957,102.524,41.744z"/>
		</g>
		<g>
			<path fill="none" stroke="#544841" stroke-width="2" d="M120.2,39.913l-3.663-8.856v9.577c0,0.328-0.124,0.583-0.374,0.765
				c-0.251,0.182-0.55,0.271-0.899,0.271c-0.349,0-0.65-0.091-0.904-0.271c-0.252-0.182-0.379-0.437-0.379-0.765l-0.01-10.821
				c0-0.546,0.21-0.993,0.632-1.342c0.422-0.349,0.918-0.522,1.491-0.522c0.48,0,0.928,0.139,1.342,0.42
				c0.415,0.28,0.73,0.699,0.948,1.258l3.436,8.203v3.446C121.082,41.273,120.542,40.821,120.2,39.913z M121.829,37.829l3.445-8.203
				c0.217-0.559,0.533-0.979,0.948-1.258c0.415-0.281,0.862-0.42,1.343-0.42c0.565,0,1.059,0.174,1.48,0.522
				c0.421,0.349,0.632,0.796,0.632,1.342v10.821c0,0.328-0.127,0.583-0.379,0.765c-0.254,0.182-0.555,0.271-0.904,0.271
				s-0.649-0.091-0.903-0.271c-0.252-0.182-0.38-0.437-0.38-0.765v-9.577l-3.653,8.856c-0.355,0.908-0.898,1.362-1.628,1.362
				L121.829,37.829L121.829,37.829z"/>
			<path fill="#FFFFFF" d="M120.2,39.913l-3.663-8.856v9.577c0,0.328-0.124,0.583-0.374,0.765c-0.251,0.182-0.55,0.271-0.899,0.271
				c-0.349,0-0.65-0.091-0.904-0.271c-0.252-0.182-0.379-0.437-0.379-0.765l-0.01-10.821c0-0.546,0.21-0.993,0.632-1.342
				c0.422-0.349,0.918-0.522,1.491-0.522c0.48,0,0.928,0.139,1.342,0.42c0.415,0.28,0.73,0.699,0.948,1.258l3.436,8.203v3.446
				C121.082,41.273,120.542,40.821,120.2,39.913z M121.829,37.829l3.445-8.203c0.217-0.559,0.533-0.979,0.948-1.258
				c0.415-0.281,0.862-0.42,1.343-0.42c0.565,0,1.059,0.174,1.48,0.522c0.421,0.349,0.632,0.796,0.632,1.342v10.821
				c0,0.328-0.127,0.583-0.379,0.765c-0.254,0.182-0.555,0.271-0.904,0.271s-0.649-0.091-0.903-0.271
				c-0.252-0.182-0.38-0.437-0.38-0.765v-9.577l-3.653,8.856c-0.355,0.908-0.898,1.362-1.628,1.362L121.829,37.829L121.829,37.829z"
				/>
		</g>
	</g>
	<g>
		<g>
			<path fill="none" stroke="#544841" stroke-width="2" d="M147.958,42.941l8.33-7.691l-8.33-7.689h2.258l8.33,7.689l-8.33,7.691
				H147.958z"/>
			<path fill="#FFFFFF" d="M147.958,42.941l8.33-7.691l-8.33-7.689h2.258l8.33,7.689l-8.33,7.691H147.958z"/>
		</g>
	</g>
</g>
<g id="Layer_7">
	
		<linearGradient id="SVGID_2_" gradientUnits="userSpaceOnUse" x1="-109.167" y1="328.6055" x2="-109.167" y2="388.6055" gradientTransform="matrix(1 0 0 -1 414 394)">
		<stop  offset="0" style="stop-color:#4F433C"/>
		<stop  offset="1" style="stop-color:#66564D"/>
	</linearGradient>
	<path fill="url(#SVGID_2_)" stroke="#4D423C" d="M404.833,55.395c0,5.522-4.477,10-10,10h-180c-5.522,0-10-4.478-10-10v-40
		c0-5.523,4.478-10,10-10h180c5.523,0,10,4.477,10,10V55.395z"/>
	<g>
		<g>
			<path fill="none" stroke="#544841" stroke-width="2" d="M258.575,41.402c-0.273-0.27-0.41-0.625-0.41-1.065V29.033
				c0-0.441,0.146-0.794,0.435-1.061c0.291-0.267,0.643-0.4,1.057-0.4h6.673c0.315,0,0.567,0.111,0.755,0.335
				c0.188,0.224,0.281,0.484,0.281,0.78s-0.094,0.557-0.281,0.78c-0.188,0.223-0.438,0.336-0.755,0.336h-5.331v3.593h5.044
				c0.315,0,0.567,0.109,0.755,0.326c0.188,0.217,0.282,0.474,0.282,0.771c0,0.302-0.093,0.561-0.276,0.774
				c-0.185,0.215-0.438,0.321-0.761,0.321h-5.044v4.748c0,0.44-0.143,0.796-0.424,1.065c-0.283,0.271-0.619,0.406-1.008,0.406
				C259.179,41.809,258.848,41.673,258.575,41.402z"/>
			<path fill="#FFFFFF" d="M258.575,41.402c-0.273-0.27-0.41-0.625-0.41-1.065V29.033c0-0.441,0.146-0.794,0.435-1.061
				c0.291-0.267,0.643-0.4,1.057-0.4h6.673c0.315,0,0.567,0.111,0.755,0.335c0.188,0.224,0.281,0.484,0.281,0.78
				s-0.094,0.557-0.281,0.78c-0.188,0.223-0.438,0.336-0.755,0.336h-5.331v3.593h5.044c0.315,0,0.567,0.109,0.755,0.326
				c0.188,0.217,0.282,0.474,0.282,0.771c0,0.302-0.093,0.561-0.276,0.774c-0.185,0.215-0.438,0.321-0.761,0.321h-5.044v4.748
				c0,0.44-0.143,0.796-0.424,1.065c-0.283,0.271-0.619,0.406-1.008,0.406C259.179,41.809,258.848,41.673,258.575,41.402z"/>
		</g>
		<g>
			<path fill="none" stroke="#544841" stroke-width="2" d="M270.93,40.081c-1.203-1.323-1.807-3.144-1.807-5.46
				c0-2.315,0.604-4.137,1.807-5.463c1.204-1.326,2.909-1.989,5.113-1.989c2.218,0,3.926,0.663,5.124,1.989
				c1.198,1.327,1.796,3.148,1.796,5.463c0,2.318-0.599,4.137-1.796,5.46c-1.198,1.321-2.906,1.983-5.124,1.983
				C273.839,42.064,272.134,41.402,270.93,40.081z M279.005,38.484c0.652-0.897,0.978-2.186,0.978-3.864
				c0-1.671-0.324-2.957-0.973-3.859c-0.648-0.901-1.637-1.353-2.967-1.353c-1.323,0-2.311,0.453-2.961,1.358
				c-0.652,0.905-0.979,2.189-0.979,3.854c0,1.68,0.324,2.967,0.973,3.864c0.648,0.899,1.638,1.349,2.966,1.349
				C277.366,39.833,278.354,39.384,279.005,38.484z"/>
			<path fill="#FFFFFF" d="M270.93,40.081c-1.203-1.323-1.807-3.144-1.807-5.46c0-2.315,0.604-4.137,1.807-5.463
				c1.204-1.326,2.909-1.989,5.113-1.989c2.218,0,3.926,0.663,5.124,1.989c1.198,1.327,1.796,3.148,1.796,5.463
				c0,2.318-0.599,4.137-1.796,5.46c-1.198,1.321-2.906,1.983-5.124,1.983C273.839,42.064,272.134,41.402,270.93,40.081z
				 M279.005,38.484c0.652-0.897,0.978-2.186,0.978-3.864c0-1.671-0.324-2.957-0.973-3.859c-0.648-0.901-1.637-1.353-2.967-1.353
				c-1.323,0-2.311,0.453-2.961,1.358c-0.652,0.905-0.979,2.189-0.979,3.854c0,1.68,0.324,2.967,0.973,3.864
				c0.648,0.899,1.638,1.349,2.966,1.349C277.366,39.833,278.354,39.384,279.005,38.484z"/>
		</g>
		<g>
			<path fill="none" stroke="#544841" stroke-width="2" d="M286.064,41.408c-0.277-0.26-0.414-0.617-0.414-1.071V29.014
				c0-0.421,0.146-0.769,0.438-1.041c0.292-0.273,0.646-0.41,1.062-0.41h4.353c3.47,0,5.203,1.207,5.203,3.622
				c0,0.843-0.267,1.555-0.8,2.138s-1.336,0.959-2.409,1.131v0.039c0.915,0.177,1.598,0.538,2.048,1.082
				c0.451,0.542,0.729,1.28,0.834,2.215l0.276,2.331c0.006,0.059,0.01,0.145,0.01,0.256c0,0.447-0.127,0.797-0.379,1.046
				c-0.254,0.251-0.572,0.375-0.953,0.375c-0.396,0-0.733-0.123-1.019-0.37c-0.282-0.246-0.446-0.609-0.492-1.091l-0.247-2.28
				c-0.046-0.44-0.112-0.8-0.198-1.076c-0.085-0.275-0.221-0.515-0.404-0.715c-0.185-0.201-0.426-0.345-0.726-0.43
				c-0.299-0.085-0.681-0.128-1.14-0.128h-0.041h-2.586v4.63c0,0.461-0.14,0.819-0.42,1.076c-0.278,0.257-0.612,0.385-1,0.385
				C286.672,41.799,286.34,41.668,286.064,41.408z M290.497,33.604c0.276,0,0.508-0.003,0.696-0.01
				c0.188-0.005,0.408-0.024,0.662-0.054c0.252-0.03,0.467-0.071,0.642-0.123c0.174-0.054,0.354-0.129,0.543-0.227
				c0.188-0.099,0.337-0.218,0.449-0.356c0.112-0.138,0.204-0.312,0.276-0.523c0.071-0.21,0.107-0.451,0.107-0.72
				c0-0.257-0.029-0.485-0.088-0.687c-0.061-0.201-0.135-0.367-0.223-0.499c-0.088-0.132-0.211-0.243-0.371-0.335
				c-0.157-0.092-0.303-0.163-0.438-0.211c-0.134-0.05-0.312-0.086-0.528-0.109s-0.4-0.038-0.553-0.044
				c-0.15-0.006-0.345-0.01-0.582-0.01h-0.207h-2.408v3.909L290.497,33.604L290.497,33.604z"/>
			<path fill="#FFFFFF" d="M286.064,41.408c-0.277-0.26-0.414-0.617-0.414-1.071V29.014c0-0.421,0.146-0.769,0.438-1.041
				c0.292-0.273,0.646-0.41,1.062-0.41h4.353c3.47,0,5.203,1.207,5.203,3.622c0,0.843-0.267,1.555-0.8,2.138
				s-1.336,0.959-2.409,1.131v0.039c0.915,0.177,1.598,0.538,2.048,1.082c0.451,0.542,0.729,1.28,0.834,2.215l0.276,2.331
				c0.006,0.059,0.01,0.145,0.01,0.256c0,0.447-0.127,0.797-0.379,1.046c-0.254,0.251-0.572,0.375-0.953,0.375
				c-0.396,0-0.733-0.123-1.019-0.37c-0.282-0.246-0.446-0.609-0.492-1.091l-0.247-2.28c-0.046-0.44-0.112-0.8-0.198-1.076
				c-0.085-0.275-0.221-0.515-0.404-0.715c-0.185-0.201-0.426-0.345-0.726-0.43c-0.299-0.085-0.681-0.128-1.14-0.128h-0.041h-2.586
				v4.63c0,0.461-0.14,0.819-0.42,1.076c-0.278,0.257-0.612,0.385-1,0.385C286.672,41.799,286.34,41.668,286.064,41.408z
				 M290.497,33.604c0.276,0,0.508-0.003,0.696-0.01c0.188-0.005,0.408-0.024,0.662-0.054c0.252-0.03,0.467-0.071,0.642-0.123
				c0.174-0.054,0.354-0.129,0.543-0.227c0.188-0.099,0.337-0.218,0.449-0.356c0.112-0.138,0.204-0.312,0.276-0.523
				c0.071-0.21,0.107-0.451,0.107-0.72c0-0.257-0.029-0.485-0.088-0.687c-0.061-0.201-0.135-0.367-0.223-0.499
				c-0.088-0.132-0.211-0.243-0.371-0.335c-0.157-0.092-0.303-0.163-0.438-0.211c-0.134-0.05-0.312-0.086-0.528-0.109
				s-0.4-0.038-0.553-0.044c-0.15-0.006-0.345-0.01-0.582-0.01h-0.207h-2.408v3.909L290.497,33.604L290.497,33.604z"/>
		</g>
		<g>
			<path fill="none" stroke="#544841" stroke-width="2" d="M303.148,41.744c-0.701-0.213-1.322-0.53-1.861-0.948
				c-0.54-0.418-0.961-0.961-1.264-1.629s-0.455-1.426-0.455-2.274v-7.909c0-0.44,0.14-0.796,0.414-1.066
				c0.277-0.27,0.609-0.404,0.998-0.404s0.723,0.135,1.002,0.404c0.281,0.27,0.42,0.625,0.42,1.066v7.839
				c0,0.514,0.088,0.97,0.262,1.366c0.174,0.398,0.406,0.713,0.695,0.943c0.291,0.229,0.61,0.404,0.963,0.523
				c0.352,0.117,0.726,0.177,1.121,0.177c0.395,0,0.77-0.06,1.125-0.177c0.354-0.119,0.681-0.293,0.978-0.523
				c0.296-0.23,0.531-0.545,0.706-0.943c0.174-0.396,0.261-0.854,0.261-1.366v-7.839c0-0.44,0.141-0.796,0.42-1.066
				s0.613-0.404,1.003-0.404c0.381,0,0.712,0.135,0.991,0.404c0.28,0.27,0.419,0.625,0.419,1.066v7.909
				c0,0.85-0.151,1.604-0.459,2.271c-0.306,0.665-0.729,1.206-1.268,1.624c-0.54,0.418-1.164,0.736-1.871,0.952
				c-0.707,0.218-1.477,0.325-2.305,0.325C304.613,42.064,303.85,41.957,303.148,41.744z"/>
			<path fill="#FFFFFF" d="M303.148,41.744c-0.701-0.213-1.322-0.53-1.861-0.948c-0.54-0.418-0.961-0.961-1.264-1.629
				s-0.455-1.426-0.455-2.274v-7.909c0-0.44,0.14-0.796,0.414-1.066c0.277-0.27,0.609-0.404,0.998-0.404s0.723,0.135,1.002,0.404
				c0.281,0.27,0.42,0.625,0.42,1.066v7.839c0,0.514,0.088,0.97,0.262,1.366c0.174,0.398,0.406,0.713,0.695,0.943
				c0.291,0.229,0.61,0.404,0.963,0.523c0.352,0.117,0.726,0.177,1.121,0.177c0.395,0,0.77-0.06,1.125-0.177
				c0.354-0.119,0.681-0.293,0.978-0.523c0.296-0.23,0.531-0.545,0.706-0.943c0.174-0.396,0.261-0.854,0.261-1.366v-7.839
				c0-0.44,0.141-0.796,0.42-1.066s0.613-0.404,1.003-0.404c0.381,0,0.712,0.135,0.991,0.404c0.28,0.27,0.419,0.625,0.419,1.066
				v7.909c0,0.85-0.151,1.604-0.459,2.271c-0.306,0.665-0.729,1.206-1.268,1.624c-0.54,0.418-1.164,0.736-1.871,0.952
				c-0.707,0.218-1.477,0.325-2.305,0.325C304.613,42.064,303.85,41.957,303.148,41.744z"/>
		</g>
		<g>
			<path fill="none" stroke="#544841" stroke-width="2" d="M320.823,39.913l-3.663-8.856v9.577c0,0.328-0.124,0.583-0.374,0.765
				c-0.251,0.182-0.55,0.271-0.899,0.271c-0.349,0-0.649-0.091-0.903-0.271c-0.252-0.182-0.38-0.437-0.38-0.765l-0.01-10.821
				c0-0.546,0.21-0.993,0.632-1.342c0.423-0.349,0.919-0.522,1.491-0.522c0.48,0,0.928,0.139,1.342,0.42
				c0.415,0.28,0.73,0.699,0.948,1.258l3.437,8.203v3.446C321.706,41.273,321.166,40.821,320.823,39.913z M322.453,37.829
				l3.445-8.203c0.217-0.559,0.532-0.979,0.947-1.258c0.415-0.281,0.862-0.42,1.344-0.42c0.564,0,1.059,0.174,1.479,0.522
				c0.421,0.349,0.632,0.796,0.632,1.342v10.821c0,0.328-0.127,0.583-0.379,0.765c-0.254,0.182-0.555,0.271-0.904,0.271
				c-0.349,0-0.648-0.091-0.902-0.271c-0.252-0.182-0.38-0.437-0.38-0.765v-9.577l-3.653,8.856
				c-0.355,0.908-0.898,1.362-1.628,1.362L322.453,37.829L322.453,37.829z"/>
			<path fill="#FFFFFF" d="M320.823,39.913l-3.663-8.856v9.577c0,0.328-0.124,0.583-0.374,0.765
				c-0.251,0.182-0.55,0.271-0.899,0.271c-0.349,0-0.649-0.091-0.903-0.271c-0.252-0.182-0.38-0.437-0.38-0.765l-0.01-10.821
				c0-0.546,0.21-0.993,0.632-1.342c0.423-0.349,0.919-0.522,1.491-0.522c0.48,0,0.928,0.139,1.342,0.42
				c0.415,0.28,0.73,0.699,0.948,1.258l3.437,8.203v3.446C321.706,41.273,321.166,40.821,320.823,39.913z M322.453,37.829
				l3.445-8.203c0.217-0.559,0.532-0.979,0.947-1.258c0.415-0.281,0.862-0.42,1.344-0.42c0.564,0,1.059,0.174,1.479,0.522
				c0.421,0.349,0.632,0.796,0.632,1.342v10.821c0,0.328-0.127,0.583-0.379,0.765c-0.254,0.182-0.555,0.271-0.904,0.271
				c-0.349,0-0.648-0.091-0.902-0.271c-0.252-0.182-0.38-0.437-0.38-0.765v-9.577l-3.653,8.856
				c-0.355,0.908-0.898,1.362-1.628,1.362L322.453,37.829L322.453,37.829z"/>
		</g>
	</g>
	<g>
		<g>
			<path fill="none" stroke="#544841" stroke-width="2" d="M348.581,42.941l8.33-7.691l-8.33-7.689h2.258l8.33,7.689l-8.33,7.691
				H348.581z"/>
			<path fill="#FFFFFF" d="M348.581,42.941l8.33-7.691l-8.33-7.689h2.258l8.33,7.689l-8.33,7.691H348.581z"/>
		</g>
	</g>
</g>
</svg>
