<?xml version="1.0" encoding="utf-8"?>
<!-- Generator: Adobe Illustrator 14.0.0, SVG Export Plug-In . SVG Version: 6.00 Build 43363)  -->
<!DOCTYPE svg PUBLIC "-//W3C//DTD SVG 1.1//EN" "http://www.w3.org/Graphics/SVG/1.1/DTD/svg11.dtd">
<svg version="1.1" id="Layer_1" xmlns="http://www.w3.org/2000/svg" xmlns:xlink="http://www.w3.org/1999/xlink" x="0px" y="0px"
	 width="201.062px" height="60.938px" viewBox="0 0 201.062 60.938" enable-background="new 0 0 201.062 60.938"
	 xml:space="preserve">
<g id="Layer_6">
	
		<linearGradient id="SVGID_1_" gradientUnits="userSpaceOnUse" x1="-727.4685" y1="782.469" x2="-727.4685" y2="722.469" gradientTransform="matrix(1 0 0 1 828 -722)">
		<stop  offset="0" style="stop-color:#594C45"/>
		<stop  offset="1" style="stop-color:#726158"/>
	</linearGradient>
	<path fill="url(#SVGID_1_)" stroke="#4D423C" d="M200.531,50.469c0,5.522-4.477,10-10,10h-180c-5.522,0-10-4.478-10-10v-40
		c0-5.522,4.478-10,10-10h180c5.523,0,10,4.478,10,10V50.469z"/>
	<g>
		<g>
			<path fill="none" stroke="#544841" stroke-width="2" d="M54.273,36.476c-0.272-0.27-0.41-0.625-0.41-1.064V24.108
				c0-0.441,0.146-0.794,0.436-1.062c0.29-0.267,0.642-0.399,1.056-0.399h6.673c0.316,0,0.567,0.11,0.755,0.335
				c0.188,0.224,0.281,0.483,0.281,0.779s-0.093,0.558-0.281,0.78c-0.188,0.223-0.438,0.336-0.755,0.336h-5.331v3.593h5.044
				c0.316,0,0.568,0.109,0.755,0.326c0.188,0.217,0.282,0.475,0.282,0.771c0,0.302-0.093,0.561-0.275,0.774
				c-0.186,0.214-0.438,0.321-0.762,0.321h-5.044v4.748c0,0.439-0.142,0.796-0.424,1.064c-0.283,0.271-0.619,0.406-1.007,0.406
				C54.877,36.883,54.547,36.747,54.273,36.476z"/>
			<path fill="#FFFFFF" d="M54.273,36.476c-0.272-0.27-0.41-0.625-0.41-1.064V24.108c0-0.441,0.146-0.794,0.436-1.062
				c0.29-0.267,0.642-0.399,1.056-0.399h6.673c0.316,0,0.567,0.11,0.755,0.335c0.188,0.224,0.281,0.483,0.281,0.779
				s-0.093,0.558-0.281,0.78c-0.188,0.223-0.438,0.336-0.755,0.336h-5.331v3.593h5.044c0.316,0,0.568,0.109,0.755,0.326
				c0.188,0.217,0.282,0.475,0.282,0.771c0,0.302-0.093,0.561-0.275,0.774c-0.186,0.214-0.438,0.321-0.762,0.321h-5.044v4.748
				c0,0.439-0.142,0.796-0.424,1.064c-0.283,0.271-0.619,0.406-1.007,0.406C54.877,36.883,54.547,36.747,54.273,36.476z"/>
		</g>
		<g>
			<path fill="none" stroke="#544841" stroke-width="2" d="M66.629,35.156c-1.204-1.323-1.808-3.145-1.808-5.46
				s0.604-4.138,1.808-5.463c1.203-1.326,2.908-1.989,5.112-1.989c2.219,0,3.927,0.663,5.124,1.989
				c1.198,1.326,1.796,3.147,1.796,5.463c0,2.317-0.599,4.137-1.796,5.46c-1.197,1.32-2.905,1.982-5.124,1.982
				C69.536,37.138,67.832,36.476,66.629,35.156z M74.703,33.558c0.652-0.896,0.979-2.186,0.979-3.863
				c0-1.671-0.325-2.957-0.973-3.859c-0.648-0.901-1.638-1.353-2.968-1.353c-1.322,0-2.31,0.452-2.961,1.357
				s-0.978,2.189-0.978,3.854c0,1.68,0.324,2.967,0.972,3.863c0.648,0.899,1.638,1.35,2.966,1.35
				C73.064,34.907,74.052,34.458,74.703,33.558z"/>
			<path fill="#FFFFFF" d="M66.629,35.156c-1.204-1.323-1.808-3.145-1.808-5.46s0.604-4.138,1.808-5.463
				c1.203-1.326,2.908-1.989,5.112-1.989c2.219,0,3.927,0.663,5.124,1.989c1.198,1.326,1.796,3.147,1.796,5.463
				c0,2.317-0.599,4.137-1.796,5.46c-1.197,1.32-2.905,1.982-5.124,1.982C69.536,37.138,67.832,36.476,66.629,35.156z
				 M74.703,33.558c0.652-0.896,0.979-2.186,0.979-3.863c0-1.671-0.325-2.957-0.973-3.859c-0.648-0.901-1.638-1.353-2.968-1.353
				c-1.322,0-2.31,0.452-2.961,1.357s-0.978,2.189-0.978,3.854c0,1.68,0.324,2.967,0.972,3.863c0.648,0.899,1.638,1.35,2.966,1.35
				C73.064,34.907,74.052,34.458,74.703,33.558z"/>
		</g>
		<g>
			<path fill="none" stroke="#544841" stroke-width="2" d="M81.761,36.483c-0.277-0.261-0.414-0.617-0.414-1.071V24.088
				c0-0.421,0.146-0.769,0.438-1.041c0.292-0.272,0.646-0.41,1.062-0.41H87.2c3.47,0,5.203,1.207,5.203,3.622
				c0,0.843-0.266,1.556-0.8,2.139c-0.533,0.583-1.336,0.959-2.409,1.131v0.039c0.915,0.177,1.599,0.538,2.048,1.082
				c0.451,0.542,0.729,1.279,0.834,2.215l0.276,2.331c0.006,0.059,0.01,0.145,0.01,0.256c0,0.447-0.127,0.797-0.379,1.046
				c-0.254,0.251-0.572,0.375-0.953,0.375c-0.396,0-0.733-0.123-1.018-0.37c-0.283-0.246-0.447-0.609-0.493-1.091l-0.247-2.28
				c-0.046-0.439-0.112-0.8-0.198-1.076c-0.085-0.274-0.221-0.515-0.404-0.715c-0.185-0.201-0.426-0.345-0.726-0.43
				c-0.299-0.085-0.68-0.128-1.14-0.128h-0.04h-2.586v4.63c0,0.461-0.141,0.819-0.42,1.076s-0.613,0.385-1.001,0.385
				C82.369,36.873,82.038,36.742,81.761,36.483z M86.194,28.678c0.276,0,0.508-0.003,0.696-0.01
				c0.188-0.005,0.408-0.024,0.662-0.054c0.253-0.03,0.467-0.071,0.642-0.123c0.174-0.054,0.355-0.129,0.543-0.228
				c0.188-0.099,0.337-0.218,0.449-0.355s0.204-0.312,0.276-0.523c0.071-0.21,0.107-0.451,0.107-0.72
				c0-0.257-0.028-0.485-0.088-0.687s-0.134-0.367-0.222-0.499c-0.089-0.133-0.212-0.243-0.371-0.336
				c-0.158-0.092-0.304-0.162-0.439-0.211c-0.134-0.05-0.311-0.086-0.527-0.108c-0.218-0.023-0.401-0.038-0.554-0.044
				c-0.15-0.006-0.345-0.01-0.582-0.01H86.58h-2.408v3.908L86.194,28.678L86.194,28.678z"/>
			<path fill="#FFFFFF" d="M81.761,36.483c-0.277-0.261-0.414-0.617-0.414-1.071V24.088c0-0.421,0.146-0.769,0.438-1.041
				c0.292-0.272,0.646-0.41,1.062-0.41H87.2c3.47,0,5.203,1.207,5.203,3.622c0,0.843-0.266,1.556-0.8,2.139
				c-0.533,0.583-1.336,0.959-2.409,1.131v0.039c0.915,0.177,1.599,0.538,2.048,1.082c0.451,0.542,0.729,1.279,0.834,2.215
				l0.276,2.331c0.006,0.059,0.01,0.145,0.01,0.256c0,0.447-0.127,0.797-0.379,1.046c-0.254,0.251-0.572,0.375-0.953,0.375
				c-0.396,0-0.733-0.123-1.018-0.37c-0.283-0.246-0.447-0.609-0.493-1.091l-0.247-2.28c-0.046-0.439-0.112-0.8-0.198-1.076
				c-0.085-0.274-0.221-0.515-0.404-0.715c-0.185-0.201-0.426-0.345-0.726-0.43c-0.299-0.085-0.68-0.128-1.14-0.128h-0.04h-2.586
				v4.63c0,0.461-0.141,0.819-0.42,1.076s-0.613,0.385-1.001,0.385C82.369,36.873,82.038,36.742,81.761,36.483z M86.194,28.678
				c0.276,0,0.508-0.003,0.696-0.01c0.188-0.005,0.408-0.024,0.662-0.054c0.253-0.03,0.467-0.071,0.642-0.123
				c0.174-0.054,0.355-0.129,0.543-0.228c0.188-0.099,0.337-0.218,0.449-0.355s0.204-0.312,0.276-0.523
				c0.071-0.21,0.107-0.451,0.107-0.72c0-0.257-0.028-0.485-0.088-0.687s-0.134-0.367-0.222-0.499
				c-0.089-0.133-0.212-0.243-0.371-0.336c-0.158-0.092-0.304-0.162-0.439-0.211c-0.134-0.05-0.311-0.086-0.527-0.108
				c-0.218-0.023-0.401-0.038-0.554-0.044c-0.15-0.006-0.345-0.01-0.582-0.01H86.58h-2.408v3.908L86.194,28.678L86.194,28.678z"/>
		</g>
		<g>
			<path fill="none" stroke="#544841" stroke-width="2" d="M98.845,36.819c-0.701-0.213-1.322-0.53-1.861-0.948
				c-0.54-0.418-0.961-0.961-1.264-1.629c-0.302-0.668-0.454-1.426-0.454-2.274v-7.909c0-0.439,0.139-0.796,0.414-1.065
				c0.276-0.271,0.608-0.404,0.998-0.404c0.388,0,0.722,0.135,1.001,0.404c0.281,0.27,0.42,0.625,0.42,1.065v7.84
				c0,0.514,0.088,0.97,0.262,1.365c0.174,0.398,0.406,0.713,0.697,0.943c0.289,0.229,0.609,0.404,0.961,0.523
				c0.352,0.116,0.727,0.177,1.122,0.177c0.395,0,0.771-0.061,1.125-0.177c0.354-0.119,0.682-0.293,0.979-0.523
				s0.531-0.545,0.707-0.943c0.174-0.396,0.262-0.854,0.262-1.365v-7.84c0-0.439,0.139-0.796,0.42-1.065
				c0.277-0.271,0.611-0.404,1.002-0.404c0.381,0,0.711,0.135,0.99,0.404c0.281,0.27,0.42,0.625,0.42,1.065v7.909
				c0,0.851-0.152,1.604-0.459,2.271c-0.307,0.665-0.729,1.206-1.268,1.624c-0.541,0.418-1.164,0.735-1.871,0.952
				c-0.707,0.218-1.477,0.324-2.307,0.324C100.312,37.138,99.546,37.031,98.845,36.819z"/>
			<path fill="#FFFFFF" d="M98.845,36.819c-0.701-0.213-1.322-0.53-1.861-0.948c-0.54-0.418-0.961-0.961-1.264-1.629
				c-0.302-0.668-0.454-1.426-0.454-2.274v-7.909c0-0.439,0.139-0.796,0.414-1.065c0.276-0.271,0.608-0.404,0.998-0.404
				c0.388,0,0.722,0.135,1.001,0.404c0.281,0.27,0.42,0.625,0.42,1.065v7.84c0,0.514,0.088,0.97,0.262,1.365
				c0.174,0.398,0.406,0.713,0.697,0.943c0.289,0.229,0.609,0.404,0.961,0.523c0.352,0.116,0.727,0.177,1.122,0.177
				c0.395,0,0.771-0.061,1.125-0.177c0.354-0.119,0.682-0.293,0.979-0.523s0.531-0.545,0.707-0.943
				c0.174-0.396,0.262-0.854,0.262-1.365v-7.84c0-0.439,0.139-0.796,0.42-1.065c0.277-0.271,0.611-0.404,1.002-0.404
				c0.381,0,0.711,0.135,0.99,0.404c0.281,0.27,0.42,0.625,0.42,1.065v7.909c0,0.851-0.152,1.604-0.459,2.271
				c-0.307,0.665-0.729,1.206-1.268,1.624c-0.541,0.418-1.164,0.735-1.871,0.952c-0.707,0.218-1.477,0.324-2.307,0.324
				C100.312,37.138,99.546,37.031,98.845,36.819z"/>
		</g>
		<g>
			<path fill="none" stroke="#544841" stroke-width="2" d="M116.523,34.988l-3.664-8.856v9.577c0,0.328-0.123,0.583-0.373,0.765
				c-0.252,0.183-0.551,0.271-0.898,0.271c-0.35,0-0.65-0.091-0.904-0.271c-0.252-0.182-0.379-0.437-0.379-0.765l-0.01-10.821
				c0-0.546,0.209-0.993,0.631-1.342s0.918-0.521,1.49-0.521c0.48,0,0.93,0.139,1.344,0.42c0.414,0.279,0.729,0.698,0.947,1.258
				l3.436,8.203v3.445C117.404,36.347,116.863,35.896,116.523,34.988z M118.152,32.904l3.443-8.203
				c0.219-0.56,0.533-0.979,0.949-1.258c0.414-0.281,0.859-0.42,1.342-0.42c0.564,0,1.061,0.174,1.479,0.521
				c0.422,0.349,0.633,0.796,0.633,1.342v10.821c0,0.328-0.127,0.583-0.379,0.765c-0.254,0.183-0.555,0.271-0.902,0.271
				c-0.35,0-0.648-0.091-0.902-0.271c-0.252-0.182-0.381-0.437-0.381-0.765V26.13l-3.652,8.856
				c-0.355,0.907-0.898,1.361-1.629,1.361V32.904L118.152,32.904z"/>
			<path fill="#FFFFFF" d="M116.523,34.988l-3.664-8.856v9.577c0,0.328-0.123,0.583-0.373,0.765
				c-0.252,0.183-0.551,0.271-0.898,0.271c-0.35,0-0.65-0.091-0.904-0.271c-0.252-0.182-0.379-0.437-0.379-0.765l-0.01-10.821
				c0-0.546,0.209-0.993,0.631-1.342s0.918-0.521,1.49-0.521c0.48,0,0.93,0.139,1.344,0.42c0.414,0.279,0.729,0.698,0.947,1.258
				l3.436,8.203v3.445C117.404,36.347,116.863,35.896,116.523,34.988z M118.152,32.904l3.443-8.203
				c0.219-0.56,0.533-0.979,0.949-1.258c0.414-0.281,0.859-0.42,1.342-0.42c0.564,0,1.061,0.174,1.479,0.521
				c0.422,0.349,0.633,0.796,0.633,1.342v10.821c0,0.328-0.127,0.583-0.379,0.765c-0.254,0.183-0.555,0.271-0.902,0.271
				c-0.35,0-0.648-0.091-0.902-0.271c-0.252-0.182-0.381-0.437-0.381-0.765V26.13l-3.652,8.856
				c-0.355,0.907-0.898,1.361-1.629,1.361V32.904L118.152,32.904z"/>
		</g>
	</g>
	<g>
		<g>
			<path fill="none" stroke="#544841" stroke-width="2" d="M144.279,38.015l8.33-7.69l-8.33-7.689h2.258l8.33,7.689l-8.33,7.69
				H144.279z"/>
			<path fill="#FFFFFF" d="M144.279,38.015l8.33-7.69l-8.33-7.689h2.258l8.33,7.689l-8.33,7.69H144.279z"/>
		</g>
	</g>
</g>
</svg>
