<?xml version="1.0" encoding="utf-8"?>
<!-- Generator: Adobe Illustrator 14.0.0, SVG Export Plug-In . SVG Version: 6.00 Build 43363)  -->
<!DOCTYPE svg PUBLIC "-//W3C//DTD SVG 1.1//EN" "http://www.w3.org/Graphics/SVG/1.1/DTD/svg11.dtd">
<svg version="1.1" id="Layer_1" xmlns="http://www.w3.org/2000/svg" xmlns:xlink="http://www.w3.org/1999/xlink" x="0px" y="0px"
	 width="201px" height="61.062px" viewBox="0 0 201 61.062" enable-background="new 0 0 201 61.062" xml:space="preserve">
<g id="Layer_7">
	
		<linearGradient id="SVGID_1_" gradientUnits="userSpaceOnUse" x1="-727.4995" y1="782.531" x2="-727.4995" y2="722.531" gradientTransform="matrix(1 0 0 1 828 -722)">
		<stop  offset="0" style="stop-color:#4F433C"/>
		<stop  offset="1" style="stop-color:#66564D"/>
	</linearGradient>
	<path fill="url(#SVGID_1_)" stroke="#4D423C" d="M200.5,50.531c0,5.521-4.478,10-10,10h-180c-5.523,0-10-4.479-10-10v-40
		c0-5.523,4.477-10,10-10h180c5.522,0,10,4.477,10,10V50.531z"/>
	<g>
		<g>
			<path fill="none" stroke="#544841" stroke-width="2" d="M54.242,36.538c-0.273-0.271-0.41-0.625-0.41-1.065V24.169
				c0-0.441,0.145-0.794,0.435-1.061c0.29-0.268,0.642-0.4,1.056-0.4h6.673c0.316,0,0.567,0.111,0.755,0.335s0.281,0.484,0.281,0.78
				s-0.093,0.557-0.281,0.779c-0.188,0.224-0.438,0.336-0.755,0.336h-5.331v3.594h5.044c0.316,0,0.568,0.108,0.755,0.326
				c0.188,0.217,0.282,0.474,0.282,0.771c0,0.302-0.093,0.561-0.276,0.775c-0.185,0.214-0.438,0.32-0.761,0.32h-5.044v4.748
				c0,0.44-0.142,0.796-0.424,1.065c-0.283,0.271-0.619,0.406-1.007,0.406C54.845,36.945,54.515,36.808,54.242,36.538z"/>
			<path fill="#FFFFFF" d="M54.242,36.538c-0.273-0.271-0.41-0.625-0.41-1.065V24.169c0-0.441,0.145-0.794,0.435-1.061
				c0.29-0.268,0.642-0.4,1.056-0.4h6.673c0.316,0,0.567,0.111,0.755,0.335s0.281,0.484,0.281,0.78s-0.093,0.557-0.281,0.779
				c-0.188,0.224-0.438,0.336-0.755,0.336h-5.331v3.594h5.044c0.316,0,0.568,0.108,0.755,0.326c0.188,0.217,0.282,0.474,0.282,0.771
				c0,0.302-0.093,0.561-0.276,0.775c-0.185,0.214-0.438,0.32-0.761,0.32h-5.044v4.748c0,0.44-0.142,0.796-0.424,1.065
				c-0.283,0.271-0.619,0.406-1.007,0.406C54.845,36.945,54.515,36.808,54.242,36.538z"/>
		</g>
		<g>
			<path fill="none" stroke="#544841" stroke-width="2" d="M66.597,35.217c-1.204-1.323-1.807-3.144-1.807-5.46
				c0-2.314,0.603-4.137,1.807-5.463c1.204-1.326,2.909-1.989,5.113-1.989c2.218,0,3.926,0.663,5.124,1.989
				c1.198,1.327,1.796,3.148,1.796,5.463c0,2.318-0.599,4.137-1.796,5.46c-1.198,1.321-2.906,1.983-5.124,1.983
				C69.505,37.2,67.801,36.538,66.597,35.217z M74.672,33.62c0.652-0.897,0.978-2.187,0.978-3.864c0-1.671-0.325-2.957-0.973-3.859
				c-0.648-0.9-1.637-1.353-2.967-1.353c-1.323,0-2.31,0.453-2.961,1.358c-0.652,0.904-0.978,2.188-0.978,3.854
				c0,1.68,0.324,2.967,0.972,3.864c0.648,0.898,1.638,1.349,2.966,1.349C73.033,34.969,74.02,34.519,74.672,33.62z"/>
			<path fill="#FFFFFF" d="M66.597,35.217c-1.204-1.323-1.807-3.144-1.807-5.46c0-2.314,0.603-4.137,1.807-5.463
				c1.204-1.326,2.909-1.989,5.113-1.989c2.218,0,3.926,0.663,5.124,1.989c1.198,1.327,1.796,3.148,1.796,5.463
				c0,2.318-0.599,4.137-1.796,5.46c-1.198,1.321-2.906,1.983-5.124,1.983C69.505,37.2,67.801,36.538,66.597,35.217z M74.672,33.62
				c0.652-0.897,0.978-2.187,0.978-3.864c0-1.671-0.325-2.957-0.973-3.859c-0.648-0.9-1.637-1.353-2.967-1.353
				c-1.323,0-2.31,0.453-2.961,1.358c-0.652,0.904-0.978,2.188-0.978,3.854c0,1.68,0.324,2.967,0.972,3.864
				c0.648,0.898,1.638,1.349,2.966,1.349C73.033,34.969,74.02,34.519,74.672,33.62z"/>
		</g>
		<g>
			<path fill="none" stroke="#544841" stroke-width="2" d="M81.73,36.544c-0.277-0.26-0.414-0.617-0.414-1.071V24.15
				c0-0.422,0.146-0.77,0.439-1.041c0.292-0.273,0.646-0.41,1.061-0.41h4.353c3.469,0,5.203,1.207,5.203,3.622
				c0,0.843-0.266,1.555-0.8,2.138c-0.533,0.583-1.336,0.959-2.409,1.131v0.039c0.915,0.177,1.598,0.538,2.048,1.082
				c0.451,0.542,0.729,1.28,0.834,2.215l0.276,2.331c0.006,0.06,0.01,0.146,0.01,0.256c0,0.447-0.127,0.797-0.379,1.046
				c-0.254,0.251-0.572,0.375-0.953,0.375c-0.396,0-0.734-0.123-1.018-0.37c-0.283-0.245-0.447-0.608-0.493-1.091l-0.247-2.279
				c-0.046-0.44-0.112-0.801-0.198-1.076c-0.085-0.275-0.221-0.516-0.405-0.715c-0.184-0.201-0.425-0.346-0.725-0.431
				c-0.299-0.085-0.68-0.128-1.14-0.128h-0.04h-2.586v4.63c0,0.461-0.14,0.819-0.42,1.076c-0.279,0.257-0.613,0.385-1.001,0.385
				S82.007,36.803,81.73,36.544z M86.163,28.74c0.276,0,0.508-0.003,0.696-0.011c0.188-0.005,0.408-0.023,0.662-0.054
				c0.253-0.03,0.467-0.071,0.642-0.123c0.174-0.054,0.355-0.129,0.543-0.227c0.188-0.1,0.337-0.218,0.449-0.356
				c0.112-0.138,0.204-0.312,0.276-0.522c0.072-0.21,0.108-0.451,0.108-0.721c0-0.257-0.029-0.484-0.088-0.687
				c-0.06-0.201-0.134-0.367-0.222-0.499c-0.089-0.132-0.212-0.243-0.371-0.335c-0.158-0.092-0.304-0.163-0.439-0.211
				c-0.134-0.05-0.311-0.086-0.528-0.109c-0.217-0.022-0.401-0.038-0.553-0.044c-0.151-0.006-0.345-0.01-0.582-0.01h-0.207H84.14
				v3.909L86.163,28.74L86.163,28.74z"/>
			<path fill="#FFFFFF" d="M81.73,36.544c-0.277-0.26-0.414-0.617-0.414-1.071V24.15c0-0.422,0.146-0.77,0.439-1.041
				c0.292-0.273,0.646-0.41,1.061-0.41h4.353c3.469,0,5.203,1.207,5.203,3.622c0,0.843-0.266,1.555-0.8,2.138
				c-0.533,0.583-1.336,0.959-2.409,1.131v0.039c0.915,0.177,1.598,0.538,2.048,1.082c0.451,0.542,0.729,1.28,0.834,2.215
				l0.276,2.331c0.006,0.06,0.01,0.146,0.01,0.256c0,0.447-0.127,0.797-0.379,1.046c-0.254,0.251-0.572,0.375-0.953,0.375
				c-0.396,0-0.734-0.123-1.018-0.37c-0.283-0.245-0.447-0.608-0.493-1.091l-0.247-2.279c-0.046-0.44-0.112-0.801-0.198-1.076
				c-0.085-0.275-0.221-0.516-0.405-0.715c-0.184-0.201-0.425-0.346-0.725-0.431c-0.299-0.085-0.68-0.128-1.14-0.128h-0.04h-2.586
				v4.63c0,0.461-0.14,0.819-0.42,1.076c-0.279,0.257-0.613,0.385-1.001,0.385S82.007,36.803,81.73,36.544z M86.163,28.74
				c0.276,0,0.508-0.003,0.696-0.011c0.188-0.005,0.408-0.023,0.662-0.054c0.253-0.03,0.467-0.071,0.642-0.123
				c0.174-0.054,0.355-0.129,0.543-0.227c0.188-0.1,0.337-0.218,0.449-0.356c0.112-0.138,0.204-0.312,0.276-0.522
				c0.072-0.21,0.108-0.451,0.108-0.721c0-0.257-0.029-0.484-0.088-0.687c-0.06-0.201-0.134-0.367-0.222-0.499
				c-0.089-0.132-0.212-0.243-0.371-0.335c-0.158-0.092-0.304-0.163-0.439-0.211c-0.134-0.05-0.311-0.086-0.528-0.109
				c-0.217-0.022-0.401-0.038-0.553-0.044c-0.151-0.006-0.345-0.01-0.582-0.01h-0.207H84.14v3.909L86.163,28.74L86.163,28.74z"/>
		</g>
		<g>
			<path fill="none" stroke="#544841" stroke-width="2" d="M98.813,36.88c-0.7-0.213-1.321-0.53-1.86-0.948
				c-0.54-0.418-0.961-0.961-1.264-1.629c-0.302-0.668-0.454-1.426-0.454-2.273V24.12c0-0.44,0.139-0.796,0.414-1.066
				c0.277-0.27,0.609-0.403,0.998-0.403c0.388,0,0.722,0.135,1,0.403c0.281,0.271,0.42,0.625,0.42,1.066v7.839
				c0,0.514,0.089,0.97,0.263,1.366c0.174,0.397,0.405,0.713,0.696,0.942c0.289,0.229,0.609,0.404,0.962,0.523
				c0.352,0.117,0.726,0.177,1.12,0.177c0.396,0,0.771-0.06,1.125-0.177c0.354-0.119,0.682-0.293,0.979-0.523
				c0.297-0.229,0.531-0.545,0.707-0.942c0.174-0.396,0.262-0.854,0.262-1.366V24.12c0-0.44,0.14-0.796,0.42-1.066
				c0.277-0.27,0.611-0.403,1.002-0.403c0.381,0,0.711,0.135,0.99,0.403c0.281,0.271,0.42,0.625,0.42,1.066v7.909
				c0,0.85-0.152,1.604-0.459,2.271c-0.307,0.665-0.729,1.206-1.268,1.624c-0.541,0.418-1.164,0.736-1.871,0.952
				c-0.707,0.218-1.477,0.325-2.307,0.325C100.28,37.2,99.515,37.093,98.813,36.88z"/>
			<path fill="#FFFFFF" d="M98.813,36.88c-0.7-0.213-1.321-0.53-1.86-0.948c-0.54-0.418-0.961-0.961-1.264-1.629
				c-0.302-0.668-0.454-1.426-0.454-2.273V24.12c0-0.44,0.139-0.796,0.414-1.066c0.277-0.27,0.609-0.403,0.998-0.403
				c0.388,0,0.722,0.135,1,0.403c0.281,0.271,0.42,0.625,0.42,1.066v7.839c0,0.514,0.089,0.97,0.263,1.366
				c0.174,0.397,0.405,0.713,0.696,0.942c0.289,0.229,0.609,0.404,0.962,0.523c0.352,0.117,0.726,0.177,1.12,0.177
				c0.396,0,0.771-0.06,1.125-0.177c0.354-0.119,0.682-0.293,0.979-0.523c0.297-0.229,0.531-0.545,0.707-0.942
				c0.174-0.396,0.262-0.854,0.262-1.366V24.12c0-0.44,0.14-0.796,0.42-1.066c0.277-0.27,0.611-0.403,1.002-0.403
				c0.381,0,0.711,0.135,0.99,0.403c0.281,0.271,0.42,0.625,0.42,1.066v7.909c0,0.85-0.152,1.604-0.459,2.271
				c-0.307,0.665-0.729,1.206-1.268,1.624c-0.541,0.418-1.164,0.736-1.871,0.952c-0.707,0.218-1.477,0.325-2.307,0.325
				C100.28,37.2,99.515,37.093,98.813,36.88z"/>
		</g>
		<g>
			<path fill="none" stroke="#544841" stroke-width="2" d="M116.491,35.049l-3.664-8.855v9.576c0,0.328-0.123,0.583-0.373,0.766
				c-0.252,0.182-0.551,0.271-0.898,0.271c-0.349,0-0.649-0.091-0.904-0.271c-0.252-0.183-0.379-0.438-0.379-0.766l-0.01-10.82
				c0-0.546,0.209-0.993,0.631-1.343c0.422-0.349,0.918-0.521,1.49-0.521c0.48,0,0.93,0.139,1.344,0.42
				c0.414,0.28,0.729,0.699,0.947,1.258l3.436,8.203v3.446C117.372,36.409,116.832,35.957,116.491,35.049z M118.12,32.965
				l3.443-8.203c0.219-0.559,0.533-0.979,0.949-1.258c0.414-0.281,0.86-0.42,1.342-0.42c0.565,0,1.061,0.174,1.479,0.521
				c0.422,0.35,0.633,0.797,0.633,1.343v10.82c0,0.328-0.127,0.583-0.379,0.766c-0.254,0.182-0.555,0.271-0.903,0.271
				c-0.35,0-0.648-0.091-0.902-0.271c-0.252-0.183-0.381-0.438-0.381-0.766v-9.576l-3.652,8.855
				c-0.355,0.908-0.898,1.362-1.629,1.362V32.965L118.12,32.965z"/>
			<path fill="#FFFFFF" d="M116.491,35.049l-3.664-8.855v9.576c0,0.328-0.123,0.583-0.373,0.766
				c-0.252,0.182-0.551,0.271-0.898,0.271c-0.349,0-0.649-0.091-0.904-0.271c-0.252-0.183-0.379-0.438-0.379-0.766l-0.01-10.82
				c0-0.546,0.209-0.993,0.631-1.343c0.422-0.349,0.918-0.521,1.49-0.521c0.48,0,0.93,0.139,1.344,0.42
				c0.414,0.28,0.729,0.699,0.947,1.258l3.436,8.203v3.446C117.372,36.409,116.832,35.957,116.491,35.049z M118.12,32.965
				l3.443-8.203c0.219-0.559,0.533-0.979,0.949-1.258c0.414-0.281,0.86-0.42,1.342-0.42c0.565,0,1.061,0.174,1.479,0.521
				c0.422,0.35,0.633,0.797,0.633,1.343v10.82c0,0.328-0.127,0.583-0.379,0.766c-0.254,0.182-0.555,0.271-0.903,0.271
				c-0.35,0-0.648-0.091-0.902-0.271c-0.252-0.183-0.381-0.438-0.381-0.766v-9.576l-3.652,8.855
				c-0.355,0.908-0.898,1.362-1.629,1.362V32.965L118.12,32.965z"/>
		</g>
	</g>
	<g>
		<g>
			<path fill="none" stroke="#544841" stroke-width="2" d="M144.248,38.077l8.33-7.691l-8.33-7.688h2.258l8.33,7.688l-8.33,7.691
				H144.248z"/>
			<path fill="#FFFFFF" d="M144.248,38.077l8.33-7.691l-8.33-7.688h2.258l8.33,7.688l-8.33,7.691H144.248z"/>
		</g>
	</g>
</g>
</svg>
