<?xml version="1.0" encoding="utf-8"?>
<!-- Generator: Adobe Illustrator 14.0.0, SVG Export Plug-In . SVG Version: 6.00 Build 43363)  -->
<!DOCTYPE svg PUBLIC "-//W3C//DTD SVG 1.1//EN" "http://www.w3.org/Graphics/SVG/1.1/DTD/svg11.dtd">
<svg version="1.1" xmlns="http://www.w3.org/2000/svg" xmlns:xlink="http://www.w3.org/1999/xlink" x="0px" y="0px"
	 width="201.167px" height="61.25px" viewBox="0 0 201.167 61.25" enable-background="new 0 0 201.167 61.25" xml:space="preserve">
<g id="Layer_1">
	<g id="Layer_7">
		
			<linearGradient id="SVGID_1_" gradientUnits="userSpaceOnUse" x1="-727.2896" y1="791.3945" x2="-727.2896" y2="731.3955" gradientTransform="matrix(1 0 0 1 828 -730.75)">
			<stop  offset="0" style="stop-color:#4F433C"/>
			<stop  offset="1" style="stop-color:#66564D"/>
		</linearGradient>
		<path fill="url(#SVGID_1_)" stroke="#4D423C" d="M200.71,50.645c0,5.522-4.479,10-10,10h-180c-5.523,0-10-4.478-10-10v-40
			c0-5.523,4.477-10,10-10h180c5.521,0,10,4.477,10,10V50.645z"/>
		
			<linearGradient id="SVGID_2_" gradientUnits="userSpaceOnUse" x1="-727.4165" y1="791.3945" x2="-727.4165" y2="731.3945" gradientTransform="matrix(1 0 0 1 828 -730.75)">
			<stop  offset="0" style="stop-color:#594C45"/>
			<stop  offset="1" style="stop-color:#726158"/>
		</linearGradient>
		<path fill="url(#SVGID_2_)" stroke="#4D423C" d="M200.583,50.645c0,5.523-4.478,10-10,10h-180c-5.523,0-10-4.477-10-10v-40
			c0-5.523,4.477-10,10-10h180c5.522,0,10,4.477,10,10V50.645z"/>
		<g display="none">
			<g display="inline">
				<path fill="none" stroke="#544841" stroke-width="2" d="M56.452,36.652c-0.273-0.271-0.41-0.625-0.41-1.065V24.283
					c0-0.441,0.145-0.794,0.435-1.061s0.642-0.4,1.056-0.4h6.673c0.316,0,0.567,0.111,0.755,0.335
					c0.188,0.224,0.281,0.484,0.281,0.78s-0.093,0.557-0.281,0.78c-0.188,0.223-0.438,0.336-0.755,0.336h-5.331v3.593h5.044
					c0.316,0,0.568,0.109,0.755,0.326c0.188,0.217,0.282,0.474,0.282,0.771c0,0.302-0.093,0.561-0.276,0.775
					c-0.185,0.214-0.438,0.321-0.761,0.321h-5.044v4.748c0,0.44-0.142,0.796-0.424,1.065c-0.283,0.271-0.619,0.406-1.007,0.406
					C57.055,37.059,56.725,36.923,56.452,36.652z"/>
				<path fill="#FFFFFF" d="M56.452,36.652c-0.273-0.271-0.41-0.625-0.41-1.065V24.283c0-0.441,0.145-0.794,0.435-1.061
					s0.642-0.4,1.056-0.4h6.673c0.316,0,0.567,0.111,0.755,0.335c0.188,0.224,0.281,0.484,0.281,0.78s-0.093,0.557-0.281,0.78
					c-0.188,0.223-0.438,0.336-0.755,0.336h-5.331v3.593h5.044c0.316,0,0.568,0.109,0.755,0.326
					c0.188,0.217,0.282,0.474,0.282,0.771c0,0.302-0.093,0.561-0.276,0.775c-0.185,0.214-0.438,0.321-0.761,0.321h-5.044v4.748
					c0,0.44-0.142,0.796-0.424,1.065c-0.283,0.271-0.619,0.406-1.007,0.406C57.055,37.059,56.725,36.923,56.452,36.652z"/>
			</g>
			<g display="inline">
				<path fill="none" stroke="#544841" stroke-width="2" d="M68.807,35.331C67.603,34.007,67,32.188,67,29.87
					c0-2.315,0.603-4.137,1.807-5.463c1.204-1.326,2.909-1.989,5.113-1.989c2.218,0,3.926,0.663,5.124,1.989
					c1.198,1.327,1.796,3.148,1.796,5.463c0,2.317-0.599,4.137-1.796,5.46c-1.198,1.322-2.906,1.982-5.124,1.982
					C71.715,37.314,70.011,36.652,68.807,35.331z M76.882,33.734c0.652-0.897,0.978-2.187,0.978-3.864
					c0-1.671-0.325-2.957-0.973-3.859c-0.648-0.901-1.637-1.353-2.967-1.353c-1.323,0-2.31,0.453-2.961,1.358
					c-0.652,0.905-0.978,2.189-0.978,3.854c0,1.68,0.324,2.967,0.972,3.864c0.648,0.898,1.638,1.349,2.966,1.349
					C75.243,35.083,76.23,34.634,76.882,33.734z"/>
				<path fill="#FFFFFF" d="M68.807,35.331C67.603,34.007,67,32.188,67,29.87c0-2.315,0.603-4.137,1.807-5.463
					c1.204-1.326,2.909-1.989,5.113-1.989c2.218,0,3.926,0.663,5.124,1.989c1.198,1.327,1.796,3.148,1.796,5.463
					c0,2.317-0.599,4.137-1.796,5.46c-1.198,1.322-2.906,1.982-5.124,1.982C71.715,37.314,70.011,36.652,68.807,35.331z
					 M76.882,33.734c0.652-0.897,0.978-2.187,0.978-3.864c0-1.671-0.325-2.957-0.973-3.859c-0.648-0.901-1.637-1.353-2.967-1.353
					c-1.323,0-2.31,0.453-2.961,1.358c-0.652,0.905-0.978,2.189-0.978,3.854c0,1.68,0.324,2.967,0.972,3.864
					c0.648,0.898,1.638,1.349,2.966,1.349C75.243,35.083,76.23,34.634,76.882,33.734z"/>
			</g>
			<g display="inline">
				<path fill="none" stroke="#544841" stroke-width="2" d="M83.94,36.658c-0.277-0.26-0.414-0.617-0.414-1.071V24.264
					c0-0.421,0.146-0.769,0.439-1.041c0.292-0.273,0.646-0.41,1.061-0.41h4.353c3.469,0,5.203,1.207,5.203,3.622
					c0,0.843-0.266,1.555-0.8,2.138c-0.533,0.583-1.336,0.959-2.409,1.131v0.039c0.915,0.177,1.598,0.538,2.048,1.082
					c0.451,0.542,0.729,1.28,0.834,2.215l0.276,2.331c0.006,0.059,0.01,0.145,0.01,0.256c0,0.447-0.127,0.797-0.379,1.046
					c-0.254,0.251-0.572,0.375-0.953,0.375c-0.396,0-0.734-0.123-1.018-0.37c-0.283-0.246-0.447-0.609-0.493-1.091l-0.247-2.28
					c-0.046-0.439-0.112-0.8-0.198-1.076c-0.085-0.274-0.221-0.515-0.405-0.715c-0.184-0.201-0.425-0.345-0.725-0.43
					c-0.299-0.085-0.68-0.128-1.14-0.128h-0.04h-2.586v4.63c0,0.461-0.14,0.819-0.42,1.076c-0.279,0.257-0.613,0.385-1.001,0.385
					S84.217,36.918,83.94,36.658z M88.373,28.854c0.276,0,0.508-0.003,0.696-0.01c0.188-0.005,0.408-0.024,0.662-0.054
					c0.253-0.03,0.467-0.071,0.642-0.123c0.174-0.054,0.355-0.129,0.543-0.227c0.188-0.099,0.337-0.218,0.449-0.356
					c0.112-0.138,0.204-0.312,0.276-0.523c0.072-0.21,0.108-0.451,0.108-0.72c0-0.257-0.029-0.485-0.088-0.687
					c-0.06-0.201-0.134-0.367-0.222-0.499c-0.089-0.132-0.212-0.243-0.371-0.335c-0.158-0.092-0.304-0.163-0.439-0.211
					c-0.134-0.05-0.311-0.086-0.528-0.109c-0.217-0.023-0.401-0.038-0.553-0.044c-0.151-0.006-0.345-0.01-0.582-0.01h-0.207H86.35
					v3.909L88.373,28.854L88.373,28.854z"/>
				<path fill="#FFFFFF" d="M83.94,36.658c-0.277-0.26-0.414-0.617-0.414-1.071V24.264c0-0.421,0.146-0.769,0.439-1.041
					c0.292-0.273,0.646-0.41,1.061-0.41h4.353c3.469,0,5.203,1.207,5.203,3.622c0,0.843-0.266,1.555-0.8,2.138
					c-0.533,0.583-1.336,0.959-2.409,1.131v0.039c0.915,0.177,1.598,0.538,2.048,1.082c0.451,0.542,0.729,1.28,0.834,2.215
					l0.276,2.331c0.006,0.059,0.01,0.145,0.01,0.256c0,0.447-0.127,0.797-0.379,1.046c-0.254,0.251-0.572,0.375-0.953,0.375
					c-0.396,0-0.734-0.123-1.018-0.37c-0.283-0.246-0.447-0.609-0.493-1.091l-0.247-2.28c-0.046-0.439-0.112-0.8-0.198-1.076
					c-0.085-0.274-0.221-0.515-0.405-0.715c-0.184-0.201-0.425-0.345-0.725-0.43c-0.299-0.085-0.68-0.128-1.14-0.128h-0.04h-2.586
					v4.63c0,0.461-0.14,0.819-0.42,1.076c-0.279,0.257-0.613,0.385-1.001,0.385S84.217,36.918,83.94,36.658z M88.373,28.854
					c0.276,0,0.508-0.003,0.696-0.01c0.188-0.005,0.408-0.024,0.662-0.054c0.253-0.03,0.467-0.071,0.642-0.123
					c0.174-0.054,0.355-0.129,0.543-0.227c0.188-0.099,0.337-0.218,0.449-0.356c0.112-0.138,0.204-0.312,0.276-0.523
					c0.072-0.21,0.108-0.451,0.108-0.72c0-0.257-0.029-0.485-0.088-0.687c-0.06-0.201-0.134-0.367-0.222-0.499
					c-0.089-0.132-0.212-0.243-0.371-0.335c-0.158-0.092-0.304-0.163-0.439-0.211c-0.134-0.05-0.311-0.086-0.528-0.109
					c-0.217-0.023-0.401-0.038-0.553-0.044c-0.151-0.006-0.345-0.01-0.582-0.01h-0.207H86.35v3.909L88.373,28.854L88.373,28.854z"/>
			</g>
			<g display="inline">
				<path fill="none" stroke="#544841" stroke-width="2" d="M101.024,36.994c-0.701-0.213-1.322-0.53-1.861-0.948
					c-0.54-0.418-0.961-0.961-1.264-1.629c-0.302-0.668-0.454-1.426-0.454-2.274v-7.909c0-0.44,0.139-0.796,0.414-1.066
					c0.277-0.27,0.609-0.404,0.998-0.404c0.388,0,0.722,0.135,1.001,0.404c0.281,0.27,0.42,0.625,0.42,1.066v7.839
					c0,0.514,0.088,0.97,0.262,1.366c0.174,0.397,0.406,0.713,0.696,0.942s0.61,0.404,0.963,0.523
					c0.352,0.116,0.725,0.177,1.12,0.177s0.771-0.061,1.125-0.177c0.354-0.119,0.681-0.293,0.978-0.523
					c0.297-0.229,0.531-0.545,0.707-0.942c0.174-0.396,0.262-0.854,0.262-1.366v-7.839c0-0.44,0.141-0.796,0.42-1.066
					c0.277-0.27,0.611-0.404,1.002-0.404c0.381,0,0.712,0.135,0.99,0.404c0.281,0.27,0.421,0.625,0.421,1.066v7.909
					c0,0.851-0.152,1.604-0.459,2.271c-0.308,0.665-0.729,1.206-1.269,1.624c-0.541,0.418-1.164,0.735-1.871,0.952
					c-0.707,0.218-1.477,0.324-2.306,0.324S101.725,37.207,101.024,36.994z"/>
				<path fill="#FFFFFF" d="M101.024,36.994c-0.701-0.213-1.322-0.53-1.861-0.948c-0.54-0.418-0.961-0.961-1.264-1.629
					c-0.302-0.668-0.454-1.426-0.454-2.274v-7.909c0-0.44,0.139-0.796,0.414-1.066c0.277-0.27,0.609-0.404,0.998-0.404
					c0.388,0,0.722,0.135,1.001,0.404c0.281,0.27,0.42,0.625,0.42,1.066v7.839c0,0.514,0.088,0.97,0.262,1.366
					c0.174,0.397,0.406,0.713,0.696,0.942s0.61,0.404,0.963,0.523c0.352,0.116,0.725,0.177,1.12,0.177s0.771-0.061,1.125-0.177
					c0.354-0.119,0.681-0.293,0.978-0.523c0.297-0.229,0.531-0.545,0.707-0.942c0.174-0.396,0.262-0.854,0.262-1.366v-7.839
					c0-0.44,0.141-0.796,0.42-1.066c0.277-0.27,0.611-0.404,1.002-0.404c0.381,0,0.712,0.135,0.99,0.404
					c0.281,0.27,0.421,0.625,0.421,1.066v7.909c0,0.851-0.152,1.604-0.459,2.271c-0.308,0.665-0.729,1.206-1.269,1.624
					c-0.541,0.418-1.164,0.735-1.871,0.952c-0.707,0.218-1.477,0.324-2.306,0.324S101.725,37.207,101.024,36.994z"/>
			</g>
			<g display="inline">
				<path fill="none" stroke="#544841" stroke-width="2" d="M118.701,35.163l-3.664-8.856v9.577c0,0.328-0.123,0.583-0.373,0.765
					c-0.252,0.183-0.551,0.271-0.898,0.271s-0.648-0.091-0.904-0.271c-0.252-0.182-0.379-0.437-0.379-0.765l-0.01-10.821
					c0-0.546,0.21-0.993,0.632-1.342c0.422-0.349,0.918-0.521,1.489-0.521c0.48,0,0.93,0.139,1.344,0.42
					c0.415,0.28,0.729,0.699,0.947,1.258l3.437,8.203v3.445C119.582,36.523,119.042,36.071,118.701,35.163z M120.33,33.079
					l3.444-8.203c0.218-0.559,0.533-0.979,0.948-1.258c0.415-0.281,0.861-0.42,1.343-0.42c0.565,0,1.06,0.174,1.479,0.521
					c0.422,0.349,0.633,0.796,0.633,1.342v10.821c0,0.328-0.127,0.583-0.379,0.766c-0.254,0.182-0.555,0.271-0.904,0.271
					s-0.648-0.091-0.902-0.271c-0.252-0.183-0.381-0.438-0.381-0.766v-9.577l-3.652,8.856c-0.354,0.908-0.897,1.361-1.629,1.361
					V33.079L120.33,33.079z"/>
				<path fill="#FFFFFF" d="M118.701,35.163l-3.664-8.856v9.577c0,0.328-0.123,0.583-0.373,0.765
					c-0.252,0.183-0.551,0.271-0.898,0.271s-0.648-0.091-0.904-0.271c-0.252-0.182-0.379-0.437-0.379-0.765l-0.01-10.821
					c0-0.546,0.21-0.993,0.632-1.342c0.422-0.349,0.918-0.521,1.489-0.521c0.48,0,0.93,0.139,1.344,0.42
					c0.415,0.28,0.729,0.699,0.947,1.258l3.437,8.203v3.445C119.582,36.523,119.042,36.071,118.701,35.163z M120.33,33.079
					l3.444-8.203c0.218-0.559,0.533-0.979,0.948-1.258c0.415-0.281,0.861-0.42,1.343-0.42c0.565,0,1.06,0.174,1.479,0.521
					c0.422,0.349,0.633,0.796,0.633,1.342v10.821c0,0.328-0.127,0.583-0.379,0.766c-0.254,0.182-0.555,0.271-0.904,0.271
					s-0.648-0.091-0.902-0.271c-0.252-0.183-0.381-0.438-0.381-0.766v-9.577l-3.652,8.856c-0.354,0.908-0.897,1.361-1.629,1.361
					V33.079L120.33,33.079z"/>
			</g>
		</g>
		<g id="Layer_3">
		</g>
		<g>
			<g>
				<path fill="none" stroke="#544841" stroke-width="2" d="M146.458,38.191l8.33-7.691l-8.33-7.689h2.258l8.33,7.689l-8.33,7.691
					H146.458z"/>
				<path fill="#FFFFFF" d="M146.458,38.191l8.33-7.691l-8.33-7.689h2.258l8.33,7.689l-8.33,7.691H146.458z"/>
			</g>
		</g>
		<g>
			<g>
				<path fill="none" stroke="#544841" stroke-width="3" d="M56.368,38.079c-0.314-0.312-0.472-0.722-0.472-1.229V23.816
					c0-0.509,0.167-0.917,0.5-1.224c0.334-0.308,0.74-0.461,1.219-0.461h7.695c0.364,0,0.654,0.129,0.871,0.387
					c0.216,0.258,0.324,0.559,0.324,0.899c0,0.342-0.108,0.642-0.324,0.899c-0.216,0.258-0.507,0.387-0.871,0.387h-6.148v4.144
					h5.817c0.364,0,0.654,0.125,0.871,0.375c0.216,0.251,0.324,0.547,0.324,0.888c0,0.349-0.106,0.647-0.318,0.893
					c-0.213,0.247-0.505,0.37-0.877,0.37h-5.817v5.477c0,0.508-0.163,0.918-0.489,1.229c-0.327,0.312-0.713,0.467-1.162,0.467
					C57.065,38.546,56.683,38.391,56.368,38.079z"/>
				<path fill="#FFFFFF" d="M56.368,38.079c-0.314-0.312-0.472-0.722-0.472-1.229V23.816c0-0.509,0.167-0.917,0.5-1.224
					c0.334-0.308,0.74-0.461,1.219-0.461h7.695c0.364,0,0.654,0.129,0.871,0.387c0.216,0.258,0.324,0.559,0.324,0.899
					c0,0.342-0.108,0.642-0.324,0.899c-0.216,0.258-0.507,0.387-0.871,0.387h-6.148v4.144h5.817c0.364,0,0.654,0.125,0.871,0.375
					c0.216,0.251,0.324,0.547,0.324,0.888c0,0.349-0.106,0.647-0.318,0.893c-0.213,0.247-0.505,0.37-0.877,0.37h-5.817v5.477
					c0,0.508-0.163,0.918-0.489,1.229c-0.327,0.312-0.713,0.467-1.162,0.467C57.065,38.546,56.683,38.391,56.368,38.079z"/>
			</g>
			<g>
				<path fill="none" stroke="#544841" stroke-width="3" d="M79.357,34.768h-7.263l-1.024,2.731
					c-0.129,0.373-0.327,0.651-0.592,0.836c-0.266,0.187-0.562,0.279-0.888,0.279c-0.41,0-0.774-0.138-1.093-0.41
					c-0.319-0.272-0.478-0.619-0.478-1.036c0-0.189,0.038-0.384,0.114-0.581l4.997-12.511c0.319-0.842,0.685-1.407,1.099-1.696
					c0.414-0.288,0.913-0.433,1.497-0.433s1.083,0.145,1.497,0.433c0.414,0.289,0.78,0.854,1.098,1.696l4.998,12.511
					c0.076,0.197,0.114,0.392,0.114,0.581c0,0.417-0.16,0.764-0.479,1.036c-0.318,0.272-0.683,0.41-1.093,0.41
					c-0.326,0-0.623-0.093-0.888-0.279c-0.266-0.187-0.463-0.464-0.592-0.836L79.357,34.768z M75.726,25.068l-2.812,7.502h5.624
					L75.726,25.068z"/>
				<path fill="#FFFFFF" d="M79.357,34.768h-7.263l-1.024,2.731c-0.129,0.373-0.327,0.651-0.592,0.836
					c-0.266,0.187-0.562,0.279-0.888,0.279c-0.41,0-0.774-0.138-1.093-0.41c-0.319-0.272-0.478-0.619-0.478-1.036
					c0-0.189,0.038-0.384,0.114-0.581l4.997-12.511c0.319-0.842,0.685-1.407,1.099-1.696c0.414-0.288,0.913-0.433,1.497-0.433
					s1.083,0.145,1.497,0.433c0.414,0.289,0.78,0.854,1.098,1.696l4.998,12.511c0.076,0.197,0.114,0.392,0.114,0.581
					c0,0.417-0.16,0.764-0.479,1.036c-0.318,0.272-0.683,0.41-1.093,0.41c-0.326,0-0.623-0.093-0.888-0.279
					c-0.266-0.187-0.463-0.464-0.592-0.836L79.357,34.768z M75.726,25.068l-2.812,7.502h5.624L75.726,25.068z"/>
			</g>
			<g>
				<path fill="none" stroke="#544841" stroke-width="3" d="M87.326,36.554c-1.389-1.526-2.083-3.624-2.083-6.295
					s0.694-4.771,2.083-6.301c1.389-1.529,3.354-2.294,5.897-2.294c2.558,0,4.527,0.765,5.908,2.294s2.072,3.629,2.072,6.301
					c0,2.673-0.691,4.771-2.072,6.295c-1.381,1.525-3.35,2.288-5.908,2.288C90.68,38.842,88.715,38.079,87.326,36.554z
					 M96.638,34.715c0.751-1.035,1.127-2.521,1.127-4.456c0-1.928-0.374-3.412-1.121-4.451c-0.748-1.04-1.888-1.56-3.421-1.56
					c-1.525,0-2.664,0.522-3.416,1.565c-0.751,1.043-1.126,2.525-1.126,4.445c0,1.936,0.374,3.421,1.121,4.456
					c0.748,1.036,1.888,1.554,3.421,1.554C94.748,36.27,95.886,35.751,96.638,34.715z M97.912,40.925l-5.6-2.914l3.574-0.934
					l3.051,1.765c0.47,0.258,0.706,0.6,0.706,1.025c0,0.333-0.112,0.621-0.335,0.859c-0.224,0.237-0.488,0.357-0.792,0.357
					C98.303,41.084,98.102,41.032,97.912,40.925z"/>
				<path fill="#FFFFFF" d="M87.326,36.554c-1.389-1.526-2.083-3.624-2.083-6.295s0.694-4.771,2.083-6.301
					c1.389-1.529,3.354-2.294,5.897-2.294c2.558,0,4.527,0.765,5.908,2.294s2.072,3.629,2.072,6.301
					c0,2.673-0.691,4.771-2.072,6.295c-1.381,1.525-3.35,2.288-5.908,2.288C90.68,38.842,88.715,38.079,87.326,36.554z
					 M96.638,34.715c0.751-1.035,1.127-2.521,1.127-4.456c0-1.928-0.374-3.412-1.121-4.451c-0.748-1.04-1.888-1.56-3.421-1.56
					c-1.525,0-2.664,0.522-3.416,1.565c-0.751,1.043-1.126,2.525-1.126,4.445c0,1.936,0.374,3.421,1.121,4.456
					c0.748,1.036,1.888,1.554,3.421,1.554C94.748,36.27,95.886,35.751,96.638,34.715z M97.912,40.925l-5.6-2.914l3.574-0.934
					l3.051,1.765c0.47,0.258,0.706,0.6,0.706,1.025c0,0.333-0.112,0.621-0.335,0.859c-0.224,0.237-0.488,0.357-0.792,0.357
					C98.303,41.084,98.102,41.032,97.912,40.925z"/>
			</g>
			<g>
				<path fill="none" stroke="#544841" stroke-width="3" d="M103.501,36.634c0-0.25,0.086-0.471,0.256-0.661
					c0.172-0.188,0.39-0.285,0.656-0.285c0.188,0,0.387,0.059,0.592,0.172c0.334,0.189,0.602,0.334,0.802,0.434
					c0.202,0.1,0.526,0.211,0.974,0.336c0.448,0.125,0.895,0.188,1.344,0.188c0.439,0,0.832-0.043,1.178-0.131
					s0.642-0.246,0.889-0.479c0.246-0.23,0.37-0.529,0.37-0.893c0-0.646-0.526-1.099-1.583-1.355l-1.773-0.455
					c-0.539-0.145-0.977-0.273-1.311-0.387c-0.334-0.114-0.672-0.262-1.014-0.438c-0.342-0.179-0.604-0.375-0.787-0.592
					c-0.182-0.217-0.328-0.485-0.442-0.808c-0.112-0.323-0.17-0.701-0.17-1.133c0-1.04,0.417-1.839,1.252-2.396
					c0.834-0.557,1.933-0.837,3.29-0.837c1.312,0,2.559,0.285,3.732,0.854c0.41,0.197,0.615,0.5,0.615,0.91
					c0,0.243-0.078,0.45-0.232,0.621c-0.155,0.171-0.362,0.256-0.621,0.256c-0.129,0-0.275-0.03-0.443-0.091
					c-0.009,0-0.092-0.03-0.25-0.091c-0.158-0.06-0.271-0.1-0.336-0.12c-0.062-0.019-0.186-0.057-0.357-0.113
					c-0.174-0.057-0.324-0.099-0.449-0.125c-0.125-0.027-0.275-0.058-0.45-0.092c-0.174-0.034-0.347-0.059-0.519-0.074
					c-0.17-0.015-0.342-0.023-0.519-0.023c-0.584,0-1.082,0.097-1.489,0.291c-0.41,0.193-0.615,0.492-0.615,0.893
					c0,0.357,0.111,0.621,0.336,0.792c0.224,0.171,0.65,0.329,1.279,0.473l1.754,0.443c1.221,0.305,2.113,0.717,2.681,1.241
					c0.565,0.522,0.848,1.249,0.848,2.175c0,1.161-0.427,2.049-1.28,2.664c-0.854,0.614-1.963,0.921-3.33,0.921
					c-1.768,0-3.256-0.44-4.461-1.319C103.638,37.199,103.501,36.943,103.501,36.634z"/>
				<path fill="#FFFFFF" d="M103.501,36.634c0-0.25,0.086-0.471,0.256-0.661c0.172-0.188,0.39-0.285,0.656-0.285
					c0.188,0,0.387,0.059,0.592,0.172c0.334,0.189,0.602,0.334,0.802,0.434c0.202,0.1,0.526,0.211,0.974,0.336
					c0.448,0.125,0.895,0.188,1.344,0.188c0.439,0,0.832-0.043,1.178-0.131s0.642-0.246,0.889-0.479
					c0.246-0.23,0.37-0.529,0.37-0.893c0-0.646-0.526-1.099-1.583-1.355l-1.773-0.455c-0.539-0.145-0.977-0.273-1.311-0.387
					c-0.334-0.114-0.672-0.262-1.014-0.438c-0.342-0.179-0.604-0.375-0.787-0.592c-0.182-0.217-0.328-0.485-0.442-0.808
					c-0.112-0.323-0.17-0.701-0.17-1.133c0-1.04,0.417-1.839,1.252-2.396c0.834-0.557,1.933-0.837,3.29-0.837
					c1.312,0,2.559,0.285,3.732,0.854c0.41,0.197,0.615,0.5,0.615,0.91c0,0.243-0.078,0.45-0.232,0.621
					c-0.155,0.171-0.362,0.256-0.621,0.256c-0.129,0-0.275-0.03-0.443-0.091c-0.009,0-0.092-0.03-0.25-0.091
					c-0.158-0.06-0.271-0.1-0.336-0.12c-0.062-0.019-0.186-0.057-0.357-0.113c-0.174-0.057-0.324-0.099-0.449-0.125
					c-0.125-0.027-0.275-0.058-0.45-0.092c-0.174-0.034-0.347-0.059-0.519-0.074c-0.17-0.015-0.342-0.023-0.519-0.023
					c-0.584,0-1.082,0.097-1.489,0.291c-0.41,0.193-0.615,0.492-0.615,0.893c0,0.357,0.111,0.621,0.336,0.792
					c0.224,0.171,0.65,0.329,1.279,0.473l1.754,0.443c1.221,0.305,2.113,0.717,2.681,1.241c0.565,0.522,0.848,1.249,0.848,2.175
					c0,1.161-0.427,2.049-1.28,2.664c-0.854,0.614-1.963,0.921-3.33,0.921c-1.768,0-3.256-0.44-4.461-1.319
					C103.638,37.199,103.501,36.943,103.501,36.634z"/>
			</g>
		</g>
	</g>
</g>
<g id="Layer_2" display="none">
	<g id="Layer_6" display="inline">
		<g display="none">
			<g display="inline">
				<path fill="none" stroke="#544841" stroke-width="2" d="M35.764,40.223c-0.273-0.27-0.41-0.625-0.41-1.064V27.854
					c0-0.44,0.145-0.794,0.435-1.061c0.29-0.268,0.642-0.4,1.056-0.4h6.673c0.316,0,0.567,0.111,0.755,0.335
					c0.188,0.225,0.281,0.484,0.281,0.78s-0.093,0.557-0.281,0.78c-0.188,0.223-0.438,0.336-0.755,0.336h-5.331v3.592h5.044
					c0.316,0,0.568,0.109,0.755,0.326c0.188,0.217,0.282,0.475,0.282,0.771c0,0.303-0.093,0.561-0.276,0.773
					c-0.185,0.215-0.438,0.322-0.761,0.322h-5.044v4.748c0,0.439-0.142,0.795-0.424,1.064c-0.283,0.27-0.619,0.406-1.007,0.406
					C36.367,40.629,36.037,40.494,35.764,40.223z"/>
				<path fill="#FFFFFF" d="M35.764,40.223c-0.273-0.27-0.41-0.625-0.41-1.064V27.854c0-0.44,0.145-0.794,0.435-1.061
					c0.29-0.268,0.642-0.4,1.056-0.4h6.673c0.316,0,0.567,0.111,0.755,0.335c0.188,0.225,0.281,0.484,0.281,0.78
					s-0.093,0.557-0.281,0.78c-0.188,0.223-0.438,0.336-0.755,0.336h-5.331v3.592h5.044c0.316,0,0.568,0.109,0.755,0.326
					c0.188,0.217,0.282,0.475,0.282,0.771c0,0.303-0.093,0.561-0.276,0.773c-0.185,0.215-0.438,0.322-0.761,0.322h-5.044v4.748
					c0,0.439-0.142,0.795-0.424,1.064c-0.283,0.27-0.619,0.406-1.007,0.406C36.367,40.629,36.037,40.494,35.764,40.223z"/>
			</g>
			<g display="inline">
				<path fill="none" stroke="#544841" stroke-width="2" d="M48.119,38.902c-1.204-1.324-1.807-3.145-1.807-5.461
					c0-2.314,0.603-4.137,1.807-5.462c1.204-1.326,2.909-1.988,5.112-1.988c2.219,0,3.927,0.662,5.125,1.988
					c1.197,1.327,1.795,3.148,1.795,5.462c0,2.318-0.598,4.137-1.795,5.461c-1.198,1.32-2.906,1.982-5.125,1.982
					C51.026,40.885,49.321,40.223,48.119,38.902z M56.192,37.305c0.652-0.896,0.979-2.186,0.979-3.863
					c0-1.67-0.324-2.957-0.973-3.859c-0.648-0.901-1.637-1.354-2.967-1.354c-1.323,0-2.311,0.453-2.961,1.358
					c-0.652,0.905-0.979,2.188-0.979,3.854c0,1.682,0.324,2.967,0.973,3.863c0.647,0.9,1.637,1.35,2.965,1.35
					C54.555,38.654,55.542,38.205,56.192,37.305z"/>
				<path fill="#FFFFFF" d="M48.119,38.902c-1.204-1.324-1.807-3.145-1.807-5.461c0-2.314,0.603-4.137,1.807-5.462
					c1.204-1.326,2.909-1.988,5.112-1.988c2.219,0,3.927,0.662,5.125,1.988c1.197,1.327,1.795,3.148,1.795,5.462
					c0,2.318-0.598,4.137-1.795,5.461c-1.198,1.32-2.906,1.982-5.125,1.982C51.026,40.885,49.321,40.223,48.119,38.902z
					 M56.192,37.305c0.652-0.896,0.979-2.186,0.979-3.863c0-1.67-0.324-2.957-0.973-3.859c-0.648-0.901-1.637-1.354-2.967-1.354
					c-1.323,0-2.311,0.453-2.961,1.358c-0.652,0.905-0.979,2.188-0.979,3.854c0,1.682,0.324,2.967,0.973,3.863
					c0.647,0.9,1.637,1.35,2.965,1.35C54.555,38.654,55.542,38.205,56.192,37.305z"/>
			</g>
			<g display="inline">
				<path fill="none" stroke="#544841" stroke-width="2" d="M63.25,40.229c-0.277-0.26-0.414-0.617-0.414-1.07V27.835
					c0-0.421,0.146-0.769,0.439-1.041c0.291-0.272,0.646-0.41,1.061-0.41h4.353c3.47,0,5.203,1.207,5.203,3.622
					c0,0.843-0.266,1.554-0.8,2.138c-0.532,0.582-1.336,0.957-2.409,1.129v0.039c0.916,0.178,1.598,0.539,2.049,1.084
					c0.451,0.541,0.729,1.279,0.834,2.215l0.275,2.33c0.006,0.059,0.01,0.145,0.01,0.256c0,0.447-0.127,0.797-0.379,1.047
					c-0.254,0.25-0.572,0.375-0.953,0.375c-0.396,0-0.733-0.123-1.018-0.371c-0.283-0.246-0.447-0.609-0.493-1.09l-0.247-2.281
					c-0.046-0.439-0.111-0.799-0.197-1.076c-0.086-0.275-0.222-0.514-0.405-0.715c-0.185-0.201-0.425-0.344-0.726-0.43
					c-0.299-0.084-0.68-0.127-1.14-0.127h-0.04h-2.586v4.629c0,0.461-0.14,0.82-0.42,1.076c-0.278,0.258-0.612,0.385-1.001,0.385
					S63.528,40.488,63.25,40.229z M67.685,32.426c0.275,0,0.508-0.004,0.695-0.01s0.408-0.025,0.662-0.055
					c0.253-0.029,0.467-0.07,0.643-0.123c0.174-0.055,0.354-0.129,0.543-0.227c0.188-0.1,0.336-0.219,0.449-0.357
					c0.111-0.137,0.203-0.311,0.275-0.521c0.072-0.21,0.107-0.452,0.107-0.72c0-0.258-0.029-0.485-0.088-0.688
					c-0.06-0.201-0.134-0.367-0.222-0.499c-0.089-0.132-0.212-0.243-0.371-0.335c-0.157-0.092-0.304-0.163-0.438-0.211
					c-0.135-0.05-0.312-0.086-0.528-0.109c-0.218-0.022-0.401-0.037-0.554-0.043c-0.15-0.006-0.344-0.011-0.582-0.011H68.07h-2.408
					v3.909H67.685L67.685,32.426z"/>
				<path fill="#FFFFFF" d="M63.25,40.229c-0.277-0.26-0.414-0.617-0.414-1.07V27.835c0-0.421,0.146-0.769,0.439-1.041
					c0.291-0.272,0.646-0.41,1.061-0.41h4.353c3.47,0,5.203,1.207,5.203,3.622c0,0.843-0.266,1.554-0.8,2.138
					c-0.532,0.582-1.336,0.957-2.409,1.129v0.039c0.916,0.178,1.598,0.539,2.049,1.084c0.451,0.541,0.729,1.279,0.834,2.215
					l0.275,2.33c0.006,0.059,0.01,0.145,0.01,0.256c0,0.447-0.127,0.797-0.379,1.047c-0.254,0.25-0.572,0.375-0.953,0.375
					c-0.396,0-0.733-0.123-1.018-0.371c-0.283-0.246-0.447-0.609-0.493-1.09l-0.247-2.281c-0.046-0.439-0.111-0.799-0.197-1.076
					c-0.086-0.275-0.222-0.514-0.405-0.715c-0.185-0.201-0.425-0.344-0.726-0.43c-0.299-0.084-0.68-0.127-1.14-0.127h-0.04h-2.586
					v4.629c0,0.461-0.14,0.82-0.42,1.076c-0.278,0.258-0.612,0.385-1.001,0.385S63.528,40.488,63.25,40.229z M67.685,32.426
					c0.275,0,0.508-0.004,0.695-0.01s0.408-0.025,0.662-0.055c0.253-0.029,0.467-0.07,0.643-0.123
					c0.174-0.055,0.354-0.129,0.543-0.227c0.188-0.1,0.336-0.219,0.449-0.357c0.111-0.137,0.203-0.311,0.275-0.521
					c0.072-0.21,0.107-0.452,0.107-0.72c0-0.258-0.029-0.485-0.088-0.688c-0.06-0.201-0.134-0.367-0.222-0.499
					c-0.089-0.132-0.212-0.243-0.371-0.335c-0.157-0.092-0.304-0.163-0.438-0.211c-0.135-0.05-0.312-0.086-0.528-0.109
					c-0.218-0.022-0.401-0.037-0.554-0.043c-0.15-0.006-0.344-0.011-0.582-0.011H68.07h-2.408v3.909H67.685L67.685,32.426z"/>
			</g>
			<g display="inline">
				<path fill="none" stroke="#544841" stroke-width="2" d="M80.334,40.564c-0.701-0.213-1.321-0.527-1.86-0.947
					c-0.541-0.418-0.961-0.961-1.265-1.629c-0.302-0.668-0.454-1.426-0.454-2.273v-7.909c0-0.44,0.139-0.796,0.414-1.065
					c0.277-0.271,0.609-0.404,0.998-0.404s0.723,0.135,1.001,0.404c0.281,0.27,0.42,0.625,0.42,1.065v7.84
					c0,0.514,0.089,0.969,0.263,1.365s0.405,0.713,0.695,0.943c0.29,0.229,0.609,0.402,0.962,0.521
					c0.353,0.117,0.728,0.178,1.122,0.178s0.77-0.061,1.125-0.178c0.354-0.119,0.68-0.293,0.977-0.521
					c0.297-0.23,0.531-0.547,0.707-0.943c0.174-0.396,0.263-0.855,0.263-1.365v-7.84c0-0.44,0.139-0.796,0.42-1.065
					c0.276-0.271,0.61-0.404,1.002-0.404c0.381,0,0.711,0.135,0.989,0.404c0.281,0.27,0.421,0.625,0.421,1.065v7.909
					c0,0.85-0.152,1.604-0.46,2.27c-0.307,0.664-0.729,1.205-1.268,1.623c-0.541,0.418-1.164,0.736-1.871,0.953
					s-1.477,0.324-2.305,0.324S81.037,40.777,80.334,40.564z"/>
				<path fill="#FFFFFF" d="M80.334,40.564c-0.701-0.213-1.321-0.527-1.86-0.947c-0.541-0.418-0.961-0.961-1.265-1.629
					c-0.302-0.668-0.454-1.426-0.454-2.273v-7.909c0-0.44,0.139-0.796,0.414-1.065c0.277-0.271,0.609-0.404,0.998-0.404
					s0.723,0.135,1.001,0.404c0.281,0.27,0.42,0.625,0.42,1.065v7.84c0,0.514,0.089,0.969,0.263,1.365s0.405,0.713,0.695,0.943
					c0.29,0.229,0.609,0.402,0.962,0.521c0.353,0.117,0.728,0.178,1.122,0.178s0.77-0.061,1.125-0.178
					c0.354-0.119,0.68-0.293,0.977-0.521c0.297-0.23,0.531-0.547,0.707-0.943c0.174-0.396,0.263-0.855,0.263-1.365v-7.84
					c0-0.44,0.139-0.796,0.42-1.065c0.276-0.271,0.61-0.404,1.002-0.404c0.381,0,0.711,0.135,0.989,0.404
					c0.281,0.27,0.421,0.625,0.421,1.065v7.909c0,0.85-0.152,1.604-0.46,2.27c-0.307,0.664-0.729,1.205-1.268,1.623
					c-0.541,0.418-1.164,0.736-1.871,0.953s-1.477,0.324-2.305,0.324S81.037,40.777,80.334,40.564z"/>
			</g>
			<g display="inline">
				<path fill="none" stroke="#544841" stroke-width="2" d="M98.011,38.734l-3.664-8.855v9.578c0,0.326-0.123,0.582-0.373,0.764
					c-0.252,0.182-0.551,0.27-0.897,0.27c-0.351,0-0.649-0.09-0.904-0.27c-0.252-0.182-0.379-0.438-0.379-0.764l-0.01-10.822
					c0-0.546,0.209-0.993,0.631-1.342c0.422-0.35,0.918-0.521,1.489-0.521c0.48,0,0.931,0.139,1.345,0.42
					c0.414,0.279,0.729,0.698,0.946,1.258l3.437,8.203v3.445C98.892,40.094,98.353,39.643,98.011,38.734z M99.64,36.65l3.445-8.203
					c0.217-0.56,0.533-0.979,0.947-1.258c0.416-0.281,0.861-0.421,1.344-0.421c0.564,0,1.059,0.175,1.479,0.522
					c0.422,0.349,0.633,0.796,0.633,1.342v10.822c0,0.326-0.127,0.582-0.379,0.764c-0.254,0.182-0.555,0.27-0.903,0.27
					s-0.647-0.09-0.901-0.27c-0.252-0.182-0.382-0.438-0.382-0.764v-9.578l-3.651,8.855c-0.355,0.908-0.898,1.361-1.629,1.361V36.65
					H99.64z"/>
				<path fill="#FFFFFF" d="M98.011,38.734l-3.664-8.855v9.578c0,0.326-0.123,0.582-0.373,0.764c-0.252,0.182-0.551,0.27-0.897,0.27
					c-0.351,0-0.649-0.09-0.904-0.27c-0.252-0.182-0.379-0.438-0.379-0.764l-0.01-10.822c0-0.546,0.209-0.993,0.631-1.342
					c0.422-0.35,0.918-0.521,1.489-0.521c0.48,0,0.931,0.139,1.345,0.42c0.414,0.279,0.729,0.698,0.946,1.258l3.437,8.203v3.445
					C98.892,40.094,98.353,39.643,98.011,38.734z M99.64,36.65l3.445-8.203c0.217-0.56,0.533-0.979,0.947-1.258
					c0.416-0.281,0.861-0.421,1.344-0.421c0.564,0,1.059,0.175,1.479,0.522c0.422,0.349,0.633,0.796,0.633,1.342v10.822
					c0,0.326-0.127,0.582-0.379,0.764c-0.254,0.182-0.555,0.27-0.903,0.27s-0.647-0.09-0.901-0.27
					c-0.252-0.182-0.382-0.438-0.382-0.764v-9.578l-3.651,8.855c-0.355,0.908-0.898,1.361-1.629,1.361V36.65H99.64z"/>
			</g>
		</g>
		<g id="Layer_4">
			<g>
				<g>
					<path fill="none" stroke="#544841" stroke-width="2" d="M35.42,40.771c-0.307-0.305-0.461-0.705-0.461-1.201V26.841
						c0-0.497,0.163-0.896,0.489-1.194c0.326-0.302,0.723-0.451,1.19-0.451h7.516c0.355,0,0.639,0.127,0.85,0.377
						c0.211,0.252,0.316,0.545,0.316,0.879s-0.105,0.627-0.316,0.878c-0.211,0.252-0.495,0.377-0.85,0.377H38.15v4.047h5.681
						c0.356,0,0.639,0.123,0.851,0.367c0.211,0.244,0.316,0.533,0.316,0.867c0,0.342-0.104,0.633-0.311,0.873
						c-0.208,0.24-0.493,0.359-0.856,0.359H38.15v5.35c0,0.496-0.159,0.896-0.478,1.201c-0.319,0.303-0.697,0.455-1.134,0.455
						S35.729,41.074,35.42,40.771z"/>
					<path fill="#FFFFFF" d="M35.42,40.771c-0.307-0.305-0.461-0.705-0.461-1.201V26.841c0-0.497,0.163-0.896,0.489-1.194
						c0.326-0.302,0.723-0.451,1.19-0.451h7.516c0.355,0,0.639,0.127,0.85,0.377c0.211,0.252,0.316,0.545,0.316,0.879
						s-0.105,0.627-0.316,0.878c-0.211,0.252-0.495,0.377-0.85,0.377H38.15v4.047h5.681c0.356,0,0.639,0.123,0.851,0.367
						c0.211,0.244,0.316,0.533,0.316,0.867c0,0.342-0.104,0.633-0.311,0.873c-0.208,0.24-0.493,0.359-0.856,0.359H38.15v5.35
						c0,0.496-0.159,0.896-0.478,1.201c-0.319,0.303-0.697,0.455-1.134,0.455S35.729,41.074,35.42,40.771z"/>
				</g>
				<g>
					<path fill="none" stroke="#544841" stroke-width="2" d="M57.875,37.535h-7.093l-1,2.668c-0.127,0.363-0.319,0.635-0.579,0.816
						c-0.259,0.182-0.548,0.271-0.867,0.271c-0.4,0-0.756-0.135-1.067-0.398c-0.311-0.268-0.467-0.605-0.467-1.014
						c0-0.188,0.037-0.375,0.112-0.566l4.88-12.219c0.311-0.821,0.669-1.374,1.073-1.655c0.403-0.283,0.891-0.424,1.461-0.424
						c0.571,0,1.058,0.141,1.462,0.424c0.404,0.281,0.761,0.832,1.072,1.655l4.881,12.219c0.074,0.191,0.111,0.381,0.111,0.566
						c0,0.408-0.156,0.746-0.467,1.014c-0.311,0.266-0.666,0.398-1.066,0.398c-0.319,0-0.608-0.092-0.868-0.271
						c-0.259-0.182-0.452-0.453-0.578-0.816L57.875,37.535z M54.328,28.063l-2.746,7.326h5.493L54.328,28.063z"/>
					<path fill="#FFFFFF" d="M57.875,37.535h-7.093l-1,2.668c-0.127,0.363-0.319,0.635-0.579,0.816
						c-0.259,0.182-0.548,0.271-0.867,0.271c-0.4,0-0.756-0.135-1.067-0.398c-0.311-0.268-0.467-0.605-0.467-1.014
						c0-0.188,0.037-0.375,0.112-0.566l4.88-12.219c0.311-0.821,0.669-1.374,1.073-1.655c0.403-0.283,0.891-0.424,1.461-0.424
						c0.571,0,1.058,0.141,1.462,0.424c0.404,0.281,0.761,0.832,1.072,1.655l4.881,12.219c0.074,0.191,0.111,0.381,0.111,0.566
						c0,0.408-0.156,0.746-0.467,1.014c-0.311,0.266-0.666,0.398-1.066,0.398c-0.319,0-0.608-0.092-0.868-0.271
						c-0.259-0.182-0.452-0.453-0.578-0.816L57.875,37.535z M54.328,28.063l-2.746,7.326h5.493L54.328,28.063z"/>
				</g>
				<g>
					<path fill="none" stroke="#544841" stroke-width="2" d="M65.657,39.281c-1.356-1.49-2.034-3.541-2.034-6.148
						c0-2.607,0.678-4.66,2.034-6.154c1.356-1.492,3.276-2.24,5.759-2.24c2.498,0,4.421,0.748,5.77,2.24
						c1.35,1.494,2.024,3.545,2.024,6.154c0,2.609-0.675,4.658-2.024,6.148c-1.349,1.488-3.271,2.232-5.77,2.232
						C68.933,41.514,67.013,40.771,65.657,39.281z M74.75,37.484c0.734-1.012,1.102-2.461,1.102-4.352
						c0-1.883-0.365-3.332-1.096-4.346c-0.73-1.017-1.844-1.523-3.341-1.523c-1.49,0-2.603,0.511-3.335,1.529
						c-0.732,1.021-1.1,2.465-1.1,4.34c0,1.891,0.365,3.34,1.095,4.352c0.729,1.014,1.844,1.52,3.341,1.52
						C72.904,39.002,74.017,38.496,74.75,37.484z M75.996,43.549l-5.469-2.844l3.49-0.912l2.979,1.723
						c0.459,0.252,0.688,0.586,0.688,1.002c0,0.324-0.108,0.605-0.328,0.838c-0.219,0.234-0.476,0.354-0.772,0.354
						C76.376,43.705,76.181,43.654,75.996,43.549z"/>
					<path fill="#FFFFFF" d="M65.657,39.281c-1.356-1.49-2.034-3.541-2.034-6.148c0-2.607,0.678-4.66,2.034-6.154
						c1.356-1.492,3.276-2.24,5.759-2.24c2.498,0,4.421,0.748,5.77,2.24c1.35,1.494,2.024,3.545,2.024,6.154
						c0,2.609-0.675,4.658-2.024,6.148c-1.349,1.488-3.271,2.232-5.77,2.232C68.933,41.514,67.013,40.771,65.657,39.281z
						 M74.75,37.484c0.734-1.012,1.102-2.461,1.102-4.352c0-1.883-0.365-3.332-1.096-4.346c-0.73-1.017-1.844-1.523-3.341-1.523
						c-1.49,0-2.603,0.511-3.335,1.529c-0.732,1.021-1.1,2.465-1.1,4.34c0,1.891,0.365,3.34,1.095,4.352
						c0.729,1.014,1.844,1.52,3.341,1.52C72.904,39.002,74.017,38.496,74.75,37.484z M75.996,43.549l-5.469-2.844l3.49-0.912
						l2.979,1.723c0.459,0.252,0.688,0.586,0.688,1.002c0,0.324-0.108,0.605-0.328,0.838c-0.219,0.234-0.476,0.354-0.772,0.354
						C76.376,43.705,76.181,43.654,75.996,43.549z"/>
				</g>
				<g>
					<path fill="none" stroke="#544841" stroke-width="2" d="M81.456,39.359c0-0.246,0.083-0.461,0.25-0.645
						c0.167-0.186,0.38-0.277,0.64-0.277c0.186,0,0.379,0.055,0.579,0.166c0.326,0.186,0.587,0.326,0.783,0.422
						c0.194,0.098,0.515,0.207,0.951,0.328s0.872,0.184,1.312,0.184c0.43,0,0.813-0.043,1.149-0.127
						c0.338-0.086,0.627-0.242,0.866-0.467c0.24-0.227,0.361-0.518,0.361-0.873c0-0.629-0.516-1.07-1.545-1.324l-1.734-0.443
						c-0.526-0.143-0.953-0.268-1.278-0.379c-0.326-0.109-0.653-0.254-0.987-0.428c-0.335-0.174-0.59-0.367-0.769-0.578
						s-0.322-0.475-0.435-0.789c-0.111-0.314-0.166-0.686-0.166-1.105c0-1.016,0.406-1.795,1.223-2.34
						c0.814-0.544,1.886-0.817,3.212-0.817c1.282,0,2.497,0.278,3.646,0.834c0.4,0.192,0.6,0.49,0.6,0.89
						c0,0.236-0.073,0.438-0.227,0.605c-0.152,0.166-0.354,0.25-0.607,0.25c-0.125,0-0.27-0.029-0.434-0.088
						c-0.006,0-0.088-0.029-0.244-0.09c-0.156-0.059-0.266-0.098-0.328-0.117c-0.062-0.018-0.18-0.055-0.35-0.109
						c-0.172-0.057-0.318-0.098-0.441-0.123c-0.121-0.025-0.268-0.057-0.438-0.088c-0.17-0.033-0.34-0.059-0.506-0.072
						c-0.168-0.016-0.336-0.023-0.506-0.023c-0.57,0-1.057,0.096-1.455,0.283c-0.402,0.189-0.602,0.48-0.602,0.873
						c0,0.35,0.108,0.607,0.328,0.773c0.219,0.168,0.637,0.32,1.25,0.461l1.713,0.434c1.192,0.297,2.065,0.699,2.619,1.213
						c0.551,0.51,0.827,1.219,0.827,2.123c0,1.133-0.418,2.002-1.25,2.604c-0.834,0.6-1.918,0.898-3.252,0.898
						c-1.729,0-3.181-0.432-4.358-1.289C81.586,39.91,81.456,39.662,81.456,39.359z"/>
					<path fill="#FFFFFF" d="M81.456,39.359c0-0.246,0.083-0.461,0.25-0.645c0.167-0.186,0.38-0.277,0.64-0.277
						c0.186,0,0.379,0.055,0.579,0.166c0.326,0.186,0.587,0.326,0.783,0.422c0.194,0.098,0.515,0.207,0.951,0.328
						s0.872,0.184,1.312,0.184c0.43,0,0.813-0.043,1.149-0.127c0.338-0.086,0.627-0.242,0.866-0.467
						c0.24-0.227,0.361-0.518,0.361-0.873c0-0.629-0.516-1.07-1.545-1.324l-1.734-0.443c-0.526-0.143-0.953-0.268-1.278-0.379
						c-0.326-0.109-0.653-0.254-0.987-0.428c-0.335-0.174-0.59-0.367-0.769-0.578s-0.322-0.475-0.435-0.789
						c-0.111-0.314-0.166-0.686-0.166-1.105c0-1.016,0.406-1.795,1.223-2.34c0.814-0.544,1.886-0.817,3.212-0.817
						c1.282,0,2.497,0.278,3.646,0.834c0.4,0.192,0.6,0.49,0.6,0.89c0,0.236-0.073,0.438-0.227,0.605
						c-0.152,0.166-0.354,0.25-0.607,0.25c-0.125,0-0.27-0.029-0.434-0.088c-0.006,0-0.088-0.029-0.244-0.09
						c-0.156-0.059-0.266-0.098-0.328-0.117c-0.062-0.018-0.18-0.055-0.35-0.109c-0.172-0.057-0.318-0.098-0.441-0.123
						c-0.121-0.025-0.268-0.057-0.438-0.088c-0.17-0.033-0.34-0.059-0.506-0.072c-0.168-0.016-0.336-0.023-0.506-0.023
						c-0.57,0-1.057,0.096-1.455,0.283c-0.402,0.189-0.602,0.48-0.602,0.873c0,0.35,0.108,0.607,0.328,0.773
						c0.219,0.168,0.637,0.32,1.25,0.461l1.713,0.434c1.192,0.297,2.065,0.699,2.619,1.213c0.551,0.51,0.827,1.219,0.827,2.123
						c0,1.133-0.418,2.002-1.25,2.604c-0.834,0.6-1.918,0.898-3.252,0.898c-1.729,0-3.181-0.432-4.358-1.289
						C81.586,39.91,81.456,39.662,81.456,39.359z"/>
				</g>
			</g>
		</g>
		<g>
			<g>
				<path fill="none" stroke="#544841" stroke-width="2" d="M125.769,41.762l8.33-7.691l-8.33-7.687h2.258l8.33,7.687l-8.33,7.691
					H125.769z"/>
				<path fill="#FFFFFF" d="M125.769,41.762l8.33-7.691l-8.33-7.687h2.258l8.33,7.687l-8.33,7.691H125.769z"/>
			</g>
		</g>
	</g>
</g>
</svg>
