<?xml version="1.0" encoding="utf-8"?>
<!-- Generator: Adobe Illustrator 14.0.0, SVG Export Plug-In . SVG Version: 6.00 Build 43363)  -->
<!DOCTYPE svg PUBLIC "-//W3C//DTD SVG 1.1//EN" "http://www.w3.org/Graphics/SVG/1.1/DTD/svg11.dtd">
<svg version="1.1" id="Layer_1" xmlns="http://www.w3.org/2000/svg" xmlns:xlink="http://www.w3.org/1999/xlink" x="0px" y="0px"
	 width="201.167px" height="61.25px" viewBox="0 0 201.167 61.25" enable-background="new 0 0 201.167 61.25" xml:space="preserve">
<g id="Layer_7">
	
		<linearGradient id="SVGID_1_" gradientUnits="userSpaceOnUse" x1="-313.2896" y1="324.6055" x2="-313.2896" y2="384.6055" gradientTransform="matrix(1 0 0 -1 414 385.25)">
		<stop  offset="0" style="stop-color:#4F433C"/>
		<stop  offset="1" style="stop-color:#66564D"/>
	</linearGradient>
	<path fill="url(#SVGID_1_)" stroke="#4D423C" d="M200.71,50.645c0,5.522-4.478,10-10,10h-180c-5.523,0-10-4.478-10-10v-40
		c0-5.523,4.477-10,10-10h180c5.522,0,10,4.477,10,10V50.645z"/>
	<g display="none">
		<g display="inline">
			<path fill="none" stroke="#544841" stroke-width="2" d="M56.452,36.652c-0.273-0.27-0.41-0.625-0.41-1.065V24.283
				c0-0.441,0.145-0.794,0.435-1.061s0.642-0.4,1.056-0.4h6.673c0.316,0,0.567,0.111,0.755,0.335
				c0.188,0.224,0.281,0.484,0.281,0.78s-0.093,0.557-0.281,0.78c-0.188,0.223-0.438,0.336-0.755,0.336h-5.331v3.593h5.044
				c0.316,0,0.568,0.109,0.755,0.326c0.188,0.217,0.282,0.474,0.282,0.771c0,0.302-0.093,0.561-0.276,0.775
				c-0.185,0.214-0.438,0.321-0.761,0.321h-5.044v4.748c0,0.44-0.142,0.796-0.424,1.065c-0.283,0.271-0.619,0.406-1.007,0.406
				C57.055,37.059,56.725,36.923,56.452,36.652z"/>
			<path fill="#FFFFFF" d="M56.452,36.652c-0.273-0.27-0.41-0.625-0.41-1.065V24.283c0-0.441,0.145-0.794,0.435-1.061
				s0.642-0.4,1.056-0.4h6.673c0.316,0,0.567,0.111,0.755,0.335c0.188,0.224,0.281,0.484,0.281,0.78s-0.093,0.557-0.281,0.78
				c-0.188,0.223-0.438,0.336-0.755,0.336h-5.331v3.593h5.044c0.316,0,0.568,0.109,0.755,0.326c0.188,0.217,0.282,0.474,0.282,0.771
				c0,0.302-0.093,0.561-0.276,0.775c-0.185,0.214-0.438,0.321-0.761,0.321h-5.044v4.748c0,0.44-0.142,0.796-0.424,1.065
				c-0.283,0.271-0.619,0.406-1.007,0.406C57.055,37.059,56.725,36.923,56.452,36.652z"/>
		</g>
		<g display="inline">
			<path fill="none" stroke="#544841" stroke-width="2" d="M68.807,35.331C67.603,34.007,67,32.188,67,29.87
				c0-2.315,0.603-4.137,1.807-5.463c1.204-1.326,2.909-1.989,5.113-1.989c2.218,0,3.926,0.663,5.124,1.989
				c1.198,1.327,1.796,3.148,1.796,5.463c0,2.317-0.599,4.137-1.796,5.46c-1.198,1.322-2.906,1.982-5.124,1.982
				C71.715,37.314,70.011,36.652,68.807,35.331z M76.882,33.734c0.652-0.897,0.978-2.186,0.978-3.864
				c0-1.671-0.325-2.957-0.973-3.859c-0.648-0.901-1.637-1.353-2.967-1.353c-1.323,0-2.31,0.453-2.961,1.358
				c-0.652,0.905-0.978,2.189-0.978,3.854c0,1.68,0.324,2.967,0.972,3.864c0.648,0.899,1.638,1.349,2.966,1.349
				C75.243,35.083,76.23,34.634,76.882,33.734z"/>
			<path fill="#FFFFFF" d="M68.807,35.331C67.603,34.007,67,32.188,67,29.87c0-2.315,0.603-4.137,1.807-5.463
				c1.204-1.326,2.909-1.989,5.113-1.989c2.218,0,3.926,0.663,5.124,1.989c1.198,1.327,1.796,3.148,1.796,5.463
				c0,2.317-0.599,4.137-1.796,5.46c-1.198,1.322-2.906,1.982-5.124,1.982C71.715,37.314,70.011,36.652,68.807,35.331z
				 M76.882,33.734c0.652-0.897,0.978-2.186,0.978-3.864c0-1.671-0.325-2.957-0.973-3.859c-0.648-0.901-1.637-1.353-2.967-1.353
				c-1.323,0-2.31,0.453-2.961,1.358c-0.652,0.905-0.978,2.189-0.978,3.854c0,1.68,0.324,2.967,0.972,3.864
				c0.648,0.899,1.638,1.349,2.966,1.349C75.243,35.083,76.23,34.634,76.882,33.734z"/>
		</g>
		<g display="inline">
			<path fill="none" stroke="#544841" stroke-width="2" d="M83.94,36.658c-0.277-0.26-0.414-0.617-0.414-1.071V24.264
				c0-0.421,0.146-0.769,0.439-1.041c0.292-0.273,0.646-0.41,1.061-0.41h4.353c3.469,0,5.203,1.207,5.203,3.622
				c0,0.843-0.266,1.555-0.8,2.138c-0.533,0.583-1.336,0.959-2.409,1.131v0.039c0.915,0.177,1.598,0.538,2.048,1.082
				c0.451,0.542,0.729,1.28,0.834,2.215l0.276,2.331c0.006,0.059,0.01,0.145,0.01,0.256c0,0.447-0.127,0.797-0.379,1.046
				c-0.254,0.251-0.572,0.375-0.953,0.375c-0.396,0-0.734-0.123-1.018-0.37c-0.283-0.246-0.447-0.609-0.493-1.091l-0.247-2.28
				c-0.046-0.44-0.112-0.8-0.198-1.076c-0.085-0.275-0.221-0.515-0.405-0.715c-0.184-0.201-0.425-0.345-0.725-0.43
				c-0.299-0.085-0.68-0.128-1.14-0.128h-0.04h-2.586v4.63c0,0.461-0.14,0.819-0.42,1.076c-0.279,0.257-0.613,0.385-1.001,0.385
				S84.217,36.918,83.94,36.658z M88.373,28.854c0.276,0,0.508-0.003,0.696-0.01c0.188-0.005,0.408-0.024,0.662-0.054
				c0.253-0.03,0.467-0.071,0.642-0.123c0.174-0.054,0.355-0.129,0.543-0.227c0.188-0.099,0.337-0.218,0.449-0.356
				c0.112-0.138,0.204-0.312,0.276-0.523c0.072-0.21,0.108-0.451,0.108-0.72c0-0.257-0.029-0.485-0.088-0.687
				c-0.06-0.201-0.134-0.367-0.222-0.499c-0.089-0.132-0.212-0.243-0.371-0.335c-0.158-0.092-0.304-0.163-0.439-0.211
				c-0.134-0.05-0.311-0.086-0.528-0.109c-0.217-0.023-0.401-0.038-0.553-0.044c-0.151-0.006-0.345-0.01-0.582-0.01h-0.207H86.35
				v3.909L88.373,28.854L88.373,28.854z"/>
			<path fill="#FFFFFF" d="M83.94,36.658c-0.277-0.26-0.414-0.617-0.414-1.071V24.264c0-0.421,0.146-0.769,0.439-1.041
				c0.292-0.273,0.646-0.41,1.061-0.41h4.353c3.469,0,5.203,1.207,5.203,3.622c0,0.843-0.266,1.555-0.8,2.138
				c-0.533,0.583-1.336,0.959-2.409,1.131v0.039c0.915,0.177,1.598,0.538,2.048,1.082c0.451,0.542,0.729,1.28,0.834,2.215
				l0.276,2.331c0.006,0.059,0.01,0.145,0.01,0.256c0,0.447-0.127,0.797-0.379,1.046c-0.254,0.251-0.572,0.375-0.953,0.375
				c-0.396,0-0.734-0.123-1.018-0.37c-0.283-0.246-0.447-0.609-0.493-1.091l-0.247-2.28c-0.046-0.44-0.112-0.8-0.198-1.076
				c-0.085-0.275-0.221-0.515-0.405-0.715c-0.184-0.201-0.425-0.345-0.725-0.43c-0.299-0.085-0.68-0.128-1.14-0.128h-0.04h-2.586
				v4.63c0,0.461-0.14,0.819-0.42,1.076c-0.279,0.257-0.613,0.385-1.001,0.385S84.217,36.918,83.94,36.658z M88.373,28.854
				c0.276,0,0.508-0.003,0.696-0.01c0.188-0.005,0.408-0.024,0.662-0.054c0.253-0.03,0.467-0.071,0.642-0.123
				c0.174-0.054,0.355-0.129,0.543-0.227c0.188-0.099,0.337-0.218,0.449-0.356c0.112-0.138,0.204-0.312,0.276-0.523
				c0.072-0.21,0.108-0.451,0.108-0.72c0-0.257-0.029-0.485-0.088-0.687c-0.06-0.201-0.134-0.367-0.222-0.499
				c-0.089-0.132-0.212-0.243-0.371-0.335c-0.158-0.092-0.304-0.163-0.439-0.211c-0.134-0.05-0.311-0.086-0.528-0.109
				c-0.217-0.023-0.401-0.038-0.553-0.044c-0.151-0.006-0.345-0.01-0.582-0.01h-0.207H86.35v3.909L88.373,28.854L88.373,28.854z"/>
		</g>
		<g display="inline">
			<path fill="none" stroke="#544841" stroke-width="2" d="M101.024,36.994c-0.701-0.213-1.322-0.53-1.861-0.948
				c-0.54-0.418-0.961-0.961-1.264-1.629c-0.302-0.668-0.454-1.426-0.454-2.274v-7.909c0-0.44,0.139-0.796,0.414-1.066
				c0.277-0.27,0.609-0.404,0.998-0.404c0.388,0,0.722,0.135,1.001,0.404c0.281,0.27,0.42,0.625,0.42,1.066v7.839
				c0,0.514,0.088,0.97,0.262,1.366c0.174,0.398,0.406,0.713,0.696,0.943c0.29,0.229,0.61,0.404,0.963,0.523
				c0.352,0.117,0.725,0.177,1.12,0.177s0.771-0.06,1.125-0.177c0.354-0.119,0.681-0.293,0.978-0.523s0.531-0.545,0.707-0.943
				c0.174-0.396,0.261-0.854,0.261-1.366v-7.839c0-0.44,0.14-0.796,0.42-1.066c0.278-0.27,0.612-0.404,1.002-0.404
				c0.381,0,0.712,0.135,0.991,0.404c0.281,0.27,0.42,0.625,0.42,1.066v7.909c0,0.85-0.152,1.604-0.459,2.271
				c-0.307,0.665-0.729,1.206-1.268,1.624c-0.541,0.418-1.164,0.736-1.871,0.952c-0.707,0.218-1.477,0.325-2.306,0.325
				S101.725,37.207,101.024,36.994z"/>
			<path fill="#FFFFFF" d="M101.024,36.994c-0.701-0.213-1.322-0.53-1.861-0.948c-0.54-0.418-0.961-0.961-1.264-1.629
				c-0.302-0.668-0.454-1.426-0.454-2.274v-7.909c0-0.44,0.139-0.796,0.414-1.066c0.277-0.27,0.609-0.404,0.998-0.404
				c0.388,0,0.722,0.135,1.001,0.404c0.281,0.27,0.42,0.625,0.42,1.066v7.839c0,0.514,0.088,0.97,0.262,1.366
				c0.174,0.398,0.406,0.713,0.696,0.943c0.29,0.229,0.61,0.404,0.963,0.523c0.352,0.117,0.725,0.177,1.12,0.177
				s0.771-0.06,1.125-0.177c0.354-0.119,0.681-0.293,0.978-0.523s0.531-0.545,0.707-0.943c0.174-0.396,0.261-0.854,0.261-1.366
				v-7.839c0-0.44,0.14-0.796,0.42-1.066c0.278-0.27,0.612-0.404,1.002-0.404c0.381,0,0.712,0.135,0.991,0.404
				c0.281,0.27,0.42,0.625,0.42,1.066v7.909c0,0.85-0.152,1.604-0.459,2.271c-0.307,0.665-0.729,1.206-1.268,1.624
				c-0.541,0.418-1.164,0.736-1.871,0.952c-0.707,0.218-1.477,0.325-2.306,0.325S101.725,37.207,101.024,36.994z"/>
		</g>
		<g display="inline">
			<path fill="none" stroke="#544841" stroke-width="2" d="M118.701,35.163l-3.664-8.856v9.577c0,0.328-0.123,0.583-0.373,0.765
				c-0.252,0.182-0.551,0.271-0.899,0.271s-0.649-0.091-0.904-0.271c-0.252-0.182-0.379-0.437-0.379-0.765l-0.01-10.821
				c0-0.546,0.21-0.993,0.632-1.342c0.422-0.349,0.918-0.522,1.49-0.522c0.48,0,0.929,0.139,1.343,0.42
				c0.415,0.28,0.729,0.699,0.948,1.258l3.436,8.203v3.446C119.582,36.523,119.042,36.071,118.701,35.163z M120.33,33.079
				l3.444-8.203c0.218-0.559,0.533-0.979,0.948-1.258c0.415-0.281,0.861-0.42,1.343-0.42c0.565,0,1.06,0.174,1.479,0.522
				c0.422,0.349,0.633,0.796,0.633,1.342v10.821c0,0.328-0.127,0.583-0.379,0.765c-0.254,0.182-0.555,0.271-0.904,0.271
				s-0.648-0.091-0.902-0.271c-0.252-0.182-0.381-0.437-0.381-0.765v-9.577l-3.652,8.856c-0.355,0.908-0.898,1.362-1.629,1.362
				V33.079L120.33,33.079z"/>
			<path fill="#FFFFFF" d="M118.701,35.163l-3.664-8.856v9.577c0,0.328-0.123,0.583-0.373,0.765
				c-0.252,0.182-0.551,0.271-0.899,0.271s-0.649-0.091-0.904-0.271c-0.252-0.182-0.379-0.437-0.379-0.765l-0.01-10.821
				c0-0.546,0.21-0.993,0.632-1.342c0.422-0.349,0.918-0.522,1.49-0.522c0.48,0,0.929,0.139,1.343,0.42
				c0.415,0.28,0.729,0.699,0.948,1.258l3.436,8.203v3.446C119.582,36.523,119.042,36.071,118.701,35.163z M120.33,33.079
				l3.444-8.203c0.218-0.559,0.533-0.979,0.948-1.258c0.415-0.281,0.861-0.42,1.343-0.42c0.565,0,1.06,0.174,1.479,0.522
				c0.422,0.349,0.633,0.796,0.633,1.342v10.821c0,0.328-0.127,0.583-0.379,0.765c-0.254,0.182-0.555,0.271-0.904,0.271
				s-0.648-0.091-0.902-0.271c-0.252-0.182-0.381-0.437-0.381-0.765v-9.577l-3.652,8.856c-0.355,0.908-0.898,1.362-1.629,1.362
				V33.079L120.33,33.079z"/>
		</g>
	</g>
	<g id="Layer_3">
	</g>
	<g>
		<g>
			<path fill="none" stroke="#544841" stroke-width="2" d="M146.458,38.191l8.33-7.691l-8.33-7.689h2.258l8.33,7.689l-8.33,7.691
				H146.458z"/>
			<path fill="#FFFFFF" d="M146.458,38.191l8.33-7.691l-8.33-7.689h2.258l8.33,7.689l-8.33,7.691H146.458z"/>
		</g>
	</g>
	<g>
		<g>
			<path fill="none" stroke="#544841" stroke-width="3" d="M56.368,38.079c-0.314-0.312-0.472-0.722-0.472-1.229V23.816
				c0-0.509,0.167-0.917,0.5-1.224c0.334-0.308,0.74-0.461,1.219-0.461h7.695c0.364,0,0.654,0.129,0.871,0.387
				c0.216,0.258,0.324,0.559,0.324,0.899c0,0.342-0.108,0.642-0.324,0.899c-0.216,0.258-0.507,0.387-0.871,0.387h-6.148v4.144h5.817
				c0.364,0,0.654,0.125,0.871,0.375c0.216,0.251,0.324,0.547,0.324,0.888c0,0.349-0.106,0.647-0.318,0.893
				c-0.213,0.247-0.505,0.37-0.877,0.37h-5.817v5.477c0,0.508-0.163,0.918-0.489,1.229c-0.327,0.312-0.713,0.467-1.162,0.467
				C57.065,38.546,56.683,38.391,56.368,38.079z"/>
			<path fill="#FFFFFF" d="M56.368,38.079c-0.314-0.312-0.472-0.722-0.472-1.229V23.816c0-0.509,0.167-0.917,0.5-1.224
				c0.334-0.308,0.74-0.461,1.219-0.461h7.695c0.364,0,0.654,0.129,0.871,0.387c0.216,0.258,0.324,0.559,0.324,0.899
				c0,0.342-0.108,0.642-0.324,0.899c-0.216,0.258-0.507,0.387-0.871,0.387h-6.148v4.144h5.817c0.364,0,0.654,0.125,0.871,0.375
				c0.216,0.251,0.324,0.547,0.324,0.888c0,0.349-0.106,0.647-0.318,0.893c-0.213,0.247-0.505,0.37-0.877,0.37h-5.817v5.477
				c0,0.508-0.163,0.918-0.489,1.229c-0.327,0.312-0.713,0.467-1.162,0.467C57.065,38.546,56.683,38.391,56.368,38.079z"/>
		</g>
		<g>
			<path fill="none" stroke="#544841" stroke-width="3" d="M79.357,34.768h-7.263l-1.024,2.731
				c-0.129,0.373-0.327,0.651-0.592,0.836c-0.266,0.187-0.562,0.279-0.888,0.279c-0.41,0-0.774-0.138-1.093-0.41
				c-0.319-0.272-0.478-0.619-0.478-1.036c0-0.189,0.038-0.384,0.114-0.581l4.997-12.511c0.319-0.842,0.685-1.407,1.099-1.696
				c0.414-0.288,0.913-0.433,1.497-0.433s1.083,0.145,1.497,0.433c0.414,0.289,0.78,0.854,1.098,1.696l4.998,12.511
				c0.076,0.197,0.114,0.392,0.114,0.581c0,0.417-0.16,0.764-0.479,1.036c-0.318,0.272-0.683,0.41-1.093,0.41
				c-0.326,0-0.623-0.093-0.888-0.279c-0.266-0.187-0.463-0.464-0.592-0.836L79.357,34.768z M75.726,25.068l-2.812,7.502h5.624
				L75.726,25.068z"/>
			<path fill="#FFFFFF" d="M79.357,34.768h-7.263l-1.024,2.731c-0.129,0.373-0.327,0.651-0.592,0.836
				c-0.266,0.187-0.562,0.279-0.888,0.279c-0.41,0-0.774-0.138-1.093-0.41c-0.319-0.272-0.478-0.619-0.478-1.036
				c0-0.189,0.038-0.384,0.114-0.581l4.997-12.511c0.319-0.842,0.685-1.407,1.099-1.696c0.414-0.288,0.913-0.433,1.497-0.433
				s1.083,0.145,1.497,0.433c0.414,0.289,0.78,0.854,1.098,1.696l4.998,12.511c0.076,0.197,0.114,0.392,0.114,0.581
				c0,0.417-0.16,0.764-0.479,1.036c-0.318,0.272-0.683,0.41-1.093,0.41c-0.326,0-0.623-0.093-0.888-0.279
				c-0.266-0.187-0.463-0.464-0.592-0.836L79.357,34.768z M75.726,25.068l-2.812,7.502h5.624L75.726,25.068z"/>
		</g>
		<g>
			<path fill="none" stroke="#544841" stroke-width="3" d="M87.326,36.554c-1.389-1.526-2.083-3.624-2.083-6.295
				s0.694-4.771,2.083-6.301c1.389-1.529,3.354-2.294,5.897-2.294c2.558,0,4.527,0.765,5.908,2.294s2.072,3.629,2.072,6.301
				c0,2.673-0.691,4.771-2.072,6.295c-1.381,1.525-3.35,2.288-5.908,2.288C90.68,38.842,88.715,38.079,87.326,36.554z
				 M96.638,34.715c0.751-1.035,1.127-2.521,1.127-4.456c0-1.928-0.374-3.412-1.121-4.451c-0.748-1.04-1.888-1.56-3.421-1.56
				c-1.525,0-2.664,0.522-3.416,1.565c-0.751,1.043-1.126,2.525-1.126,4.445c0,1.936,0.374,3.421,1.121,4.456
				c0.748,1.036,1.888,1.554,3.421,1.554C94.748,36.27,95.886,35.751,96.638,34.715z M97.912,40.925l-5.6-2.914l3.574-0.934
				l3.051,1.765c0.47,0.258,0.706,0.6,0.706,1.025c0,0.333-0.112,0.621-0.335,0.859c-0.224,0.238-0.488,0.358-0.792,0.358
				C98.303,41.084,98.102,41.032,97.912,40.925z"/>
			<path fill="#FFFFFF" d="M87.326,36.554c-1.389-1.526-2.083-3.624-2.083-6.295s0.694-4.771,2.083-6.301
				c1.389-1.529,3.354-2.294,5.897-2.294c2.558,0,4.527,0.765,5.908,2.294s2.072,3.629,2.072,6.301c0,2.673-0.691,4.771-2.072,6.295
				c-1.381,1.525-3.35,2.288-5.908,2.288C90.68,38.842,88.715,38.079,87.326,36.554z M96.638,34.715
				c0.751-1.035,1.127-2.521,1.127-4.456c0-1.928-0.374-3.412-1.121-4.451c-0.748-1.04-1.888-1.56-3.421-1.56
				c-1.525,0-2.664,0.522-3.416,1.565c-0.751,1.043-1.126,2.525-1.126,4.445c0,1.936,0.374,3.421,1.121,4.456
				c0.748,1.036,1.888,1.554,3.421,1.554C94.748,36.27,95.886,35.751,96.638,34.715z M97.912,40.925l-5.6-2.914l3.574-0.934
				l3.051,1.765c0.47,0.258,0.706,0.6,0.706,1.025c0,0.333-0.112,0.621-0.335,0.859c-0.224,0.238-0.488,0.358-0.792,0.358
				C98.303,41.084,98.102,41.032,97.912,40.925z"/>
		</g>
		<g>
			<path fill="none" stroke="#544841" stroke-width="3" d="M103.501,36.634c0-0.25,0.086-0.471,0.256-0.661
				c0.172-0.189,0.39-0.285,0.656-0.285c0.188,0,0.387,0.058,0.592,0.172c0.334,0.189,0.602,0.334,0.802,0.433
				c0.202,0.099,0.526,0.211,0.974,0.336c0.448,0.125,0.895,0.188,1.344,0.188c0.439,0,0.832-0.043,1.178-0.131
				c0.345-0.088,0.641-0.246,0.888-0.479c0.246-0.23,0.37-0.529,0.37-0.893c0-0.646-0.527-1.098-1.583-1.355l-1.774-0.455
				c-0.539-0.145-0.976-0.273-1.31-0.387c-0.334-0.114-0.672-0.262-1.013-0.438c-0.342-0.179-0.604-0.375-0.787-0.592
				c-0.182-0.217-0.329-0.485-0.443-0.808c-0.113-0.323-0.17-0.701-0.17-1.133c0-1.04,0.417-1.839,1.252-2.396
				c0.834-0.557,1.932-0.837,3.29-0.837c1.313,0,2.558,0.285,3.733,0.854c0.41,0.197,0.615,0.5,0.615,0.91
				c0,0.243-0.078,0.45-0.233,0.621s-0.362,0.256-0.621,0.256c-0.129,0-0.276-0.03-0.444-0.091c-0.008,0-0.091-0.03-0.25-0.091
				c-0.158-0.06-0.271-0.1-0.335-0.12c-0.063-0.019-0.185-0.057-0.358-0.113c-0.174-0.057-0.324-0.099-0.449-0.125
				c-0.125-0.027-0.275-0.058-0.45-0.092c-0.174-0.034-0.347-0.059-0.519-0.074c-0.17-0.015-0.342-0.023-0.518-0.023
				c-0.584,0-1.082,0.097-1.49,0.291c-0.41,0.193-0.615,0.492-0.615,0.893c0,0.357,0.111,0.621,0.336,0.792
				c0.224,0.171,0.65,0.329,1.279,0.473l1.754,0.443c1.221,0.305,2.114,0.717,2.681,1.241c0.565,0.522,0.848,1.249,0.848,2.175
				c0,1.161-0.427,2.049-1.28,2.664c-0.854,0.614-1.963,0.921-3.33,0.921c-1.768,0-3.256-0.44-4.461-1.319
				C103.638,37.199,103.501,36.943,103.501,36.634z"/>
			<path fill="#FFFFFF" d="M103.501,36.634c0-0.25,0.086-0.471,0.256-0.661c0.172-0.189,0.39-0.285,0.656-0.285
				c0.188,0,0.387,0.058,0.592,0.172c0.334,0.189,0.602,0.334,0.802,0.433c0.202,0.099,0.526,0.211,0.974,0.336
				c0.448,0.125,0.895,0.188,1.344,0.188c0.439,0,0.832-0.043,1.178-0.131c0.345-0.088,0.641-0.246,0.888-0.479
				c0.246-0.23,0.37-0.529,0.37-0.893c0-0.646-0.527-1.098-1.583-1.355l-1.774-0.455c-0.539-0.145-0.976-0.273-1.31-0.387
				c-0.334-0.114-0.672-0.262-1.013-0.438c-0.342-0.179-0.604-0.375-0.787-0.592c-0.182-0.217-0.329-0.485-0.443-0.808
				c-0.113-0.323-0.17-0.701-0.17-1.133c0-1.04,0.417-1.839,1.252-2.396c0.834-0.557,1.932-0.837,3.29-0.837
				c1.313,0,2.558,0.285,3.733,0.854c0.41,0.197,0.615,0.5,0.615,0.91c0,0.243-0.078,0.45-0.233,0.621s-0.362,0.256-0.621,0.256
				c-0.129,0-0.276-0.03-0.444-0.091c-0.008,0-0.091-0.03-0.25-0.091c-0.158-0.06-0.271-0.1-0.335-0.12
				c-0.063-0.019-0.185-0.057-0.358-0.113c-0.174-0.057-0.324-0.099-0.449-0.125c-0.125-0.027-0.275-0.058-0.45-0.092
				c-0.174-0.034-0.347-0.059-0.519-0.074c-0.17-0.015-0.342-0.023-0.518-0.023c-0.584,0-1.082,0.097-1.49,0.291
				c-0.41,0.193-0.615,0.492-0.615,0.893c0,0.357,0.111,0.621,0.336,0.792c0.224,0.171,0.65,0.329,1.279,0.473l1.754,0.443
				c1.221,0.305,2.114,0.717,2.681,1.241c0.565,0.522,0.848,1.249,0.848,2.175c0,1.161-0.427,2.049-1.28,2.664
				c-0.854,0.614-1.963,0.921-3.33,0.921c-1.768,0-3.256-0.44-4.461-1.319C103.638,37.199,103.501,36.943,103.501,36.634z"/>
		</g>
	</g>
</g>
</svg>
