<?xml version="1.0" encoding="utf-8"?>
<!-- Generator: Adobe Illustrator 14.0.0, SVG Export Plug-In . SVG Version: 6.00 Build 43363)  -->
<!DOCTYPE svg PUBLIC "-//W3C//DTD SVG 1.1//EN" "http://www.w3.org/Graphics/SVG/1.1/DTD/svg11.dtd">
<svg version="1.1" id="Layer_1" xmlns="http://www.w3.org/2000/svg" xmlns:xlink="http://www.w3.org/1999/xlink" x="0px" y="0px"
	 width="1426.667px" height="402.167px" viewBox="1423.667 0 1426.667 402.167"
	 enable-background="new 1423.667 0 1426.667 402.167" xml:space="preserve">
<g id="Layer_7">
	<g>
		<g>
			<path fill="none" stroke="#751C10" stroke-width="3" d="M1496.026,2.876H2778.37c38.487,0,69.693,31.206,69.693,69.693v257.862
				c0,38.486-31.206,69.693-69.693,69.693H1496.026c-38.492,0-69.693-31.207-69.693-69.693V72.569
				C1426.333,34.082,1457.534,2.876,1496.026,2.876z"/>
			
				<linearGradient id="SVGID_1_" gradientUnits="userSpaceOnUse" x1="1723.1992" y1="326.0425" x2="1723.1992" y2="723.2905" gradientTransform="matrix(1 0 0 -1 414 726.167)">
				<stop  offset="0" style="stop-color:#992A1A"/>
				<stop  offset="1" style="stop-color:#A72F1D"/>
			</linearGradient>
			<path fill="url(#SVGID_1_)" d="M1496.026,2.876H2778.37c38.487,0,69.693,31.206,69.693,69.693v257.862
				c0,38.486-31.206,69.693-69.693,69.693H1496.026c-38.492,0-69.693-31.207-69.693-69.693V72.569
				C1426.333,34.082,1457.534,2.876,1496.026,2.876z"/>
		</g>
	</g>
	<g>
		<g>
			<path fill="none" stroke="#751C10" stroke-width="4" d="M1851.143,240.856c-5.873-2.239-10.969-5.495-15.285-9.767
				c-4.315-4.269-7.678-9.739-10.084-16.416c-2.404-6.674-3.606-14.257-3.606-22.748c0-5.566,0.647-10.898,1.944-15.992
				c1.297-5.094,3.314-9.824,6.051-14.188c2.734-4.362,6.072-8.148,10.013-11.356c3.938-3.208,8.69-5.731,14.258-7.571
				c5.564-1.84,11.677-2.76,18.326-2.76c10.802,0,20.354,1.723,28.658,5.165c2.168,0.944,3.255,2.572,3.255,4.883
				c0,1.511-0.484,2.878-1.451,4.104c-0.967,1.227-2.183,1.84-3.645,1.84c-0.473,0-0.944-0.047-1.414-0.143
				c-10.236-2.924-18.541-4.387-24.907-4.387c-6.086,0-11.438,0.99-16.062,2.973c-4.625,1.98-8.375,4.775-11.252,8.385
				c-2.877,3.607-5.035,7.844-6.475,12.701c-1.439,4.858-2.157,10.307-2.157,16.346c0,6.131,0.683,11.65,2.052,16.557
				c1.367,4.907,3.42,9.188,6.155,12.845c2.736,3.654,6.334,6.473,10.791,8.455c4.458,1.979,9.636,2.971,15.531,2.971
				c7.547,0,14.978-1.014,22.289-3.041v-29.365h-18.892c-1.558,0-2.797-0.566-3.717-1.699c-0.92-1.131-1.379-2.357-1.379-3.68
				c0-1.414,0.459-2.699,1.379-3.855c0.92-1.156,2.159-1.733,3.717-1.733h27.312c1.886,0,3.337,0.577,4.353,1.733
				c1.015,1.156,1.521,2.701,1.521,4.635v35.378c0,4.01-1.84,6.605-5.521,7.785c-10.52,3.537-21.297,5.307-32.336,5.307
				C1863.49,244.216,1857.014,243.096,1851.143,240.856z"/>
			<path fill="#FFFFFF" d="M1851.143,240.856c-5.873-2.239-10.969-5.495-15.285-9.767c-4.315-4.269-7.678-9.739-10.084-16.416
				c-2.404-6.674-3.606-14.257-3.606-22.748c0-5.566,0.647-10.898,1.944-15.992c1.297-5.094,3.314-9.824,6.051-14.188
				c2.734-4.362,6.072-8.148,10.013-11.356c3.938-3.208,8.69-5.731,14.258-7.571c5.564-1.84,11.677-2.76,18.326-2.76
				c10.802,0,20.354,1.723,28.658,5.165c2.168,0.944,3.255,2.572,3.255,4.883c0,1.511-0.484,2.878-1.451,4.104
				c-0.967,1.227-2.183,1.84-3.645,1.84c-0.473,0-0.944-0.047-1.414-0.143c-10.236-2.924-18.541-4.387-24.907-4.387
				c-6.086,0-11.438,0.99-16.062,2.973c-4.625,1.98-8.375,4.775-11.252,8.385c-2.877,3.607-5.035,7.844-6.475,12.701
				c-1.439,4.858-2.157,10.307-2.157,16.346c0,6.131,0.683,11.65,2.052,16.557c1.367,4.907,3.42,9.188,6.155,12.845
				c2.736,3.654,6.334,6.473,10.791,8.455c4.458,1.979,9.636,2.971,15.531,2.971c7.547,0,14.978-1.014,22.289-3.041v-29.365h-18.892
				c-1.558,0-2.797-0.566-3.717-1.699c-0.92-1.131-1.379-2.357-1.379-3.68c0-1.414,0.459-2.699,1.379-3.855
				c0.92-1.156,2.159-1.733,3.717-1.733h27.312c1.886,0,3.337,0.577,4.353,1.733c1.015,1.156,1.521,2.701,1.521,4.635v35.378
				c0,4.01-1.84,6.605-5.521,7.785c-10.52,3.537-21.297,5.307-32.336,5.307C1863.49,244.216,1857.014,243.096,1851.143,240.856z"/>
		</g>
		<g>
			<path fill="none" stroke="#751C10" stroke-width="4" d="M1932.302,233.673c-6.393-6.838-9.587-15.566-9.587-26.18
				c0-10.661,3.194-19.413,9.587-26.252c6.394-6.84,15.013-10.26,25.862-10.26s19.471,3.408,25.863,10.225
				c6.391,6.817,9.588,15.579,9.588,26.288c0,10.612-3.186,19.342-9.553,26.18c-6.369,6.841-15.002,10.261-25.898,10.261
				C1947.314,243.934,1938.695,240.514,1932.302,233.673z M1974.898,227.765c3.986-4.928,5.98-11.686,5.98-20.271
				c0-8.537-2.018-15.308-6.051-20.309c-4.033-4.999-9.588-7.5-16.664-7.5c-7.123,0-12.689,2.488-16.699,7.465
				c-4.01,4.979-6.014,11.758-6.014,20.344c0,8.49,1.992,15.225,5.979,20.201c3.986,4.979,9.519,7.465,16.594,7.465
				C1965.287,235.16,1970.913,232.695,1974.898,227.765z"/>
			<path fill="#FFFFFF" d="M1932.302,233.673c-6.393-6.838-9.587-15.566-9.587-26.18c0-10.661,3.194-19.413,9.587-26.252
				c6.394-6.84,15.013-10.26,25.862-10.26s19.471,3.408,25.863,10.225c6.391,6.817,9.588,15.579,9.588,26.288
				c0,10.612-3.186,19.342-9.553,26.18c-6.369,6.841-15.002,10.261-25.898,10.261
				C1947.314,243.934,1938.695,240.514,1932.302,233.673z M1974.898,227.765c3.986-4.928,5.98-11.686,5.98-20.271
				c0-8.537-2.018-15.308-6.051-20.309c-4.033-4.999-9.588-7.5-16.664-7.5c-7.123,0-12.689,2.488-16.699,7.465
				c-4.01,4.979-6.014,11.758-6.014,20.344c0,8.49,1.992,15.225,5.979,20.201c3.986,4.979,9.519,7.465,16.594,7.465
				C1965.287,235.16,1970.913,232.695,1974.898,227.765z"/>
		</g>
		<g>
			<path fill="none" stroke="#751C10" stroke-width="4" d="M2054.396,240.644c-1.368-1.344-2.052-2.96-2.052-4.848v-87.387
				c0-1.935,0.684-3.562,2.052-4.883c1.368-1.319,3.02-1.98,4.953-1.98h28.518c11.84,0,20.591,2.205,26.251,6.615
				c5.661,4.412,8.491,10.604,8.491,18.574c0,6.039-1.76,11.18-5.271,15.426c-3.515,4.246-8.551,6.793-15.107,7.643v0.283
				c7.688,0.849,13.716,3.432,18.08,7.748c4.361,4.315,6.545,10.225,6.545,17.725c0,3.538-0.707,6.898-2.123,10.083
				s-3.479,6.062-6.19,8.633c-2.714,2.571-6.334,4.611-10.861,6.12c-4.528,1.512-9.671,2.266-15.426,2.266h-32.903
				C2057.416,242.66,2055.765,241.987,2054.396,240.644z M2085.814,185.133c7.972,0,13.785-1.367,17.441-4.104
				c3.655-2.734,5.482-7.217,5.482-13.443c0-2.547-0.389-4.74-1.166-6.581c-0.778-1.84-1.78-3.301-3.009-4.386
				c-1.228-1.086-2.806-1.936-4.739-2.549c-1.937-0.611-3.856-1.025-5.768-1.238c-1.911-0.212-4.165-0.318-6.759-0.318h-20.804
				v32.62L2085.814,185.133L2085.814,185.133z M2089.352,231.55c7.972,0,13.738-1.236,17.302-3.715
				c3.562-2.477,5.343-7.156,5.343-14.045c0-6.793-2.219-11.438-6.652-13.939c-4.434-2.5-11.463-3.75-21.086-3.75h-17.761v35.449
				H2089.352z"/>
			<path fill="#FFFFFF" d="M2054.396,240.644c-1.368-1.344-2.052-2.96-2.052-4.848v-87.387c0-1.935,0.684-3.562,2.052-4.883
				c1.368-1.319,3.02-1.98,4.953-1.98h28.518c11.84,0,20.591,2.205,26.251,6.615c5.661,4.412,8.491,10.604,8.491,18.574
				c0,6.039-1.76,11.18-5.271,15.426c-3.515,4.246-8.551,6.793-15.107,7.643v0.283c7.688,0.849,13.716,3.432,18.08,7.748
				c4.361,4.315,6.545,10.225,6.545,17.725c0,3.538-0.707,6.898-2.123,10.083s-3.479,6.062-6.19,8.633
				c-2.714,2.571-6.334,4.611-10.861,6.12c-4.528,1.512-9.671,2.266-15.426,2.266h-32.903
				C2057.416,242.66,2055.765,241.987,2054.396,240.644z M2085.814,185.133c7.972,0,13.785-1.367,17.441-4.104
				c3.655-2.734,5.482-7.217,5.482-13.443c0-2.547-0.389-4.74-1.166-6.581c-0.778-1.84-1.78-3.301-3.009-4.386
				c-1.228-1.086-2.806-1.936-4.739-2.549c-1.937-0.611-3.856-1.025-5.768-1.238c-1.911-0.212-4.165-0.318-6.759-0.318h-20.804
				v32.62L2085.814,185.133L2085.814,185.133z M2089.352,231.55c7.972,0,13.738-1.236,17.302-3.715
				c3.562-2.477,5.343-7.156,5.343-14.045c0-6.793-2.219-11.438-6.652-13.939c-4.434-2.5-11.463-3.75-21.086-3.75h-17.761v35.449
				H2089.352z"/>
		</g>
		<g>
			<path fill="none" stroke="#751C10" stroke-width="4" d="M2144.828,238.626c-4.625-3.537-6.936-8.562-6.936-15.07
				c0-2.689,0.283-5.049,0.85-7.076c0.565-2.027,1.367-3.811,2.406-5.344c1.035-1.531,2.5-2.829,4.387-3.891
				c1.886-1.062,3.962-1.935,6.228-2.619c2.265-0.683,5.142-1.203,8.632-1.557c3.491-0.354,7.088-0.602,10.791-0.742
				c3.703-0.142,8.174-0.213,13.409-0.213v-7.713c0-5.048-1.345-8.774-4.032-11.18c-2.688-2.406-6.44-3.609-11.25-3.609
				c-2.879,0-5.758,0.308-8.636,0.921c-2.877,0.612-5.141,1.227-6.792,1.84c-1.652,0.612-3.68,1.461-6.086,2.547
				c-0.472,0.236-1.037,0.354-1.697,0.354c-1.228,0-2.289-0.506-3.184-1.521c-0.896-1.014-1.346-2.133-1.346-3.36
				c0-1.415,0.66-2.5,1.981-3.255c7.312-4.104,16.015-6.156,26.109-6.156c8.633,0,15.391,2.006,20.271,6.014
				c4.884,4.011,7.324,10.189,7.324,18.539v41.254c0,1.838-0.649,3.289-1.947,4.351c-1.297,1.062-2.795,1.593-4.491,1.593
				c-1.698,0-3.148-0.506-4.354-1.521c-1.202-1.014-1.804-2.44-1.804-4.28v-6.793c-4.388,9.198-11.651,13.798-21.794,13.798
				C2155.464,243.934,2149.451,242.166,2144.828,238.626z M2178.473,228.721c4.08-4.481,6.121-10.188,6.121-17.124v-2.123
				c-5.85,0-10.613,0.105-14.294,0.318c-3.679,0.213-6.935,0.592-9.765,1.133c-2.83,0.543-4.953,1.344-6.368,2.406
				c-1.415,1.061-2.466,2.346-3.147,3.855c-0.686,1.51-1.026,3.441-1.026,5.803c0,4.293,1.273,7.44,3.821,9.445
				c2.548,2.006,6.014,3.007,10.4,3.007C2169.638,235.442,2174.393,233.203,2178.473,228.721z"/>
			<path fill="#FFFFFF" d="M2144.828,238.626c-4.625-3.537-6.936-8.562-6.936-15.07c0-2.689,0.283-5.049,0.85-7.076
				c0.565-2.027,1.367-3.811,2.406-5.344c1.035-1.531,2.5-2.829,4.387-3.891c1.886-1.062,3.962-1.935,6.228-2.619
				c2.265-0.683,5.142-1.203,8.632-1.557c3.491-0.354,7.088-0.602,10.791-0.742c3.703-0.142,8.174-0.213,13.409-0.213v-7.713
				c0-5.048-1.345-8.774-4.032-11.18c-2.688-2.406-6.44-3.609-11.25-3.609c-2.879,0-5.758,0.308-8.636,0.921
				c-2.877,0.612-5.141,1.227-6.792,1.84c-1.652,0.612-3.68,1.461-6.086,2.547c-0.472,0.236-1.037,0.354-1.697,0.354
				c-1.228,0-2.289-0.506-3.184-1.521c-0.896-1.014-1.346-2.133-1.346-3.36c0-1.415,0.66-2.5,1.981-3.255
				c7.312-4.104,16.015-6.156,26.109-6.156c8.633,0,15.391,2.006,20.271,6.014c4.884,4.011,7.324,10.189,7.324,18.539v41.254
				c0,1.838-0.649,3.289-1.947,4.351c-1.297,1.062-2.795,1.593-4.491,1.593c-1.698,0-3.148-0.506-4.354-1.521
				c-1.202-1.014-1.804-2.44-1.804-4.28v-6.793c-4.388,9.198-11.651,13.798-21.794,13.798
				C2155.464,243.934,2149.451,242.166,2144.828,238.626z M2178.473,228.721c4.08-4.481,6.121-10.188,6.121-17.124v-2.123
				c-5.85,0-10.613,0.105-14.294,0.318c-3.679,0.213-6.935,0.592-9.765,1.133c-2.83,0.543-4.953,1.344-6.368,2.406
				c-1.415,1.061-2.466,2.346-3.147,3.855c-0.686,1.51-1.026,3.441-1.026,5.803c0,4.293,1.273,7.44,3.821,9.445
				c2.548,2.006,6.014,3.007,10.4,3.007C2169.638,235.442,2174.393,233.203,2178.473,228.721z"/>
		</g>
		<g>
			<path fill="none" stroke="#751C10" stroke-width="4" d="M2222.238,233.639c-6.039-6.91-9.059-15.626-9.059-26.146
				c0-6.793,1.415-12.95,4.245-18.47c2.831-5.519,6.911-9.906,12.242-13.16c5.33-3.256,11.462-4.883,18.397-4.883
				c4.056,0,7.807,0.566,11.25,1.698c3.441,1.132,6.18,2.548,8.207,4.245c1.604,1.273,2.406,2.643,2.406,4.104
				c0,1.039-0.389,1.912-1.168,2.619c-0.777,0.707-1.731,1.061-2.863,1.061c-1.039,0-2.029-0.307-2.975-0.919
				c-4.292-2.783-9.033-4.176-14.222-4.176c-6.747,0-12.22,2.537-16.417,7.607c-4.199,5.071-6.297,11.899-6.297,20.484
				c0,3.586,0.424,6.98,1.272,10.189c0.851,3.207,2.122,6.119,3.821,8.736c1.697,2.619,3.963,4.695,6.793,6.229
				s6.084,2.299,9.765,2.299c6.463,0,11.862-1.509,16.204-4.527c0.895-0.612,1.84-0.92,2.83-0.92c1.085,0,2.005,0.365,2.76,1.097
				c0.753,0.731,1.133,1.64,1.133,2.726c0,1.557-0.804,2.995-2.405,4.315c-5.097,4.104-12.268,6.155-21.511,6.155
				C2236.414,244.005,2228.275,240.548,2222.238,233.639z"/>
			<path fill="#FFFFFF" d="M2222.238,233.639c-6.039-6.91-9.059-15.626-9.059-26.146c0-6.793,1.415-12.95,4.245-18.47
				c2.831-5.519,6.911-9.906,12.242-13.16c5.33-3.256,11.462-4.883,18.397-4.883c4.056,0,7.807,0.566,11.25,1.698
				c3.441,1.132,6.18,2.548,8.207,4.245c1.604,1.273,2.406,2.643,2.406,4.104c0,1.039-0.389,1.912-1.168,2.619
				c-0.777,0.707-1.731,1.061-2.863,1.061c-1.039,0-2.029-0.307-2.975-0.919c-4.292-2.783-9.033-4.176-14.222-4.176
				c-6.747,0-12.22,2.537-16.417,7.607c-4.199,5.071-6.297,11.899-6.297,20.484c0,3.586,0.424,6.98,1.272,10.189
				c0.851,3.207,2.122,6.119,3.821,8.736c1.697,2.619,3.963,4.695,6.793,6.229s6.084,2.299,9.765,2.299
				c6.463,0,11.862-1.509,16.204-4.527c0.895-0.612,1.84-0.92,2.83-0.92c1.085,0,2.005,0.365,2.76,1.097
				c0.753,0.731,1.133,1.64,1.133,2.726c0,1.557-0.804,2.995-2.405,4.315c-5.097,4.104-12.268,6.155-21.511,6.155
				C2236.414,244.005,2228.275,240.548,2222.238,233.639z"/>
		</g>
		<g>
			<path fill="none" stroke="#751C10" stroke-width="4" d="M2282.667,240.998c-1.229-1.107-1.84-2.699-1.84-4.775v-88.236
				c0-1.982,0.646-3.539,1.944-4.67c1.298-1.133,2.818-1.699,4.563-1.699c1.698,0,3.173,0.566,4.423,1.699
				c1.249,1.131,1.875,2.688,1.875,4.67v54.131l32.125-29.437c1.036-0.896,2.146-1.345,3.326-1.345c1.508,0,2.84,0.591,3.998,1.77
				c1.155,1.179,1.732,2.5,1.732,3.962c0,1.321-0.566,2.524-1.698,3.609l-25.687,22.996l28.092,29.578
				c1.037,1.086,1.559,2.312,1.559,3.68c0,1.51-0.604,2.855-1.806,4.033c-1.202,1.18-2.582,1.77-4.14,1.77
				c-1.652,0-3.067-0.661-4.246-1.98l-33.257-35.381v30.853c0,2.026-0.647,3.606-1.944,4.739c-1.299,1.133-2.82,1.699-4.564,1.699
				C2285.377,242.66,2283.893,242.106,2282.667,240.998z"/>
			<path fill="#FFFFFF" d="M2282.667,240.998c-1.229-1.107-1.84-2.699-1.84-4.775v-88.236c0-1.982,0.646-3.539,1.944-4.67
				c1.298-1.133,2.818-1.699,4.563-1.699c1.698,0,3.173,0.566,4.423,1.699c1.249,1.131,1.875,2.688,1.875,4.67v54.131l32.125-29.437
				c1.036-0.896,2.146-1.345,3.326-1.345c1.508,0,2.84,0.591,3.998,1.77c1.155,1.179,1.732,2.5,1.732,3.962
				c0,1.321-0.566,2.524-1.698,3.609l-25.687,22.996l28.092,29.578c1.037,1.086,1.559,2.312,1.559,3.68
				c0,1.51-0.604,2.855-1.806,4.033c-1.202,1.18-2.582,1.77-4.14,1.77c-1.652,0-3.067-0.661-4.246-1.98l-33.257-35.381v30.853
				c0,2.026-0.647,3.606-1.944,4.739c-1.299,1.133-2.82,1.699-4.564,1.699C2285.377,242.66,2283.893,242.106,2282.667,240.998z"/>
		</g>
	</g>
	<g>
		<g>
			<path fill="none" stroke="#751C10" stroke-width="5" d="M2468.63,238.099l50.185-46.338l-50.185-46.332h13.604l50.189,46.332
				l-50.189,46.338H2468.63z"/>
			<path fill="#FFFFFF" d="M2468.63,238.099l50.185-46.338l-50.185-46.332h13.604l50.189,46.332l-50.189,46.338H2468.63z"/>
		</g>
	</g>
</g>
</svg>
