<?xml version="1.0" encoding="utf-8"?>
<!-- Generator: Adobe Illustrator 14.0.0, SVG Export Plug-In . SVG Version: 6.00 Build 43363)  -->
<!DOCTYPE svg PUBLIC "-//W3C//DTD SVG 1.1//EN" "http://www.w3.org/Graphics/SVG/1.1/DTD/svg11.dtd">
<svg version="1.1" id="Layer_1" xmlns="http://www.w3.org/2000/svg" xmlns:xlink="http://www.w3.org/1999/xlink" x="0px" y="0px"
	 width="431.645px" height="564.289px" viewBox="510.692 426.5 431.645 564.289"
	 enable-background="new 510.692 426.5 431.645 564.289" xml:space="preserve">
<title>Artboard 19</title>
<path fill="#362F2C" d="M759.168,435.456c0,0-10.368,0-12.672,0C473.472,440.064,512.64,898.561,512.64,898.561
	c13.824,140.543,171.648,101.376,195.841,9.217c5.761-26.496,31.104-80.642,77.185-91.01
	c126.72-29.95,156.672-129.022,156.672-190.078C942.336,517.248,866.304,438.912,759.168,435.456z M752.256,722.304
	c-57.6,0-104.832-47.23-104.832-104.832c0-57.6,47.232-104.832,104.832-104.832s104.832,47.232,104.832,104.832
	C857.088,675.072,809.855,722.304,752.256,722.304z M812.16,597.888h-26.496c-5.76,0-9.216-3.456-9.216-9.216v-26.496
	c0-5.76-3.456-9.216-9.216-9.216h-28.802c-5.76,0-9.216,3.456-9.216,9.216v26.496c0,5.76-3.456,9.216-9.216,9.216h-26.496
	c-5.76,0-9.216,3.456-9.216,9.216V633.6c0,5.762,3.456,9.218,9.216,9.218H720c5.76,0,9.216,3.456,9.216,9.216v27.646
	c0,5.762,3.456,9.217,9.216,9.217h28.802c5.76,0,9.216-3.455,9.216-9.217v-26.496c0-5.76,3.456-9.216,9.216-9.216h26.496
	c5.76,0,9.216-3.456,9.216-9.216v-26.496C820.225,601.344,815.616,597.888,812.16,597.888z"/>
</svg>
