<?xml version="1.0" encoding="utf-8"?>
<!-- Generator: Adobe Illustrator 14.0.0, SVG Export Plug-In . SVG Version: 6.00 Build 43363)  -->
<!DOCTYPE svg PUBLIC "-//W3C//DTD SVG 1.1//EN" "http://www.w3.org/Graphics/SVG/1.1/DTD/svg11.dtd">
<svg version="1.1" id="Layer_1" xmlns="http://www.w3.org/2000/svg" xmlns:xlink="http://www.w3.org/1999/xlink" x="0px" y="0px"
	 width="1440px" height="333.5px" viewBox="11 542.5 1440 333.5" enable-background="new 11 542.5 1440 333.5" xml:space="preserve"
	>
<g>
	<g>
		<g>
			<g>
				<g>
					<path fill="#362F2C" d="M434.354,681.254c0,32.096-14.978,55.632-49.213,55.632c-8.559,0-14.978-2.14-21.396-4.277v44.933
						H329.51V634.182c14.979-4.277,29.955-8.559,47.072-8.559C419.376,625.623,434.354,649.159,434.354,681.254z M402.259,683.394
						c0-14.978-6.419-27.813-23.537-27.813c-6.419,0-12.838,2.14-14.978,2.14v44.935c6.419,4.277,10.698,4.277,17.117,4.277
						C395.84,706.93,402.259,696.231,402.259,683.394z"/>
				</g>
			</g>
			<g>
				<g>
					<path fill="#362F2C" d="M539.197,661.997v62.051c-8.561,4.279-36.374,12.838-51.354,12.838
						c-23.537,0-40.652-12.838-40.652-34.233c0-23.536,17.115-32.097,42.794-32.097c8.559,0,12.838,0,17.116,2.142v-4.279
						c0-10.698-4.278-17.117-19.258-17.117c-8.559,0-21.396,2.142-32.096,4.279l-4.279-25.676c2.142,0,23.537-6.42,44.936-6.42
						C519.94,625.623,539.197,640.601,539.197,661.997z M489.985,713.35c6.419,0,12.838-2.14,17.115-4.277v-19.26
						c-2.14,0-6.419,0-12.838,0c-12.838,0-19.257,4.279-19.257,12.84C475.008,711.21,481.427,713.35,489.985,713.35z"/>
				</g>
			</g>
			<g>
				<g>
					<path fill="#362F2C" d="M665.438,681.254c0,29.956-17.115,53.492-49.213,53.492c-8.559,0-14.978-2.14-21.396-4.279V775.4
						h-34.234V634.182c14.979-4.277,29.955-8.559,47.072-8.559C650.461,625.623,665.438,649.159,665.438,681.254z M633.344,683.394
						c0-14.978-6.42-27.813-23.537-27.813c-6.419,0-12.838,2.14-14.978,2.14v44.935c6.419,4.277,10.698,4.277,17.117,4.277
						C624.784,706.93,633.344,696.231,633.344,683.394z"/>
				</g>
			</g>
			<g>
				<g>
					<path fill="#362F2C" d="M768.143,661.997v62.051c-8.559,4.279-36.373,12.838-51.352,12.838
						c-23.537,0-40.654-12.838-40.654-34.233c0-23.536,17.117-32.097,42.793-32.097c8.561,0,12.838,0,17.118,2.142v-4.279
						c0-10.698-4.28-17.117-19.258-17.117c-8.56,0-21.396,2.142-32.095,4.279l-4.279-25.676c2.141,0,23.536-6.42,44.934-6.42
						C748.886,625.623,768.143,640.601,768.143,661.997z M718.93,713.35c6.42,0,12.838-2.14,17.118-4.277v-19.26
						c-2.14,0-6.419,0-12.839,0c-12.838,0-19.257,4.279-19.257,12.84C703.952,711.21,710.371,713.35,718.93,713.35z"/>
				</g>
			</g>
			<g>
				<g>
					<path fill="#362F2C" d="M990.669,661.997v62.051c-8.559,4.279-36.375,12.838-51.353,12.838
						c-23.536,0-40.654-12.838-40.654-34.233c0-23.536,17.118-32.097,42.794-32.097c8.559,0,12.838,0,17.117,2.142v-4.279
						c0-10.698-4.279-17.117-19.257-17.117c-8.561,0-21.396,2.142-32.097,4.279l-4.278-25.676c2.141,0,23.535-6.42,44.934-6.42
						C971.412,625.623,990.669,640.601,990.669,661.997z M941.456,713.35c6.419,0,12.838-2.14,17.117-4.277v-19.26
						c-2.142,0-6.419,0-12.838,0c-12.839,0-19.257,4.279-19.257,12.84C926.479,711.21,932.896,713.35,941.456,713.35z"/>
				</g>
			</g>
			<g>
				<g>
					<g>
						<g>
							<path fill="#362F2C" d="M887.965,627.763c-10.699,38.516-21.396,83.447-29.956,111.265
								c-8.559,27.814-21.396,38.514-42.794,38.514c-6.418,0-12.838-2.14-17.117-4.279l6.42-21.396
								c25.678,8.559,27.815-17.117,27.815-19.257c0,0-21.397,2.14-25.677-17.117l-27.815-89.866h36.374l23.537,79.167l0,0
								c4.279-25.676,10.698-51.352,17.117-79.167h32.096V627.763z"/>
						</g>
					</g>
				</g>
			</g>
		</g>
		<g>
			<g>
				<path fill="#362F2C" d="M158.336,555.014h-6.419C2.14,557.153,23.537,809.635,23.537,809.635
					c8.559,77.028,94.146,55.631,106.983,4.279c4.279-14.979,17.118-44.934,42.793-49.213
					c68.47-17.117,85.587-70.609,85.587-104.844C258.9,599.946,216.107,557.153,158.336,555.014z M154.057,713.35
					c-32.095,0-57.771-25.677-57.771-57.771c0-32.096,25.676-57.771,57.771-57.771c32.095,0,57.771,25.678,57.771,57.771
					S186.151,713.35,154.057,713.35z"/>
			</g>
			<g>
				<path fill="#362F2C" d="M186.151,644.88h-12.838c-2.14,0-4.279-2.14-4.279-4.279v-14.978c0-2.141-2.14-4.28-4.279-4.28h-17.117
					c-2.14,0-4.28,2.142-4.28,4.28v14.978c0,2.142-2.14,4.279-4.279,4.279h-17.117c-2.14,0-4.279,2.14-4.279,4.279v14.978
					c0,2.142,2.14,4.279,4.279,4.279h14.978c2.14,0,4.279,2.14,4.279,4.279v14.978c2.14,4.279,2.14,6.419,6.419,6.419h14.978
					c2.14,0,4.279-2.14,4.279-4.277v-14.979c0-2.14,2.14-4.279,4.279-4.279h14.978c4.279-2.14,6.419-4.277,6.419-6.419v-14.978
					C192.57,647.02,190.431,644.88,186.151,644.88z"/>
			</g>
		</g>
	</g>
	<g>
		<path fill="#362F2C" d="M1146.865,683.394c0,27.816-14.979,51.354-47.073,51.354c-10.698,0-19.257-2.14-27.815-6.419V775.4
			h-14.979V634.182c12.838-4.277,25.677-8.559,40.654-8.559C1134.026,625.623,1146.865,649.159,1146.865,683.394z M1131.887,683.394
			c0-25.676-10.697-42.793-34.232-42.793c-10.698,0-21.396,4.279-25.678,6.419v68.472c8.561,4.277,14.979,6.419,25.678,6.419
			C1121.188,721.908,1131.887,704.79,1131.887,683.394z"/>
		<path fill="#362F2C" d="M1178.96,572.131h14.978v160.478h-14.978V572.131z"/>
		<path fill="#362F2C" d="M1311.619,661.997v62.051c-6.419,4.279-29.955,12.838-47.072,12.838
			c-21.396,0-38.515-12.838-38.515-32.096c0-25.676,19.258-32.095,47.073-32.095c10.696,0,17.115,0,23.534,2.14v-10.698
			c0-12.838-8.559-23.534-27.813-23.534c-10.698,0-21.396,2.14-34.234,4.277l-2.14-12.838c8.559-2.14,25.676-6.419,40.653-6.419
			C1296.642,625.623,1311.619,640.601,1311.619,661.997z M1266.688,724.048c12.839,0,25.677-6.419,29.954-8.559v-32.098
			c-4.277,0-10.696-2.14-21.396-2.14c-21.396,0-34.234,4.279-34.234,23.536C1241.011,717.629,1251.709,724.048,1266.688,724.048z"/>
		<g>
			<g>
				<path fill="#362F2C" d="M1339.436,762.562c2.142,0,2.142,0,4.279,0c6.419,0,10.698-2.142,14.979-6.421
					c4.278-4.277,8.559-12.838,10.696-21.396l-40.651-106.983h17.117l29.954,85.587l29.955-85.587h17.117l-40.654,106.983
					c-6.418,14.979-12.838,25.676-17.115,32.095c-6.419,6.419-12.838,8.561-19.258,8.561c-4.278,0-6.418,0-10.697,0"/>
			</g>
		</g>
	</g>
</g>
</svg>
