<?xml version="1.0" encoding="utf-8"?>
<!-- Generator: Adobe Illustrator 18.1.1, SVG Export Plug-In . SVG Version: 6.00 Build 0)  -->
<!DOCTYPE svg PUBLIC "-//W3C//DTD SVG 1.1//EN" "http://www.w3.org/Graphics/SVG/1.1/DTD/svg11.dtd">
<svg version="1.1" id="Layer_1" xmlns="http://www.w3.org/2000/svg" xmlns:xlink="http://www.w3.org/1999/xlink" x="0px" y="0px"
	 width="522.7px" height="113.6px" viewBox="-250 328.4 522.7 113.6" enable-background="new -250 328.4 522.7 113.6"
	 xml:space="preserve">
<g>
	<g>
		<g>
			<g>
				<g>
					<path fill="#0C8B4C" d="M-81.4,376.9c0,9.8-5.2,17.5-16.1,17.5c-2.4,0-4.8-0.5-7-1.4v14.7h-10.7v-45.9
						c4.6-1.7,9.4-2.9,14.9-2.9C-86.4,358.8-81.4,366.6-81.4,376.9z M-91.9,377.1c0-5-2.1-8.7-7.5-8.7c-2,0-3.9,0.6-5,1v14.4
						c2,1,3.4,1.5,5.2,1.5C-94.4,385.2-91.9,381.8-91.9,377.1z"/>
				</g>
			</g>
			<g>
				<g>
					<path fill="#0C8B4C" d="M-48.1,370.1v20.3c-2.6,1.6-11.4,4-16.6,4c-7.7,0-13.3-3.9-13.3-10.7c0-7.5,5.7-10.2,14-10.2
						c2.4,0,4,0.2,5.5,0.4v-1.5c-0.1-3.2-1.7-5.2-6.1-5.2c-2.9,0-6.6,0.5-10.1,1.3l-1.1-8c1-0.3,7.5-1.8,14.2-1.8
						C-54.1,358.8-48.1,363.4-48.1,370.1z M-63.8,387.4c2.2,0,4.5-0.9,5.4-1.3l-0.1-6.4c-0.5-0.1-2-0.3-3.9-0.3
						c-3.8,0-6.4,1.2-6.4,4.3C-68.8,386.4-66.5,387.4-63.8,387.4z"/>
				</g>
			</g>
			<g>
				<g>
					<path fill="#0C8B4C" d="M-7,376.9c0,9.8-5.2,17.5-16.1,17.5c-2.4,0-4.8-0.5-7-1.4v14.7h-10.7v-45.9c4.6-1.7,9.4-2.9,14.9-2.9
						C-12,358.8-7,366.6-7,376.9z M-17.5,377.1c0-5-2.1-8.7-7.5-8.7c-2,0-3.9,0.6-5,1v14.4c2,1,3.4,1.5,5.2,1.5
						C-20,385.2-17.5,381.8-17.5,377.1z"/>
				</g>
			</g>
			<g>
				<g>
					<path fill="#0C8B4C" d="M25.8,370.1v20.3c-2.6,1.6-11.4,4-16.6,4c-7.7,0-13.3-3.9-13.3-10.7c0-7.5,5.7-10.2,14-10.2
						c2.4,0,4,0.2,5.5,0.4v-1.5c-0.1-3.2-1.7-5.2-6.1-5.2c-2.9,0-6.6,0.5-10.1,1.3l-1.1-8c1-0.3,7.5-1.8,14.2-1.8
						C19.8,358.8,25.8,363.4,25.8,370.1z M10.1,387.4c2.2,0,4.5-0.9,5.4-1.3l-0.1-6.4c-0.5-0.1-2-0.3-3.9-0.3
						c-3.8,0-6.4,1.2-6.4,4.3C5.1,386.4,7.4,387.4,10.1,387.4z"/>
				</g>
			</g>
			<g>
				<g>
					<path fill="#0C8B4C" d="M97.5,370.1v20.3c-2.6,1.6-11.4,4-16.6,4c-7.7,0-13.3-3.9-13.3-10.7c0-7.5,5.7-10.2,14-10.2
						c2.4,0,4,0.2,5.5,0.4v-1.5c-0.1-3.2-1.7-5.2-6.1-5.2c-2.9,0-6.6,0.5-10.1,1.3l-1.1-8c1-0.3,7.5-1.8,14.2-1.8
						C91.6,358.8,97.5,363.4,97.5,370.1z M81.9,387.4c2.2,0,4.5-0.9,5.4-1.3l-0.1-6.4c-0.5-0.1-2-0.3-3.9-0.3
						c-3.8,0-6.4,1.2-6.4,4.3C76.8,386.4,79.2,387.4,81.9,387.4z"/>
				</g>
			</g>
			<g>
				<g>
					<g>
						<g>
							<path fill="#0C8B4C" d="M64.7,359.7c-3.5,12.8-7.2,27.1-9.4,36.2c-2.1,9.2-7,12.4-13.5,12.4c-2.4,0-4.1-0.6-5.6-1.1l1.9-7
								c8.1,2.9,9.2-5.4,9.2-6.3c0,0-6.7,0.8-8.5-5.2l-9.1-29.1h11.5l7.8,25.3h0.1c1.7-8,3.5-16.8,5.2-25.3L64.7,359.7L64.7,359.7z"
								/>
						</g>
					</g>
				</g>
			</g>
		</g>
		<g>
			<g>
				<path fill="#0C8B4C" d="M-170.7,336.1c0,0-1.9,0-2.2,0c-48.2,0.9-41.2,81.8-41.2,81.8c2.5,24.9,30.5,18,34.6,1.5
					c1.1-4.6,5.6-14.2,13.7-16.2c22.4-5.4,27.7-22.9,27.6-33.6C-138.4,350.7-151.7,336.8-170.7,336.1z M-171.8,386.9
					c-10.2,0-18.4-8.2-18.4-18.4c0-10.2,8.2-18.4,18.4-18.4s18.4,8.2,18.4,18.4C-153.4,378.7-161.6,386.9-171.8,386.9z"/>
			</g>
			<g>
				<path fill="#0C8B4C" d="M-161.4,364.8h-4.8c-0.8,0-1.5-0.7-1.5-1.5v-4.8c0-0.8-0.7-1.5-1.5-1.5h-5c-0.8,0-1.5,0.7-1.5,1.5v4.8
					c0,0.8-0.7,1.5-1.5,1.5h-4.8c-0.8,0-1.5,0.7-1.5,1.5v4.8c0,0.8,0.7,1.5,1.5,1.5h4.8c0.8,0,1.5,0.7,1.5,1.5v4.8
					c0,0.8,0.7,1.5,1.5,1.5h5c0.8,0,1.5-0.7,1.5-1.5v-4.8c0-0.8,0.7-1.5,1.5-1.5h4.8c0.8,0,1.5-0.7,1.5-1.5v-4.7
					C-159.8,365.5-160.5,364.8-161.4,364.8z"/>
			</g>
		</g>
	</g>
	<g>
		<path fill="#0C8B4C" d="M148.4,377.3c0,9-5.1,16.8-15.6,16.8c-3.5,0-6.4-0.8-9.1-2.1v15.3h-5v-45.6c4-1.7,8.5-2.9,13-2.9
			C143.7,358.8,148.4,366.5,148.4,377.3z M143.4,377.4c0-8.1-3.2-14.1-11.3-14.1c-3.7,0-7.1,1.3-8.3,1.9v22.4
			c2.8,1.6,5.1,2.4,8.3,2.4C139.5,389.9,143.4,384.1,143.4,377.4z"/>
		<path fill="#0C8B4C" d="M158.6,341.4h5l-0.1,52.1h-4.8L158.6,341.4z"/>
		<path fill="#0C8B4C" d="M201.5,370.2v20c-2.2,1.3-9.6,4-15.3,4c-7,0-12.2-3.9-12.2-10.1c0-7.9,6.3-10.6,15.1-10.6
			c3.2,0,5.6,0.3,7.4,0.6V371c0-4-2.6-7.8-8.9-7.8c-3.2,0-7.2,0.7-11,1.7l-0.7-3.8c2.8-0.9,7.9-2.1,12.9-2.1
			C196.2,358.9,201.5,363.7,201.5,370.2z M186.6,390.6c4.2,0,8.6-1.9,9.9-2.6v-10.8c-1.2-0.2-3.5-0.5-6.7-0.5
			c-6.6,0-11.3,1.7-11.3,7.3C178.5,388.3,182.2,390.6,186.6,390.6z"/>
		<g>
			<g>
				<path fill="#0C8B4C" d="M210,403.2c0.4,0,0.8,0.1,1.1,0.1c1.9,0,3.4-0.7,4.6-2.2c1.2-1.4,2.4-3.8,3.6-7.1l-12.9-34.4h5.6
					l9.8,27.5l9.8-27.5h5.6L224,394.1c-1.9,5.1-3.8,8.6-5.6,10.6c-1.9,2-4,3-6.4,3c-1.1,0-2.3-0.1-3.4-0.3"/>
			</g>
		</g>
	</g>
</g>
</svg>
