<?xml version="1.0" encoding="utf-8"?>
<!-- Generator: Adobe Illustrator 14.0.0, SVG Export Plug-In . SVG Version: 6.00 Build 43363)  -->
<!DOCTYPE svg PUBLIC "-//W3C//DTD SVG 1.1//EN" "http://www.w3.org/Graphics/SVG/1.1/DTD/svg11.dtd">
<svg version="1.1" id="Layer_1" xmlns="http://www.w3.org/2000/svg" xmlns:xlink="http://www.w3.org/1999/xlink" x="0px" y="0px"
	 width="10.047px" height="11.613px" viewBox="0 0 10.047 11.613" enable-background="new 0 0 10.047 11.613" xml:space="preserve">
<g id="Layer_12">
	<polygon fill="#FFB947" points="0.04,8.727 0.035,2.949 5.036,0.055 10.043,2.94 10.047,8.716 5.047,11.613 	"/>
</g>
<g id="Layer_10">
</g>
<g id="Layer_13">
	<g>
		<g>
			<defs>
				<polygon id="SVGID_1_" points="0.04,8.727 0.035,2.95 5.037,0.056 10.043,2.941 10.047,8.716 5.047,11.613 				"/>
			</defs>
			<clipPath id="SVGID_2_">
				<use xlink:href="#SVGID_1_"  overflow="visible"/>
			</clipPath>
			
				<linearGradient id="SVGID_3_" gradientUnits="userSpaceOnUse" x1="-405.2051" y1="324.0015" x2="-405.2051" y2="336.1733" gradientTransform="matrix(1 0 0 -1 414 335.6123)">
				<stop  offset="0" style="stop-color:#FFFFFF;stop-opacity:0.25"/>
				<stop  offset="0.7178" style="stop-color:#FFFFFF;stop-opacity:0"/>
			</linearGradient>
			<rect x="5.042" y="-0.562" clip-path="url(#SVGID_2_)" fill="url(#SVGID_3_)" width="7.505" height="12.173"/>
		</g>
	</g>
</g>
<g id="Group_72_1_">
	<g id="Shape_57">
		<g>
			<circle fill="#FFFFFF" cx="5.041" cy="5.833" r="3.062"/>
		</g>
	</g>
	<polygon fill="#FFB947" points="5.034,2.798 5.926,4.607 7.922,4.896 6.479,6.304 6.819,8.291 5.034,7.353 3.249,8.291 
		3.589,6.304 2.145,4.896 4.141,4.607 	"/>
</g>
<g id="Layer_17">
</g>
<g id="Layer_18">
	<g>
		<g>
			<defs>
				<polygon id="SVGID_4_" points="5.034,2.799 5.926,4.607 7.922,4.897 6.479,6.304 6.819,8.291 5.034,7.355 3.249,8.291 
					3.589,6.304 2.145,4.897 4.141,4.607 				"/>
			</defs>
			<clipPath id="SVGID_5_">
				<use xlink:href="#SVGID_4_"  overflow="visible"/>
			</clipPath>
			
				<linearGradient id="SVGID_6_" gradientUnits="userSpaceOnUse" x1="-405.9307" y1="325.105" x2="-405.9307" y2="334.9497" gradientTransform="matrix(1 0 0 -1 414 335.6123)">
				<stop  offset="0" style="stop-color:#FFFFFF;stop-opacity:0.25"/>
				<stop  offset="0.7178" style="stop-color:#FFFFFF;stop-opacity:0"/>
			</linearGradient>
			<rect x="5.034" y="0.662" clip-path="url(#SVGID_5_)" fill="url(#SVGID_6_)" width="6.07" height="9.845"/>
		</g>
	</g>
</g>
</svg>
