<?xml version="1.0" encoding="utf-8"?>
<!-- Generator: Adobe Illustrator 14.0.0, SVG Export Plug-In . SVG Version: 6.00 Build 43363)  -->
<!DOCTYPE svg PUBLIC "-//W3C//DTD SVG 1.1//EN" "http://www.w3.org/Graphics/SVG/1.1/DTD/svg11.dtd">
<svg version="1.1" id="Layer_1" xmlns="http://www.w3.org/2000/svg" xmlns:xlink="http://www.w3.org/1999/xlink" x="0px" y="0px"
	 width="1395.835px" height="192.167px" viewBox="0 0 1395.835 192.167" enable-background="new 0 0 1395.835 192.167"
	 xml:space="preserve">
<g id="Layer_4">
	<g>
		<g>
			<path fill="none" stroke="#FF9D00" stroke-width="4" d="M28.967,2.146h1337.896c14.826,0,26.846,12.018,26.846,26.839v134.198
				c0,14.821-12.02,26.839-26.846,26.839H28.967c-14.823,0-26.84-12.018-26.84-26.839V28.985
				C2.126,14.163,14.144,2.146,28.967,2.146z"/>
			
				<linearGradient id="SVGID_1_" gradientUnits="userSpaceOnUse" x1="-130.082" y1="739.0806" x2="-130.082" y2="551.2046" gradientTransform="matrix(1 0 0 1 828 -549.0586)">
				<stop  offset="0" style="stop-color:#FFB206"/>
				<stop  offset="0.5644" style="stop-color:#FFC018"/>
				<stop  offset="1" style="stop-color:#FFBE35"/>
			</linearGradient>
			<path fill="url(#SVGID_1_)" d="M28.967,2.146h1337.896c14.826,0,26.846,12.018,26.846,26.839v134.198
				c0,14.821-12.02,26.839-26.846,26.839H28.967c-14.823,0-26.84-12.018-26.84-26.839V28.985
				C2.126,14.163,14.144,2.146,28.967,2.146z"/>
		</g>
	</g>
	<g display="none">
		<path display="inline" fill="#FFFFFF" d="M372.587,120.583c-3.49-2.25-6.106-5.258-7.853-9.021s-2.615-8.021-2.615-12.773
			c0-3.535,0.532-6.854,1.601-9.951c1.067-3.1,2.577-5.803,4.528-8.109c1.949-2.307,4.406-4.126,7.369-5.458
			c2.961-1.331,6.242-1.997,9.848-1.997c4.454,0,8.597,1.067,12.431,3.202c1.01,0.551,1.515,1.343,1.515,2.376
			c0,0.734-0.252,1.377-0.757,1.93c-0.505,0.551-1.112,0.825-1.823,0.825c-0.346,0-0.725-0.091-1.138-0.274
			c-0.092-0.045-0.374-0.188-0.844-0.432c-0.471-0.24-0.854-0.424-1.153-0.551c-0.298-0.126-0.758-0.298-1.377-0.518
			c-0.62-0.217-1.217-0.391-1.791-0.518c-0.572-0.125-1.292-0.234-2.15-0.326c-0.861-0.092-1.75-0.139-2.668-0.139
			c-2.229,0-4.248,0.346-6.062,1.033c-1.812,0.688-3.34,1.642-4.58,2.857c-1.24,1.217-2.285,2.664-3.134,4.34
			s-1.469,3.481-1.859,5.422c-0.391,1.939-0.585,4-0.585,6.182s0.194,4.234,0.585,6.164c0.393,1.929,1.012,3.727,1.859,5.391
			c0.849,1.662,1.899,3.094,3.151,4.285c1.251,1.193,2.801,2.137,4.647,2.823c1.849,0.688,3.908,1.032,6.183,1.032
			c2.043,0,3.833-0.271,5.371-0.809c1.537-0.539,3.202-1.314,4.992-2.324c0.459-0.252,0.896-0.379,1.311-0.379
			c0.711,0,1.32,0.264,1.825,0.793c0.505,0.525,0.758,1.146,0.758,1.857c0,1.057-0.574,1.951-1.722,2.688
			c-3.836,2.502-8.356,3.752-13.567,3.752C380.175,123.956,376.076,122.833,372.587,120.583z"/>
		<path display="inline" fill="#FFFFFF" d="M410.706,122.441c-0.599-0.505-0.896-1.217-0.896-2.135V91.898
			c0-0.918,0.312-1.624,0.93-2.116c0.62-0.494,1.354-0.74,2.204-0.74c0.852,0,1.578,0.246,2.188,0.74
			c0.606,0.492,0.913,1.176,0.913,2.049l-0.034,4.131c0.573-2.135,1.727-3.918,3.46-5.354c1.732-1.434,3.816-2.15,6.25-2.15
			c0.735,0,1.314,0.273,1.739,0.826c0.425,0.551,0.637,1.192,0.637,1.928c0,0.688-0.195,1.279-0.585,1.772
			c-0.391,0.494-0.953,0.741-1.688,0.741c-3.1,0-5.505,0.805-7.215,2.41s-2.563,3.753-2.563,6.439v17.731
			c0,0.918-0.315,1.63-0.947,2.135c-0.632,0.507-1.372,0.759-2.221,0.759C412.027,123.2,411.303,122.946,410.706,122.441z"/>
		<path display="inline" fill="#FFFFFF" d="M441.008,121.684c-2.548-1.398-4.575-3.46-6.078-6.182
			c-1.504-2.721-2.255-5.895-2.255-9.521c0-3.188,0.631-6.104,1.894-8.745c1.264-2.641,3.168-4.787,5.717-6.439
			s5.521-2.479,8.919-2.479c2.686,0,5.038,0.446,7.059,1.344c2.02,0.896,3.627,2.129,4.821,3.701
			c1.191,1.572,2.088,3.328,2.686,5.27c0.598,1.939,0.93,4.068,0.999,6.387c0,0.666-0.184,1.219-0.551,1.652
			c-0.367,0.436-0.918,0.654-1.653,0.654h-23.622c0.046,3.947,1.104,6.938,3.167,8.971c2.066,2.031,4.719,3.07,7.955,3.115
			c2.043,0,3.879-0.367,5.509-1.103c1.632-0.733,3.271-1.731,4.926-2.996c0.413-0.319,0.849-0.481,1.309-0.481
			c0.551,0,1.016,0.213,1.396,0.639c0.377,0.425,0.567,0.924,0.567,1.498c0,0.734-0.322,1.389-0.964,1.962
			c-3.628,3.26-8.012,4.892-13.154,4.892C446.437,123.795,443.556,123.084,441.008,121.684z M459.326,103.502
			c-0.207-3.213-1.112-5.842-2.72-7.885c-1.605-2.043-3.96-3.064-7.059-3.064c-1.607,0-3.064,0.311-4.373,0.93
			c-1.311,0.62-2.382,1.452-3.22,2.497s-1.504,2.204-1.997,3.479c-0.494,1.271-0.798,2.621-0.913,4.045L459.326,103.502
			L459.326,103.502z"/>
		<path display="inline" fill="#FFFFFF" d="M473.823,121.237c-2.25-1.724-3.375-4.168-3.375-7.337c0-1.31,0.14-2.454,0.414-3.442
			c0.275-0.985,0.666-1.854,1.171-2.601c0.505-0.745,1.218-1.377,2.136-1.894c0.917-0.518,1.928-0.941,3.028-1.274
			c1.104-0.333,2.502-0.585,4.201-0.758c1.699-0.172,3.449-0.292,5.251-0.36s3.979-0.104,6.525-0.104v-3.754
			c0-2.455-0.654-4.27-1.962-5.439c-1.311-1.171-3.135-1.756-5.477-1.756c-1.398,0-2.801,0.15-4.199,0.447
			c-1.4,0.299-2.503,0.598-3.308,0.896c-0.804,0.299-1.791,0.711-2.961,1.238c-0.229,0.115-0.505,0.172-0.826,0.172
			c-0.598,0-1.112-0.247-1.55-0.738c-0.436-0.494-0.653-1.039-0.653-1.638c0-0.688,0.321-1.217,0.964-1.584
			c3.559-1.997,7.793-2.996,12.706-2.996c4.2,0,7.489,0.978,9.865,2.929s3.564,4.957,3.564,9.021v20.075
			c0,0.896-0.316,1.602-0.947,2.117c-0.632,0.518-1.359,0.773-2.187,0.773c-0.826,0-1.532-0.246-2.118-0.738
			c-0.585-0.494-0.878-1.188-0.878-2.084v-3.307c-2.137,4.479-5.67,6.714-10.606,6.714C479,123.819,476.073,122.958,473.823,121.237
			z M490.196,116.415c1.985-2.182,2.979-4.957,2.979-8.332v-1.032c-2.846,0-5.165,0.051-6.956,0.153
			c-1.791,0.104-3.375,0.287-4.752,0.551c-1.377,0.266-2.41,0.654-3.099,1.172s-1.2,1.145-1.532,1.877
			c-0.333,0.734-0.5,1.676-0.5,2.822c0,2.09,0.62,3.623,1.858,4.599c1.239,0.978,2.929,1.463,5.062,1.463
			C485.897,119.686,488.211,118.597,490.196,116.415z"/>
		<path display="inline" fill="#FFFFFF" d="M514.249,121.116c-1.562-1.711-2.343-4.346-2.343-7.902V93.379h-4.199
			c-0.759,0-1.337-0.184-1.739-0.551s-0.604-0.861-0.604-1.48c0-0.598,0.194-1.085,0.585-1.464c0.392-0.378,0.966-0.568,1.724-0.568
			h4.233l0.826-9.778c0.046-0.734,0.373-1.365,0.981-1.895c0.606-0.527,1.277-0.792,2.014-0.792c0.689,0,1.263,0.212,1.722,0.638
			s0.688,1.039,0.688,1.842v9.985h6.336c0.757,0,1.326,0.195,1.705,0.587c0.379,0.389,0.567,0.895,0.567,1.514
			c0,1.309-0.758,1.963-2.271,1.963h-6.335v18.767c0,2.364,0.333,4.069,0.999,5.113c0.666,1.045,1.722,1.567,3.168,1.567h0.379
			l2.341-0.104h0.207c0.758,0,1.354,0.241,1.791,0.724c0.438,0.481,0.654,1.045,0.654,1.688c0,0.573-0.126,1.038-0.379,1.396
			c-0.253,0.355-0.637,0.613-1.154,0.774c-0.516,0.159-1.033,0.265-1.549,0.312c-0.516,0.045-1.188,0.066-2.015,0.066h-2.031
			C517.91,123.681,515.81,122.827,514.249,121.116z"/>
		<path display="inline" fill="#FFFFFF" d="M541.107,121.684c-2.548-1.398-4.575-3.46-6.078-6.182
			c-1.504-2.721-2.256-5.895-2.256-9.521c0-3.188,0.632-6.104,1.896-8.745c1.262-2.641,3.168-4.787,5.716-6.439
			s5.521-2.479,8.918-2.479c2.686,0,5.039,0.446,7.059,1.344c2.021,0.896,3.627,2.129,4.82,3.701s2.089,3.328,2.688,5.27
			c0.597,1.939,0.93,4.068,0.998,6.387c0,0.666-0.185,1.219-0.552,1.652c-0.366,0.436-0.918,0.654-1.651,0.654h-23.622
			c0.046,3.947,1.102,6.938,3.167,8.971c2.063,2.031,4.718,3.07,7.955,3.115c2.043,0,3.879-0.367,5.509-1.103
			c1.63-0.733,3.271-1.731,4.924-2.996c0.413-0.319,0.849-0.481,1.31-0.481c0.552,0,1.017,0.213,1.396,0.639
			c0.378,0.425,0.568,0.924,0.568,1.498c0,0.734-0.322,1.389-0.966,1.962c-3.627,3.26-8.012,4.892-13.151,4.892
			C546.535,123.795,543.655,123.084,541.107,121.684z M559.427,103.502c-0.207-3.213-1.114-5.842-2.72-7.885
			c-1.607-2.043-3.96-3.064-7.061-3.064c-1.605,0-3.062,0.311-4.373,0.93c-1.309,0.62-2.382,1.452-3.22,2.497
			s-1.504,2.204-1.997,3.479c-0.494,1.271-0.798,2.621-0.913,4.045L559.427,103.502L559.427,103.502z"/>
		<path display="inline" fill="#FFFFFF" d="M606.843,102.677L591.278,78.78c-0.32-0.482-0.48-1.012-0.48-1.584
			c0-0.851,0.36-1.584,1.085-2.205c0.723-0.62,1.544-0.931,2.462-0.931c1.193,0,2.135,0.552,2.824,1.653L610.734,97.2l13.637-21.589
			c0.688-1.079,1.584-1.618,2.687-1.618c0.78,0,1.463,0.264,2.049,0.792c0.585,0.527,0.878,1.159,0.878,1.894
			c0,0.574-0.172,1.125-0.517,1.652l-15.633,24.104v17.423c0,1.033-0.346,1.845-1.033,2.429c-0.689,0.586-1.504,0.879-2.445,0.879
			c-0.964,0-1.79-0.293-2.479-0.879c-0.688-0.584-1.033-1.404-1.033-2.461L606.843,102.677L606.843,102.677z"/>
		<path display="inline" fill="#FFFFFF" d="M640.02,118.827c-3.111-3.33-4.666-7.576-4.666-12.742c0-5.188,1.555-9.445,4.666-12.774
			c3.111-3.328,7.307-4.993,12.586-4.993c5.28,0,9.475,1.658,12.586,4.977c3.11,3.318,4.666,7.582,4.666,12.793
			c0,5.164-1.549,9.412-4.646,12.74c-3.101,3.328-7.301,4.992-12.604,4.992C647.326,123.819,643.131,122.155,640.02,118.827z
			 M660.749,115.95c1.938-2.397,2.909-5.688,2.909-9.865c0-4.153-0.98-7.448-2.943-9.881c-1.963-2.435-4.666-3.65-8.109-3.65
			c-3.466,0-6.176,1.211-8.126,3.633c-1.951,2.422-2.927,5.723-2.927,9.898c0,4.134,0.969,7.41,2.91,9.832
			c1.938,2.422,4.631,3.633,8.074,3.633C656.071,119.549,658.809,118.35,660.749,115.95z"/>
		<path display="inline" fill="#FFFFFF" d="M680.583,120.497c-2.263-2.217-3.394-5.551-3.394-10.004V91.931
			c0-0.94,0.312-1.67,0.932-2.187c0.619-0.519,1.354-0.774,2.203-0.774c0.849,0,1.577,0.258,2.188,0.774
			c0.607,0.517,0.912,1.246,0.912,2.187v18.629c0,2.938,0.666,5.171,1.997,6.696c1.331,1.527,3.235,2.291,5.715,2.291
			c2.664,0,4.912-0.936,6.75-2.807c1.834-1.871,2.834-4.438,2.996-7.695V91.931c0-0.917,0.311-1.642,0.93-2.169
			c0.621-0.528,1.355-0.792,2.205-0.792c0.848,0,1.572,0.258,2.168,0.774c0.598,0.517,0.896,1.246,0.896,2.187v28.34
			c0,0.918-0.312,1.636-0.934,2.151c-0.619,0.517-1.354,0.775-2.203,0.775c-0.848,0-1.57-0.248-2.17-0.74
			c-0.596-0.494-0.895-1.188-0.895-2.084v-3.064c-0.873,2.089-2.309,3.695-4.305,4.82c-1.998,1.125-4.314,1.688-6.955,1.688
			C685.856,123.819,682.844,122.711,680.583,120.497z"/>
		<path display="inline" fill="#FFFFFF" d="M718.513,122.441c-0.596-0.505-0.896-1.217-0.896-2.135V91.898
			c0-0.918,0.311-1.624,0.932-2.116c0.619-0.494,1.354-0.74,2.203-0.74c0.848,0,1.576,0.246,2.188,0.74
			c0.607,0.492,0.912,1.176,0.912,2.049l-0.035,4.131c0.574-2.135,1.729-3.918,3.461-5.354c1.732-1.434,3.816-2.15,6.25-2.15
			c0.734,0,1.314,0.273,1.738,0.826c0.426,0.551,0.637,1.192,0.637,1.928c0,0.688-0.193,1.279-0.584,1.772
			c-0.391,0.494-0.953,0.741-1.688,0.741c-3.102,0-5.504,0.805-7.215,2.41c-1.709,1.605-2.564,3.753-2.564,6.439v17.731
			c0,0.918-0.314,1.63-0.947,2.135c-0.631,0.507-1.371,0.759-2.221,0.759C719.832,123.2,719.109,122.946,718.513,122.441z"/>
		<path display="inline" fill="#FFFFFF" d="M793.82,110.665H770.13l-4.062,10.469c-0.574,1.516-1.643,2.271-3.203,2.271
			c-0.895,0-1.691-0.287-2.393-0.859c-0.701-0.574-1.051-1.297-1.051-2.17c0-0.367,0.092-0.793,0.271-1.273l16.357-40.598
			c0.779-1.951,1.623-3.242,2.531-3.875c0.904-0.631,2.037-0.947,3.391-0.947c1.355,0,2.484,0.316,3.393,0.947
			c0.91,0.631,1.75,1.923,2.531,3.875l16.355,40.598c0.184,0.48,0.275,0.906,0.275,1.273c0,0.873-0.355,1.596-1.068,2.17
			c-0.711,0.572-1.516,0.859-2.41,0.859c-1.537,0-2.594-0.758-3.168-2.271L793.82,110.665z M781.974,80.225l-9.883,25.447h19.766
			L781.974,80.225z"/>
		<path display="inline" fill="#FFFFFF" d="M813.859,118.809c-2.938-3.361-4.406-7.604-4.406-12.725
			c0-3.305,0.689-6.301,2.064-8.986c1.379-2.686,3.363-4.818,5.959-6.402c2.594-1.584,5.578-2.377,8.951-2.377
			c1.975,0,3.801,0.274,5.477,0.825c1.678,0.552,3.008,1.24,3.994,2.065c0.779,0.621,1.172,1.287,1.172,1.998
			c0,0.504-0.188,0.93-0.566,1.272c-0.379,0.345-0.846,0.519-1.396,0.519c-0.504,0-0.986-0.149-1.445-0.448
			c-2.088-1.354-4.396-2.032-6.92-2.032c-3.283,0-5.947,1.234-7.99,3.702s-3.064,5.791-3.064,9.969c0,1.745,0.207,3.397,0.621,4.959
			c0.412,1.562,1.031,2.979,1.859,4.252c0.826,1.274,1.928,2.284,3.305,3.03s2.961,1.119,4.752,1.119
			c3.146,0,5.773-0.734,7.885-2.204c0.439-0.298,0.896-0.447,1.379-0.447c0.527,0,0.979,0.179,1.346,0.534
			c0.365,0.355,0.551,0.798,0.551,1.324c0,0.759-0.393,1.459-1.172,2.102c-2.48,1.997-5.971,2.996-10.467,2.996
			C820.759,123.853,816.8,122.172,813.859,118.809z"/>
		<path display="inline" fill="#FFFFFF" d="M846.884,118.809c-2.939-3.361-4.408-7.604-4.408-12.725
			c0-3.305,0.689-6.301,2.066-8.986s3.359-4.818,5.955-6.402s5.578-2.377,8.953-2.377c1.977,0,3.801,0.274,5.477,0.825
			c1.676,0.552,3.008,1.24,3.994,2.065c0.779,0.621,1.172,1.287,1.172,1.998c0,0.504-0.189,0.93-0.568,1.272
			c-0.379,0.345-0.844,0.519-1.395,0.519c-0.508,0-0.988-0.149-1.447-0.448c-2.088-1.354-4.396-2.032-6.922-2.032
			c-3.281,0-5.945,1.234-7.988,3.702s-3.062,5.791-3.062,9.969c0,1.745,0.205,3.397,0.619,4.959s1.031,2.979,1.859,4.252
			c0.826,1.274,1.928,2.284,3.307,3.03c1.377,0.746,2.961,1.119,4.75,1.119c3.146,0,5.773-0.734,7.887-2.204
			c0.436-0.298,0.895-0.447,1.377-0.447c0.527,0,0.977,0.179,1.344,0.534s0.551,0.798,0.551,1.324c0,0.759-0.391,1.459-1.172,2.102
			c-2.479,1.997-5.969,2.996-10.467,2.996C853.781,123.853,849.82,122.172,846.884,118.809z"/>
		<path display="inline" fill="#FFFFFF" d="M880.162,118.827c-3.107-3.33-4.662-7.576-4.662-12.742
			c0-5.188,1.555-9.445,4.662-12.774c3.109-3.328,7.309-4.993,12.588-4.993c5.277,0,9.477,1.658,12.586,4.977
			c3.107,3.32,4.666,7.582,4.666,12.793c0,5.164-1.551,9.412-4.648,12.74c-3.1,3.328-7.301,4.992-12.604,4.992
			C887.47,123.819,883.273,122.155,880.162,118.827z M900.892,115.95c1.939-2.397,2.91-5.688,2.91-9.865
			c0-4.153-0.982-7.448-2.945-9.881c-1.963-2.435-4.666-3.65-8.105-3.65c-3.469,0-6.178,1.211-8.127,3.633
			c-1.951,2.422-2.93,5.723-2.93,9.898c0,4.134,0.973,7.41,2.91,9.832c1.939,2.422,4.631,3.633,8.074,3.633
			C896.216,119.549,898.953,118.35,900.892,115.95z"/>
		<path display="inline" fill="#FFFFFF" d="M920.726,120.497c-2.262-2.217-3.393-5.551-3.393-10.004V91.931
			c0-0.94,0.311-1.67,0.93-2.187c0.621-0.519,1.355-0.774,2.205-0.774s1.578,0.258,2.186,0.774c0.609,0.516,0.912,1.246,0.912,2.187
			v18.629c0,2.938,0.666,5.171,1.998,6.696c1.332,1.527,3.236,2.291,5.717,2.291c2.662,0,4.912-0.936,6.748-2.807
			c1.838-1.871,2.836-4.438,2.996-7.695V91.931c0-0.917,0.312-1.642,0.93-2.169c0.621-0.528,1.355-0.792,2.205-0.792
			c0.852,0,1.57,0.258,2.168,0.774c0.6,0.516,0.896,1.246,0.896,2.187v28.34c0,0.918-0.311,1.636-0.93,2.151
			c-0.621,0.516-1.355,0.775-2.205,0.775c-0.848,0-1.572-0.248-2.168-0.74c-0.598-0.494-0.896-1.188-0.896-2.084v-3.064
			c-0.873,2.089-2.307,3.695-4.305,4.82c-1.996,1.125-4.316,1.688-6.955,1.688C926.001,123.819,922.988,122.711,920.726,120.497z"/>
		<path display="inline" fill="#FFFFFF" d="M958.587,122.424c-0.598-0.518-0.896-1.245-0.896-2.188V91.931
			c0-0.917,0.312-1.636,0.932-2.151c0.619-0.518,1.354-0.775,2.203-0.775s1.578,0.248,2.188,0.74
			c0.607,0.494,0.912,1.188,0.912,2.084v2.996c0.873-2.088,2.301-3.697,4.287-4.822s4.299-1.688,6.938-1.688
			c3.787,0,6.809,1.104,9.059,3.307c2.25,2.205,3.375,5.545,3.375,10.021v18.596c0,0.939-0.307,1.67-0.912,2.186
			c-0.609,0.518-1.338,0.775-2.189,0.775c-0.85,0-1.578-0.26-2.188-0.775c-0.609-0.514-0.912-1.244-0.912-2.186v-18.664
			c0-2.938-0.684-5.177-2.049-6.713c-1.365-1.539-3.289-2.309-5.768-2.309c-2.641,0-4.867,0.941-6.682,2.822
			c-1.812,1.884-2.801,4.443-2.961,7.68v17.184c0,0.918-0.316,1.641-0.947,2.17c-0.631,0.525-1.371,0.791-2.221,0.791
			C959.908,123.2,959.183,122.94,958.587,122.424z"/>
		<path display="inline" fill="#FFFFFF" d="M1002.49,121.116c-1.561-1.711-2.342-4.346-2.342-7.902V93.379h-4.199
			c-0.76,0-1.338-0.184-1.738-0.551s-0.605-0.861-0.605-1.48c0-0.598,0.195-1.085,0.586-1.464c0.393-0.378,0.965-0.568,1.725-0.568
			h4.232l0.826-9.778c0.047-0.734,0.373-1.365,0.982-1.895c0.607-0.527,1.277-0.792,2.014-0.792c0.689,0,1.264,0.212,1.723,0.638
			s0.689,1.039,0.689,1.842v9.985h6.336c0.758,0,1.326,0.195,1.705,0.587c0.379,0.389,0.564,0.895,0.564,1.514
			c0,1.309-0.758,1.963-2.27,1.963h-6.336v18.767c0,2.364,0.334,4.069,0.998,5.113c0.666,1.045,1.723,1.567,3.168,1.567h0.379
			l2.342-0.104h0.207c0.758,0,1.354,0.241,1.791,0.724c0.438,0.481,0.654,1.045,0.654,1.688c0,0.573-0.127,1.038-0.379,1.396
			c-0.252,0.355-0.641,0.613-1.154,0.774c-0.516,0.159-1.033,0.265-1.549,0.312c-0.52,0.045-1.189,0.066-2.018,0.066h-2.029
			C1006.152,123.681,1004.052,122.827,1002.49,121.116z"/>
	</g>
</g>
<g id="Layer_5">
	<rect x="568.031" y="70.368" fill="none" width="240.539" height="68.998"/>
	<g enable-background="new    ">
		<path fill="#FFFFFF" d="M572.918,116.739c-0.54-0.398-0.809-1.031-0.809-1.898c0-1.148,0.416-2.279,1.248-3.393
			c0.832-1.113,1.752-1.67,2.76-1.67c0.422,0,0.832,0.117,1.23,0.352c4.382,2.625,8.977,3.938,13.781,3.938
			c3.07,0,5.56-0.551,7.471-1.652c1.91-1.102,2.865-2.73,2.865-4.887c0-1.781-0.516-3.176-1.547-4.184
			c-1.032-1.008-2.637-1.863-4.816-2.566L583.5,96.911c-4.008-1.383-6.896-3.088-8.666-5.115c-1.77-2.027-2.654-4.775-2.654-8.244
			c0-4.477,1.811-8.027,5.432-10.652s8.302-3.938,14.045-3.938c3.352,0,6.609,0.475,9.773,1.424s5.59,2.15,7.277,3.604
			c0.726,0.656,1.09,1.5,1.09,2.531c0,1.055-0.352,2.01-1.055,2.865s-1.547,1.283-2.531,1.283c-0.516,0-1.078-0.164-1.688-0.492
			c-3.774-2.156-7.852-3.234-12.234-3.234c-1.454,0-2.772,0.1-3.955,0.299c-1.184,0.199-2.28,0.521-3.287,0.967
			c-1.008,0.445-1.793,1.078-2.355,1.898s-0.844,1.805-0.844,2.953c0,1.477,0.427,2.678,1.283,3.604
			c0.855,0.926,2.162,1.682,3.92,2.268c0.117,0.047,1.828,0.551,5.133,1.512s5.015,1.465,5.133,1.512
			c2.343,0.75,4.318,1.523,5.924,2.32c1.605,0.797,3.046,1.77,4.324,2.918c1.277,1.148,2.22,2.502,2.83,4.061
			c0.609,1.559,0.914,3.357,0.914,5.396c0,4.734-1.823,8.479-5.467,11.232c-3.645,2.754-8.538,4.131-14.678,4.131
			C583.523,122.012,577.441,120.254,572.918,116.739z"/>
		<path fill="#FFFFFF" d="M619.975,77.452c-0.949-0.902-1.424-2.08-1.424-3.533s0.475-2.625,1.424-3.516s2.197-1.336,3.744-1.336
			c1.523,0,2.754,0.445,3.691,1.336c0.937,0.891,1.406,2.062,1.406,3.516s-0.475,2.631-1.424,3.533s-2.186,1.354-3.709,1.354
			C622.16,78.805,620.924,78.354,619.975,77.452z M620.52,119.815c-0.821-0.855-1.23-2.068-1.23-3.639V90.793
			c0-1.57,0.41-2.789,1.23-3.656c0.82-0.867,1.875-1.301,3.164-1.301c1.289,0,2.35,0.434,3.182,1.301
			c0.832,0.867,1.248,2.086,1.248,3.656v25.383c0,1.547-0.417,2.754-1.248,3.621c-0.832,0.867-1.893,1.301-3.182,1.301
			C622.395,121.098,621.34,120.67,620.52,119.815z"/>
		<path fill="#FFFFFF" d="M662.355,115.473c-1.992,3.773-5.484,5.66-10.477,5.66c-5.062,0-9.118-1.564-12.164-4.693
			c-3.047-3.129-4.57-7.377-4.57-12.744c0-5.414,1.482-9.814,4.447-13.201c2.965-3.387,6.99-5.08,12.076-5.08
			c2.835,0,5.062,0.492,6.68,1.477s3.011,2.414,4.184,4.289v-1.617c0.117-1.195,0.557-2.115,1.318-2.76
			c0.761-0.645,1.682-0.967,2.76-0.967c1.218,0,2.22,0.434,3.006,1.301c0.785,0.867,1.178,2.074,1.178,3.621v28.828
			c0,5.555-1.612,9.785-4.834,12.691c-3.223,2.906-7.6,4.359-13.131,4.359c-2.508,0-4.904-0.264-7.189-0.791
			s-4.061-1.178-5.326-1.951c-1.078-0.656-1.617-1.547-1.617-2.672c0-0.797,0.269-1.5,0.809-2.109
			c0.539-0.609,1.218-0.914,2.039-0.914c0.375,0,0.75,0.07,1.125,0.211c0.211,0.07,0.844,0.287,1.898,0.65s1.828,0.615,2.32,0.756
			s1.225,0.293,2.197,0.457c0.972,0.164,1.928,0.246,2.865,0.246c3.281,0,5.836-0.814,7.664-2.443s2.742-4.107,2.742-7.436V115.473z
			 M659.93,112.362c1.617-1.887,2.426-4.834,2.426-8.842c0-8.133-2.977-12.199-8.93-12.199c-1.313,0-2.496,0.217-3.551,0.65
			s-1.934,1.02-2.637,1.758s-1.289,1.629-1.758,2.672c-0.469,1.043-0.809,2.145-1.02,3.305s-0.316,2.408-0.316,3.744
			c0,3.867,0.884,6.791,2.654,8.771c1.77,1.98,3.99,2.994,6.662,3.041C656.156,115.215,658.312,114.249,659.93,112.362z"/>
		<path fill="#FFFFFF" d="M681.094,119.815c-0.821-0.855-1.23-2.045-1.23-3.568v-25.98c0-1.406,0.422-2.496,1.266-3.27
			s1.91-1.16,3.199-1.16c1.266,0,2.308,0.381,3.129,1.143c0.82,0.762,1.23,1.834,1.23,3.217v1.23
			c1.031-1.992,2.537-3.504,4.518-4.535c1.98-1.031,4.342-1.547,7.083-1.547c1.688,0,3.275,0.275,4.764,0.826
			s2.818,1.359,3.99,2.426s2.098,2.479,2.777,4.236s1.02,3.762,1.02,6.012v17.402c0,1.523-0.422,2.713-1.266,3.568
			s-1.922,1.283-3.234,1.283c-1.242,0-2.273-0.428-3.094-1.283s-1.23-2.045-1.23-3.568V98.809c0-2.414-0.627-4.26-1.881-5.537
			s-2.854-1.916-4.798-1.916c-2.344,0-4.372,0.926-6.082,2.777c-1.711,1.852-2.566,4.266-2.566,7.242v14.871
			c0,1.523-0.417,2.713-1.248,3.568c-0.832,0.855-1.893,1.283-3.182,1.283C682.969,121.098,681.914,120.67,681.094,119.815z"/>
		<path fill="#FFFFFF" d="M742.845,77.452c-0.949-0.902-1.424-2.08-1.424-3.533s0.475-2.625,1.424-3.516s2.197-1.336,3.744-1.336
			c1.523,0,2.754,0.445,3.691,1.336s1.406,2.062,1.406,3.516s-0.475,2.631-1.424,3.533s-2.186,1.354-3.709,1.354
			S743.794,78.354,742.845,77.452z M743.39,119.815c-0.82-0.855-1.23-2.068-1.23-3.639V90.793c0-1.57,0.41-2.789,1.23-3.656
			s1.875-1.301,3.164-1.301s2.35,0.434,3.182,1.301s1.248,2.086,1.248,3.656v25.383c0,1.547-0.416,2.754-1.248,3.621
			s-1.893,1.301-3.182,1.301S744.21,120.67,743.39,119.815z"/>
		<path fill="#FFFFFF" d="M761.144,119.815c-0.82-0.855-1.23-2.045-1.23-3.568v-25.98c0-1.406,0.422-2.496,1.266-3.27
			s1.91-1.16,3.199-1.16c1.266,0,2.309,0.381,3.129,1.143s1.23,1.834,1.23,3.217v1.23c1.031-1.992,2.537-3.504,4.518-4.535
			s4.342-1.547,7.084-1.547c1.688,0,3.275,0.275,4.764,0.826s2.818,1.359,3.99,2.426s2.098,2.479,2.777,4.236s1.02,3.762,1.02,6.012
			v17.402c0,1.523-0.422,2.713-1.266,3.568s-1.922,1.283-3.234,1.283c-1.242,0-2.273-0.428-3.094-1.283s-1.23-2.045-1.23-3.568
			V98.809c0-2.414-0.627-4.26-1.881-5.537s-2.854-1.916-4.799-1.916c-2.344,0-4.371,0.926-6.082,2.777s-2.566,4.266-2.566,7.242
			v14.871c0,1.523-0.416,2.713-1.248,3.568s-1.893,1.283-3.182,1.283S761.964,120.67,761.144,119.815z"/>
	</g>
</g>
</svg>
