<?xml version="1.0" encoding="utf-8"?>
<!-- Generator: Adobe Illustrator 14.0.0, SVG Export Plug-In . SVG Version: 6.00 Build 43363)  -->
<!DOCTYPE svg PUBLIC "-//W3C//DTD SVG 1.1//EN" "http://www.w3.org/Graphics/SVG/1.1/DTD/svg11.dtd">
<svg version="1.1" id="Layer_1" xmlns="http://www.w3.org/2000/svg" xmlns:xlink="http://www.w3.org/1999/xlink" x="0px" y="0px"
	 width="1395.667px" height="192.333px" viewBox="0 0 1395.667 192.333" enable-background="new 0 0 1395.667 192.333"
	 xml:space="preserve">
<g id="Layer_2">
	<g>
		<g>
			<path fill="none" stroke="#FF8400" stroke-width="4" d="M28.884,2.229h1337.896c14.826,0,26.842,12.017,26.842,26.838v134.2
				c0,14.82-12.016,26.838-26.842,26.838H28.884c-14.823,0-26.84-12.018-26.84-26.838v-134.2
				C2.045,14.246,14.062,2.229,28.884,2.229z"/>
			
				<linearGradient id="SVGID_1_" gradientUnits="userSpaceOnUse" x1="-130.166" y1="739.1626" x2="-130.166" y2="551.2876" gradientTransform="matrix(1 0 0 1 828 -549.0586)">
				<stop  offset="0" style="stop-color:#FFA406"/>
				<stop  offset="0.5644" style="stop-color:#FFAB19"/>
				<stop  offset="1" style="stop-color:#FFAE21"/>
			</linearGradient>
			<path fill="url(#SVGID_1_)" d="M28.884,2.229h1337.896c14.826,0,26.842,12.017,26.842,26.838v134.2
				c0,14.82-12.016,26.838-26.842,26.838H28.884c-14.823,0-26.84-12.018-26.84-26.838v-134.2
				C2.045,14.246,14.062,2.229,28.884,2.229z"/>
		</g>
	</g>
</g>
<g id="Layer_5">
	<rect x="569.043" y="71.979" fill="none" width="240.539" height="68.997"/>
	<g enable-background="new    ">
		<path fill="#FFFFFF" d="M573.93,118.35c-0.54-0.398-0.809-1.031-0.809-1.898c0-1.148,0.416-2.279,1.248-3.393
			c0.832-1.113,1.752-1.67,2.76-1.67c0.422,0,0.832,0.117,1.23,0.352c4.382,2.625,8.977,3.938,13.781,3.938
			c3.07,0,5.56-0.551,7.471-1.652c1.91-1.102,2.865-2.73,2.865-4.887c0-1.781-0.516-3.176-1.547-4.184
			c-1.032-1.008-2.637-1.863-4.816-2.566l-11.602-3.867c-4.008-1.383-6.896-3.088-8.666-5.115c-1.77-2.027-2.654-4.775-2.654-8.244
			c0-4.477,1.811-8.027,5.432-10.652s8.302-3.938,14.045-3.938c3.352,0,6.609,0.475,9.773,1.424s5.59,2.15,7.277,3.604
			c0.726,0.656,1.09,1.5,1.09,2.531c0,1.055-0.352,2.01-1.055,2.865s-1.547,1.283-2.531,1.283c-0.516,0-1.078-0.164-1.688-0.492
			c-3.774-2.156-7.852-3.234-12.234-3.234c-1.454,0-2.772,0.1-3.955,0.299c-1.184,0.199-2.28,0.521-3.287,0.967
			c-1.008,0.445-1.793,1.078-2.355,1.898s-0.844,1.805-0.844,2.953c0,1.477,0.427,2.678,1.283,3.604
			c0.855,0.926,2.162,1.682,3.92,2.268c0.117,0.047,1.828,0.551,5.133,1.512s5.015,1.465,5.133,1.512
			c2.343,0.75,4.318,1.523,5.924,2.32c1.605,0.797,3.046,1.77,4.324,2.918c1.277,1.148,2.22,2.502,2.83,4.061
			c0.609,1.559,0.914,3.357,0.914,5.396c0,4.734-1.823,8.479-5.467,11.232c-3.645,2.754-8.538,4.131-14.678,4.131
			C584.535,123.624,578.453,121.866,573.93,118.35z"/>
		<path fill="#FFFFFF" d="M620.986,79.063c-0.949-0.902-1.424-2.08-1.424-3.533s0.475-2.625,1.424-3.516s2.197-1.336,3.744-1.336
			c1.523,0,2.754,0.445,3.691,1.336c0.937,0.891,1.406,2.062,1.406,3.516s-0.475,2.631-1.424,3.533s-2.186,1.354-3.709,1.354
			C623.171,80.417,621.936,79.965,620.986,79.063z M621.531,121.426c-0.821-0.855-1.23-2.068-1.23-3.639V92.405
			c0-1.57,0.41-2.789,1.23-3.656c0.82-0.867,1.875-1.301,3.164-1.301c1.289,0,2.35,0.434,3.182,1.301
			c0.832,0.867,1.248,2.086,1.248,3.656v25.383c0,1.547-0.417,2.754-1.248,3.621c-0.832,0.867-1.893,1.301-3.182,1.301
			C623.406,122.709,622.352,122.282,621.531,121.426z"/>
		<path fill="#FFFFFF" d="M663.367,117.084c-1.992,3.773-5.484,5.66-10.477,5.66c-5.062,0-9.118-1.564-12.164-4.693
			c-3.047-3.129-4.57-7.377-4.57-12.744c0-5.414,1.482-9.814,4.447-13.201c2.965-3.387,6.99-5.08,12.076-5.08
			c2.835,0,5.062,0.492,6.68,1.477s3.011,2.414,4.184,4.289v-1.617c0.117-1.195,0.557-2.115,1.318-2.76
			c0.761-0.645,1.682-0.967,2.76-0.967c1.218,0,2.22,0.434,3.006,1.301c0.785,0.867,1.178,2.074,1.178,3.621v28.828
			c0,5.555-1.612,9.785-4.834,12.691c-3.223,2.906-7.6,4.359-13.131,4.359c-2.508,0-4.904-0.264-7.189-0.791
			s-4.061-1.178-5.326-1.951c-1.078-0.656-1.617-1.547-1.617-2.672c0-0.797,0.269-1.5,0.809-2.109
			c0.539-0.609,1.218-0.914,2.039-0.914c0.375,0,0.75,0.07,1.125,0.211c0.211,0.07,0.844,0.287,1.898,0.65s1.828,0.615,2.32,0.756
			s1.225,0.293,2.197,0.457c0.972,0.164,1.928,0.246,2.865,0.246c3.281,0,5.836-0.814,7.664-2.443s2.742-4.107,2.742-7.436V117.084z
			 M660.941,113.973c1.617-1.887,2.426-4.834,2.426-8.842c0-8.133-2.977-12.199-8.93-12.199c-1.313,0-2.496,0.217-3.551,0.65
			s-1.934,1.02-2.637,1.758s-1.289,1.629-1.758,2.672c-0.469,1.043-0.809,2.145-1.02,3.305s-0.316,2.408-0.316,3.744
			c0,3.867,0.884,6.791,2.654,8.771c1.77,1.98,3.99,2.994,6.662,3.041C657.167,116.827,659.324,115.86,660.941,113.973z"/>
		<path fill="#FFFFFF" d="M682.105,121.426c-0.821-0.855-1.23-2.045-1.23-3.568v-25.98c0-1.406,0.422-2.496,1.266-3.27
			s1.91-1.16,3.199-1.16c1.266,0,2.308,0.381,3.129,1.143c0.82,0.762,1.23,1.834,1.23,3.217v1.23
			c1.031-1.992,2.537-3.504,4.517-4.535s4.342-1.547,7.084-1.547c1.688,0,3.275,0.275,4.764,0.826s2.818,1.359,3.99,2.426
			s2.098,2.479,2.777,4.236s1.02,3.762,1.02,6.012v17.402c0,1.523-0.422,2.713-1.266,3.568s-1.922,1.283-3.234,1.283
			c-1.242,0-2.273-0.428-3.094-1.283s-1.23-2.045-1.23-3.568V100.42c0-2.414-0.627-4.26-1.881-5.537s-2.854-1.916-4.799-1.916
			c-2.344,0-4.371,0.926-6.082,2.777c-1.71,1.852-2.566,4.266-2.566,7.242v14.871c0,1.523-0.417,2.713-1.248,3.568
			c-0.832,0.855-1.893,1.283-3.182,1.283C683.98,122.709,682.926,122.282,682.105,121.426z"/>
		<path fill="#FFFFFF" d="M743.857,79.063c-0.949-0.902-1.424-2.08-1.424-3.533s0.475-2.625,1.424-3.516s2.197-1.336,3.744-1.336
			c1.523,0,2.754,0.445,3.691,1.336s1.406,2.062,1.406,3.516s-0.475,2.631-1.424,3.533s-2.186,1.354-3.709,1.354
			S744.806,79.965,743.857,79.063z M744.402,121.426c-0.82-0.855-1.23-2.068-1.23-3.639V92.405c0-1.57,0.41-2.789,1.23-3.656
			s1.875-1.301,3.164-1.301s2.35,0.434,3.182,1.301s1.248,2.086,1.248,3.656v25.383c0,1.547-0.416,2.754-1.248,3.621
			s-1.893,1.301-3.182,1.301S745.222,122.282,744.402,121.426z"/>
		<path fill="#FFFFFF" d="M762.156,121.426c-0.82-0.855-1.23-2.045-1.23-3.568v-25.98c0-1.406,0.422-2.496,1.266-3.27
			s1.91-1.16,3.199-1.16c1.266,0,2.309,0.381,3.129,1.143s1.23,1.834,1.23,3.217v1.23c1.031-1.992,2.537-3.504,4.518-4.535
			s4.342-1.547,7.084-1.547c1.688,0,3.275,0.275,4.764,0.826s2.818,1.359,3.99,2.426s2.098,2.479,2.777,4.236s1.02,3.762,1.02,6.012
			v17.402c0,1.523-0.422,2.713-1.266,3.568s-1.922,1.283-3.234,1.283c-1.242,0-2.273-0.428-3.094-1.283s-1.23-2.045-1.23-3.568
			V100.42c0-2.414-0.627-4.26-1.881-5.537s-2.854-1.916-4.799-1.916c-2.344,0-4.371,0.926-6.082,2.777s-2.566,4.266-2.566,7.242
			v14.871c0,1.523-0.416,2.713-1.248,3.568s-1.893,1.283-3.182,1.283S762.976,122.282,762.156,121.426z"/>
	</g>
</g>
</svg>
