<?xml version="1.0" encoding="utf-8"?>
<!-- Generator: Adobe Illustrator 14.0.0, SVG Export Plug-In . SVG Version: 6.00 Build 43363)  -->
<!DOCTYPE svg PUBLIC "-//W3C//DTD SVG 1.1//EN" "http://www.w3.org/Graphics/SVG/1.1/DTD/svg11.dtd">
<svg version="1.1" id="Layer_1" xmlns="http://www.w3.org/2000/svg" xmlns:xlink="http://www.w3.org/1999/xlink" x="0px" y="0px"
	 width="10.047px" height="11.613px" viewBox="0 0 10.047 11.613" enable-background="new 0 0 10.047 11.613" xml:space="preserve">
<g id="Layer_12">
	<polygon fill="#FFB947" points="0.04,8.727 0.035,2.949 5.036,0.055 10.043,2.94 10.047,8.716 5.047,11.613 	"/>
</g>
<g id="Layer_10">
</g>
<g id="Layer_13">
	<g>
		<g>
			<defs>
				<polygon id="SVGID_1_" points="0.04,8.727 0.035,2.95 5.037,0.056 10.043,2.941 10.047,8.716 5.047,11.613 				"/>
			</defs>
			<clipPath id="SVGID_2_">
				<use xlink:href="#SVGID_1_"  overflow="visible"/>
			</clipPath>
			
				<linearGradient id="SVGID_3_" gradientUnits="userSpaceOnUse" x1="-405.2051" y1="324.0015" x2="-405.2051" y2="336.1733" gradientTransform="matrix(1 0 0 -1 414 335.6123)">
				<stop  offset="0" style="stop-color:#FFFFFF;stop-opacity:0.25"/>
				<stop  offset="0.7178" style="stop-color:#FFFFFF;stop-opacity:0"/>
			</linearGradient>
			<rect x="5.042" y="-0.562" clip-path="url(#SVGID_2_)" fill="url(#SVGID_3_)" width="7.505" height="12.173"/>
		</g>
	</g>
</g>
<g id="Layer_6">
	<g id="Shape_57_1_">
		<g>
			<circle fill="#FFFFFF" cx="5.112" cy="5.841" r="3.097"/>
		</g>
	</g>
	<g id="Shape_57_2_">
		<g>
			<circle fill="#FFB947" cx="5.155" cy="5.866" r="1.767"/>
		</g>
	</g>
	<polygon fill="#FFB947" points="4.889,2.753 5.595,3.321 5.249,4.224 4.704,4.275 4.326,4.306 4.602,3.53 3.852,2.827 	"/>
	<polygon fill="#FFB947" points="8.015,7.078 7.228,7.52 6.516,6.865 6.67,6.341 6.782,5.979 7.401,6.522 8.333,6.085 	"/>
	<polygon fill="#FFB947" points="2.581,7.652 2.68,6.75 3.628,6.559 3.963,6.99 4.193,7.291 3.391,7.476 3.201,8.486 	"/>
</g>
<g id="Layer_8">
</g>
<g id="Layer_7">
	<g>
		<g>
			<defs>
				<circle id="SVGID_4_" cx="5.155" cy="5.866" r="1.767"/>
			</defs>
			<clipPath id="SVGID_5_">
				<use xlink:href="#SVGID_4_"  overflow="visible"/>
			</clipPath>
			
				<linearGradient id="SVGID_6_" gradientUnits="userSpaceOnUse" x1="-405.79" y1="324.8159" x2="-405.79" y2="334.3589" gradientTransform="matrix(1 0 0 -1 414 335.6123)">
				<stop  offset="0" style="stop-color:#FFFFFF;stop-opacity:0.25"/>
				<stop  offset="0.7178" style="stop-color:#FFFFFF;stop-opacity:0"/>
			</linearGradient>
			<rect x="5.141" y="1.253" clip-path="url(#SVGID_5_)" fill="url(#SVGID_6_)" width="6.138" height="9.543"/>
		</g>
	</g>
</g>
<g id="Layer_14">
</g>
<g id="Layer_11">
	<g>
		<g>
			<defs>
				<polygon id="SVGID_7_" points="8.015,7.078 7.228,7.52 6.612,6.955 6.782,6.559 6.922,6.103 7.401,6.522 8.333,6.085 				"/>
			</defs>
			<clipPath id="SVGID_8_">
				<use xlink:href="#SVGID_7_"  overflow="visible"/>
			</clipPath>
			
				<linearGradient id="SVGID_9_" gradientUnits="userSpaceOnUse" x1="-405.79" y1="324.7261" x2="-405.79" y2="334.2681" gradientTransform="matrix(1 0 0 -1 414 335.6123)">
				<stop  offset="0" style="stop-color:#FFFFFF;stop-opacity:0.25"/>
				<stop  offset="0.7178" style="stop-color:#FFFFFF;stop-opacity:0"/>
			</linearGradient>
			<rect x="5.141" y="1.344" clip-path="url(#SVGID_8_)" fill="url(#SVGID_9_)" width="6.138" height="9.542"/>
		</g>
	</g>
</g>
</svg>
